<?xml version="1.0" encoding="UTF-8"?>
<!-- Generated by Pixelmator Pro 3.6.15 -->
<svg width="75" height="107" viewBox="0 0 75 107" xmlns="http://www.w3.org/2000/svg">
    <g id="Group-copy-4">
        <g id="Group">
            <g id="g1">
                <g id="g2">
                    <g id="g3">
                        <path id="Path" fill="#d78b49" stroke="none" d="M 48.25 97.950012 L 48.299999 97.950012 L 48.450001 92.950012 L 36.549999 92.950012 L 36.400002 97.950012 L 48.25 97.950012 Z"/>
                        <path id="path1" fill="#bf7958" stroke="none" d="M 54 103.950012 L 48.25 97.950012 L 36.400002 97.950012 L 36 106.950012 L 53.900002 106.950012 L 54 103.950012 Z"/>
                        <path id="path2" fill="#eea160" stroke="none" d="M 48.900002 83.75 C 48.900002 82.149963 48.266666 80.783325 47 79.650024 C 45.766666 78.516663 44.25 77.950012 42.450001 77.950012 C 40.683334 77.950012 39.166668 78.516663 37.900002 79.650024 C 36.633335 80.783325 36 82.149963 36 83.75 L 36.549999 92.950012 L 48.450001 92.950012 L 48.900002 83.75 Z"/>
                    </g>
                </g>
            </g>
        </g>
        <g id="g4">
            <g id="g5">
                <g id="g6">
                    <g id="g7">
                        <path id="path3" fill="#d78b49" stroke="none" d="M 21.75 97.950012 L 21.700001 97.950012 L 21.549999 92.950012 L 33.450001 92.950012 L 33.599998 97.950012 L 21.75 97.950012 Z"/>
                        <path id="path4" fill="#bf7958" stroke="none" d="M 16 103.950012 L 21.75 97.950012 L 33.599998 97.950012 L 34 106.950012 L 16.1 106.950012 L 16 103.950012 Z"/>
                        <path id="path5" fill="#eea160" stroke="none" d="M 21.099998 83.75 C 21.099998 82.149963 21.733334 80.783325 23 79.650024 C 24.233334 78.516663 25.75 77.950012 27.549999 77.950012 C 29.316666 77.950012 30.833332 78.516663 32.099998 79.650024 C 33.366665 80.783325 34 82.149963 34 83.75 L 33.450001 92.950012 L 21.549999 92.950012 L 21.099998 83.75 Z"/>
                    </g>
                </g>
            </g>
        </g>
        <g id="g8">
            <g id="g9">
                <g id="g10">
                    <g id="g11">
                        <path id="path6" fill="#3dbf7b" stroke="none" d="M 62.699997 68.700012 C 61.066666 66.133301 59.083336 63.716675 56.75 61.450012 C 55.583336 60.383301 54.183334 59.833313 52.550003 59.799988 C 50.916668 59.833313 49.516666 60.433289 48.349998 61.599976 C 47.216667 62.799988 46.683334 64.200012 46.75 65.799988 C 46.75 67.43335 47.316666 68.81665 48.450001 69.950012 C 50.049999 71.483337 51.383331 73.133362 52.449997 74.900024 C 55.549995 71.666687 58.966667 69.599976 62.699997 68.700012 Z"/>
                        <path id="path7" fill="#ffffff" stroke="none" d="M 66.599998 77.650024 C 66.400002 76.883362 66.166672 76.133362 65.900002 75.400024 C 65.066666 73.100037 64 70.866699 62.699997 68.700012 C 58.966667 69.599976 55.549995 71.666687 52.449997 74.900024 C 53.01667 75.799988 53.51667 76.716675 53.949997 77.650024 L 66.599998 77.650024 Z"/>
                        <path id="path8" fill="#ffd7b1" stroke="none" d="M 53.949997 77.650024 C 54.98333 79.783325 55.633331 82.083313 55.900002 84.549988 C 56.066666 86.150024 56.783333 87.466675 58.050003 88.5 C 59.349998 89.5 60.816666 89.93335 62.449997 89.799988 C 64.049995 89.599976 65.366669 88.849976 66.400002 87.549988 C 67.433334 86.31665 67.866661 84.866699 67.699997 83.200012 C 67.466667 81.266663 67.099998 79.416687 66.599998 77.650024 L 53.949997 77.650024 Z"/>
                    </g>
                </g>
            </g>
            <g id="g12">
                <g id="g13">
                    <g id="g14">
                        <path id="path9" fill="#25a863" stroke="none" d="M 65.150002 69.599976 L 63.099998 66 L 50.200001 73.5 L 52.199997 77.049988 L 65.150002 69.599976 Z"/>
                    </g>
                </g>
            </g>
        </g>
        <g id="g15">
            <g id="g16">
                <g id="g17">
                    <g id="g18">
                        <path id="path10" fill="#3dbf7b" stroke="none" d="M 7.299999 68.700012 C 8.933332 66.133301 10.916666 63.716675 13.25 61.450012 C 14.416666 60.383301 15.816668 59.833313 17.450001 59.799988 C 19.083336 59.833313 20.483334 60.433289 21.650002 61.599976 C 22.783333 62.799988 23.316666 64.200012 23.25 65.799988 C 23.25 67.43335 22.683334 68.81665 21.549999 69.950012 C 19.950001 71.483337 18.616667 73.133362 17.549999 74.900024 C 14.449999 71.666687 11.033333 69.599976 7.299999 68.700012 Z"/>
                        <path id="path11" fill="#ffffff" stroke="none" d="M 3.4 77.650024 C 3.6 76.883362 3.833334 76.133362 4.1 75.400024 C 4.933334 73.100037 6 70.866699 7.299999 68.700012 C 11.033333 69.599976 14.449999 71.666687 17.549999 74.900024 C 16.983334 75.799988 16.483334 76.716675 16.049999 77.650024 L 3.4 77.650024 Z"/>
                        <path id="path12" fill="#ffd7b1" stroke="none" d="M 16.049999 77.650024 C 15.016666 79.783325 14.366667 82.083313 14.1 84.549988 C 13.933334 86.150024 13.216667 87.466675 11.950001 88.5 C 10.65 89.5 9.183332 89.93335 7.549999 89.799988 C 5.949999 89.599976 4.633333 88.849976 3.6 87.549988 C 2.566667 86.31665 2.133333 84.866699 2.3 83.200012 C 2.533333 81.266663 2.9 79.416687 3.4 77.650024 L 16.049999 77.650024 Z"/>
                    </g>
                </g>
            </g>
            <g id="g19">
                <g id="g20">
                    <g id="g21">
                        <path id="path13" fill="#25a863" stroke="none" d="M 4.85 69.599976 L 6.9 66 L 19.799999 73.5 L 17.799999 77.049988 L 4.85 69.599976 Z"/>
                    </g>
                </g>
            </g>
        </g>
        <g id="g22">
            <g id="g23">
                <g id="g24">
                    <g id="g25">
                        <path id="path14" fill="#bf7958" stroke="none" d="M 49.549999 78.900024 L 19.5 78.900024 L 19.5 83.849976 L 49.549999 83.849976 L 49.549999 78.900024 Z"/>
                        <path id="path15" fill="#eea160" stroke="none" d="M 19.5 83.849976 C 19.566666 86.049988 20.066666 87.783325 21 89.049988 L 48.049999 89.049988 C 48.983334 87.783325 49.483334 86.049988 49.549999 83.849976 L 19.5 83.849976 Z"/>
                        <path id="path16" fill="#3dbf7b" stroke="none" d="M 49.549999 78.900024 L 52.75 65.25 C 53.450005 61.649963 52.583336 59.916626 50.150002 60.049988 L 18.85 60.049988 C 16.416668 59.916626 15.550001 61.649963 16.25 65.25 L 19.5 78.900024 L 49.549999 78.900024 Z"/>
                    </g>
                </g>
            </g>
            <g id="g26">
                <g id="g27">
                    <g id="g28">
                        <path id="path17" fill="#bf7958" stroke="none" d="M 17.450001 76 L 22.349998 77.349976 L 26.25 62.799988 L 21 62.799988 L 17.450001 76 M 47.650002 77.349976 L 52.550003 76 L 49 62.799988 L 43.75 62.799988 L 47.650002 77.349976 Z"/>
                    </g>
                </g>
            </g>
            <g id="g29">
                <g id="g30">
                    <g id="g31">
                        <path id="path18" fill="#f0c49a" stroke="none" d="M 45 59.049988 C 45 56.549988 43.983334 54.399963 41.950001 52.599976 C 39.883331 50.899963 37.399998 50.049988 34.5 50.049988 C 31.600002 50.049988 29.116669 50.899963 27.049999 52.599976 C 25.016666 54.399963 24 56.549988 24 59.049988 C 24 59.216675 24.016666 59.383301 24.049999 59.549988 C 24.150002 61.81665 25.150002 63.75 27.049999 65.349976 C 29.116669 67.149963 31.600002 68.049988 34.5 68.049988 C 37.399998 68.049988 39.883331 67.149963 41.950001 65.349976 C 43.849998 63.75 44.849998 61.81665 44.950001 59.549988 C 44.983334 59.383301 45 59.216675 45 59.049988 Z"/>
                    </g>
                </g>
            </g>
            <g id="g32">
                <g id="g33">
                    <g id="g34">
                        <path id="path19" fill="#25a863" stroke="none" d="M 21.900002 59.049988 L 19.849998 62.650024 L 32.950001 70.25 L 35 66.599976 L 21.900002 59.049988 M 48.099998 59.049988 L 35 66.599976 L 37.049999 70.25 L 50.150002 62.650024 L 48.099998 59.049988 Z"/>
                        <path id="path20" fill="#3dbf7b" stroke="none" d="M 37.049999 70.25 L 35 66.599976 L 32.950001 70.25 L 37.049999 70.25 Z"/>
                    </g>
                </g>
            </g>
        </g>
        <g id="g35">
            <g id="g36">
                <g id="g37">
                    <g id="g38">
                        <path id="path21" fill="#f0c49a" stroke="none" d="M 52.150002 94.5 L 52.099998 93.549988 C 52.433334 89.416626 53.699997 86.216675 55.900002 83.950012 C 50.100002 88.25 48.833332 91.783325 52.099998 94.549988 L 52.150002 94.5 Z"/>
                        <path id="path22" fill="#ffd7b1" stroke="none" d="M 68.349998 85.25 C 68.316666 84.350037 67.816666 83.900024 66.849998 83.900024 L 55.900002 83.950012 C 53.699997 86.216675 52.433334 89.416626 52.099998 93.549988 L 52.150002 94.5 L 52.099998 94.549988 C 52.066666 95.650024 52.066666 96.81665 52.099998 98.049988 L 52.099998 98.450012 C 52.099998 99.383301 52.816666 99.983337 54.25 100.25 C 56.349998 100.716675 58.400002 100.93335 60.400002 100.900024 C 66.066666 100.866638 68.716667 95.950012 68.349998 86.150024 L 68.349998 85.25 Z"/>
                    </g>
                </g>
            </g>
        </g>
        <g id="g39">
            <g id="g40">
                <g id="g41">
                    <g id="g42">
                        <path id="path23" fill="#f0c49a" stroke="none" d="M 17.85 94.5 L 17.9 93.549988 C 17.566666 89.416626 16.299999 86.216675 14.1 83.950012 C 19.900002 88.25 21.166664 91.783325 17.9 94.549988 L 17.85 94.5 Z"/>
                        <path id="path24" fill="#ffd7b1" stroke="none" d="M 1.65 85.25 C 1.683333 84.350037 2.183333 83.900024 3.15 83.900024 L 14.1 83.950012 C 16.299999 86.216675 17.566666 89.416626 17.9 93.549988 L 17.85 94.5 L 17.9 94.549988 C 17.933334 95.650024 17.933334 96.81665 17.9 98.049988 L 17.9 98.450012 C 17.9 99.383301 17.183332 99.983337 15.75 100.25 C 13.65 100.716675 11.6 100.93335 9.6 100.900024 C 3.933332 100.866638 1.283333 95.950012 1.65 86.150024 L 1.65 85.25 Z"/>
                    </g>
                </g>
            </g>
        </g>
        <g id="g43">
            <g id="g44">
                <g id="g45">
                    <g id="g46">
                        <radialGradient id="radialGradient1" cx="35.4" cy="61.1" r="20.481597" fx="35.4" fy="61.1" gradientUnits="userSpaceOnUse">
                            <stop offset="1e-05" stop-color="#000000" stop-opacity="0.301961"/>
                            <stop offset="1" stop-color="#000000" stop-opacity="0"/>
                        </radialGradient>
                        <path id="path25" fill="url(#radialGradient1)" stroke="none" d="M 49.644791 51.549988 C 45.72559 48.950012 40.977325 47.650024 35.400002 47.650024 C 29.822674 47.650024 25.024166 48.950012 21.004471 51.549988 C 17.08527 54.216675 15.125669 57.399963 15.125669 61.099976 C 15.125669 64.799988 17.08527 67.950012 21.004471 70.549988 C 25.024166 73.216675 29.822674 74.549988 35.400002 74.549988 C 40.977325 74.549988 45.72559 73.216675 49.644791 70.549988 C 53.664482 67.950012 55.674332 64.799988 55.674332 61.099976 C 55.674332 57.399963 53.664482 54.216675 49.644791 51.549988 Z"/>
                    </g>
                </g>
            </g>
        </g>
        <g id="g47">
            <g id="g48">
                <g id="g49">
                    <g id="g50">
                        <path id="path26" fill="#ffd7b1" stroke="none" d="M 12.700001 41.950012 C 11.133333 43.516663 10.35 45.416687 10.35 47.650024 C 10.35 49.883362 11.133333 51.783325 12.700001 53.349976 C 14.300001 54.950012 16.183334 55.75 18.35 55.75 C 20.550003 55.75 22.450001 54.950012 24.049999 53.349976 C 25.583332 51.783325 26.349998 49.883362 26.349998 47.650024 C 26.349998 45.416687 25.583332 43.516663 24.049999 41.950012 C 22.450001 40.31665 20.550003 39.5 18.35 39.5 C 16.183334 39.5 14.300001 40.31665 12.700001 41.950012 M 15 51.099976 C 14.066668 50.166687 13.6 49.016663 13.6 47.650024 C 13.6 46.350037 14.066668 45.200012 15 44.200012 C 15.9 43.266663 17.016666 42.799988 18.35 42.799988 C 19.716667 42.799988 20.866665 43.266663 21.799999 44.200012 C 22.733334 45.200012 23.200001 46.350037 23.200001 47.650024 C 23.200001 49.016663 22.733334 50.166687 21.799999 51.099976 C 20.866665 52.06665 19.716667 52.549988 18.35 52.549988 C 17.016666 52.549988 15.9 52.06665 15 51.099976 M 55.400002 39.5 C 53.233337 39.5 51.349998 40.31665 49.75 41.950012 C 48.183334 43.516663 47.400002 45.416687 47.400002 47.650024 C 47.400002 49.883362 48.183334 51.783325 49.75 53.349976 C 51.349998 54.950012 53.233337 55.75 55.400002 55.75 C 57.599998 55.75 59.5 54.950012 61.099998 53.349976 C 62.633331 51.783325 63.400002 49.883362 63.400002 47.650024 C 63.400002 45.416687 62.633331 43.516663 61.099998 41.950012 C 59.5 40.31665 57.599998 39.5 55.400002 39.5 M 55.400002 52.549988 C 54.066666 52.549988 52.950005 52.06665 52.050003 51.099976 C 51.083336 50.166687 50.599998 49.016663 50.599998 47.650024 C 50.599998 46.350037 51.083336 45.200012 52.050003 44.200012 C 52.950005 43.266663 54.066666 42.799988 55.400002 42.799988 C 56.733337 42.799988 57.883331 43.266663 58.849998 44.200012 C 59.783333 45.200012 60.25 46.350037 60.25 47.650024 C 60.25 49.016663 59.783333 50.166687 58.849998 51.099976 C 57.883331 52.06665 56.733337 52.549988 55.400002 52.549988 Z"/>
                        <path id="path27" fill="#e7b687" stroke="none" d="M 13.6 47.650024 C 13.6 49.016663 14.066668 50.166687 15 51.099976 C 15.9 52.06665 17.016666 52.549988 18.35 52.549988 C 19.716667 52.549988 20.866665 52.06665 21.799999 51.099976 C 22.733334 50.166687 23.200001 49.016663 23.200001 47.650024 C 23.200001 46.350037 22.733334 45.200012 21.799999 44.200012 C 20.866665 43.266663 19.716667 42.799988 18.35 42.799988 C 17.016666 42.799988 15.9 43.266663 15 44.200012 C 14.066668 45.200012 13.6 46.350037 13.6 47.650024 M 52.050003 51.099976 C 52.950005 52.06665 54.066666 52.549988 55.400002 52.549988 C 56.733337 52.549988 57.883331 52.06665 58.849998 51.099976 C 59.783333 50.166687 60.25 49.016663 60.25 47.650024 C 60.25 46.350037 59.783333 45.200012 58.849998 44.200012 C 57.883331 43.266663 56.733337 42.799988 55.400002 42.799988 C 54.066666 42.799988 52.950005 43.266663 52.050003 44.200012 C 51.083336 45.200012 50.599998 46.350037 50.599998 47.650024 C 50.599998 49.016663 51.083336 50.166687 52.050003 51.099976 Z"/>
                    </g>
                </g>
            </g>
            <g id="g51">
                <g id="g52">
                    <g id="g53">
                        <path id="path28" fill="#ffd7b1" stroke="none" d="M 49.099998 61.25 C 52.699997 60.75 54.75 58.799988 55.25 55.400024 L 57.900002 29.200012 L 15.85 29.200012 L 19.099998 61.25 L 49.099998 61.25 Z"/>
                    </g>
                </g>
            </g>
            <g id="g54">
                <g id="g55">
                    <g id="g56">
                        <path id="path29" fill="#bf7958" stroke="none" d="M 57.25 8.799988 L 44.700001 20.950012 C 33.299999 16.68335 21.833332 18.383301 10.300001 26.049988 L 18.25 37.599976 L 18.25 32.450012 C 18.783333 32.349976 19.316666 32.233337 19.849998 32.099976 C 19.950001 32.133362 20.049999 32.166687 20.149998 32.200012 C 23.650002 33.766663 27.900002 34.549988 32.900002 34.549988 C 37.866665 34.549988 42.099998 33.766663 45.599998 32.200012 C 46.566666 31.766663 47.399998 31.333313 48.099998 30.900024 C 51.199997 31.233337 54.300003 31.75 57.400002 32.450012 L 57.400002 38.200012 L 62.349998 28.599976 C 63.650002 25.599976 64.450005 22.716675 64.75 19.950012 C 64.150002 15.849976 61.650002 12.133301 57.25 8.799988 Z"/>
                        <path id="path30" fill="#db855c" stroke="none" d="M 44.700001 20.950012 L 57.25 8.799988 C 61.650002 12.133301 64.150002 15.849976 64.75 19.950012 C 65.51667 12.916687 63.01667 6.666687 57.25 1.200012 L 44.700001 16.450012 C 32.833336 10.916687 20.883335 13.450012 8.85 24.049988 L 10.300001 26.049988 C 21.833332 18.383301 33.299999 16.68335 44.700001 20.950012 Z"/>
                    </g>
                </g>
            </g>
            <g id="g57">
                <g id="g58">
                    <g id="g59">
                        <path id="path31" fill="#bf7958" stroke="none" d="M 33.450001 38.700012 L 32.5 35.25 L 23.400002 37.650024 L 24.400002 41.099976 L 33.450001 38.700012 Z"/>
                    </g>
                </g>
            </g>
            <g id="g60">
                <g id="g61">
                    <g id="g62">
                        <path id="path32" fill="#ffffff" stroke="none" d="M 24.400002 46.049988 C 24.400002 47.216675 24.766666 48.233337 25.5 49.099976 C 26.299999 49.966675 27.299999 50.400024 28.5 50.400024 C 29.633335 50.400024 30.583332 49.966675 31.349998 49.099976 C 32.149998 48.233337 32.549999 47.216675 32.549999 46.049988 C 32.549999 44.883301 32.149998 43.883301 31.349998 43.049988 C 30.583332 42.216675 29.633335 41.799988 28.5 41.799988 C 27.299999 41.799988 26.299999 42.216675 25.5 43.049988 C 24.766666 43.883301 24.400002 44.883301 24.400002 46.049988 M 31.049999 43.549988 C 31.516666 44.25 31.75 45.083313 31.75 46.049988 C 31.75 47.049988 31.516666 47.883301 31.049999 48.549988 C 30.583332 49.283325 30 49.650024 29.299999 49.650024 C 28.633331 49.650024 28.066666 49.283325 27.599998 48.549988 C 27.133335 47.883301 26.900002 47.049988 26.900002 46.049988 C 26.900002 45.083313 27.133335 44.25 27.599998 43.549988 C 28.066666 42.849976 28.633331 42.5 29.299999 42.5 C 30 42.5 30.583332 42.849976 31.049999 43.549988 M 45.450001 41.799988 C 44.316666 41.799988 43.333332 42.216675 42.5 43.049988 C 41.766666 43.883301 41.400002 44.883301 41.400002 46.049988 C 41.400002 47.216675 41.766666 48.233337 42.5 49.099976 C 43.333332 49.966675 44.316666 50.400024 45.450001 50.400024 C 46.616669 50.400024 47.566666 49.966675 48.299999 49.099976 C 49.133331 48.233337 49.549999 47.216675 49.549999 46.049988 C 49.549999 44.883301 49.133331 43.883301 48.299999 43.049988 C 47.566666 42.216675 46.616669 41.799988 45.450001 41.799988 M 41.950001 46.049988 C 41.950001 45.083313 42.166668 44.25 42.599998 43.549988 C 43.133335 42.849976 43.716667 42.5 44.349998 42.5 C 45.016666 42.5 45.566666 42.849976 46 43.549988 C 46.5 44.25 46.75 45.083313 46.75 46.049988 C 46.75 47.049988 46.5 47.883301 46 48.549988 C 45.566666 49.283325 45.016666 49.650024 44.349998 49.650024 C 43.716667 49.650024 43.133335 49.283325 42.599998 48.549988 C 42.166668 47.883301 41.950001 47.049988 41.950001 46.049988 Z"/>
                        <path id="path33" fill="#bf7958" stroke="none" d="M 31.75 46.049988 C 31.75 45.083313 31.516666 44.25 31.049999 43.549988 C 30.583332 42.849976 30 42.5 29.299999 42.5 C 28.633331 42.5 28.066666 42.849976 27.599998 43.549988 C 27.133335 44.25 26.900002 45.083313 26.900002 46.049988 C 26.900002 47.049988 27.133335 47.883301 27.599998 48.549988 C 28.066666 49.283325 28.633331 49.650024 29.299999 49.650024 C 30 49.650024 30.583332 49.283325 31.049999 48.549988 C 31.516666 47.883301 31.75 47.049988 31.75 46.049988 M 42.599998 43.549988 C 42.166668 44.25 41.950001 45.083313 41.950001 46.049988 C 41.950001 47.049988 42.166668 47.883301 42.599998 48.549988 C 43.133335 49.283325 43.716667 49.650024 44.349998 49.650024 C 45.016666 49.650024 45.566666 49.283325 46 48.549988 C 46.5 47.883301 46.75 47.049988 46.75 46.049988 C 46.75 45.083313 46.5 44.25 46 43.549988 C 45.566666 42.849976 45.016666 42.5 44.349998 42.5 C 43.716667 42.5 43.133335 42.849976 42.599998 43.549988 Z"/>
                    </g>
                </g>
            </g>
            <g id="g63">
                <g id="g64">
                    <g id="g65">
                        <path id="path34" fill="#bf7958" stroke="none" d="M 41.799999 38.049988 L 41.299999 41.599976 L 50.549999 42.950012 L 51.150002 39.400024 L 41.799999 38.049988 Z"/>
                    </g>
                </g>
            </g>
            <g id="g66">
                <g id="g67">
                    <g id="g68">
                        <path id="path35" fill="#e7b687" stroke="none" d="M 39.450001 50.799988 C 40.150002 50.333313 40.5 49.799988 40.5 49.200012 C 40.5 48.56665 40.150002 48 39.450001 47.5 C 38.783333 47.06665 37.966667 46.849976 37 46.849976 C 36.066666 46.849976 35.266666 47.06665 34.599998 47.5 C 33.966667 48 33.650002 48.56665 33.650002 49.200012 C 33.650002 49.799988 33.966667 50.333313 34.599998 50.799988 C 35.266666 51.299988 36.066666 51.549988 37 51.549988 C 37.966667 51.549988 38.783333 51.299988 39.450001 50.799988 Z"/>
                    </g>
                </g>
            </g>
            <g id="g69">
                <g id="g70">
                    <g id="g71">
                        <path id="path36" fill="#bf7958" stroke="none" d="M 14.550001 32.700012 L 16.4 48.599976 C 16.466667 49.266663 16.783333 49.833313 17.35 50.299988 C 17.883333 50.700012 18.483332 50.850037 19.149998 50.75 L 19.200001 50.75 C 19.866669 50.68335 20.400002 50.383362 20.799999 49.849976 C 21.200001 49.283325 21.366669 48.666687 21.299999 48 L 19.399998 32.099976 C 19.299999 31.399963 18.983334 30.849976 18.450001 30.450012 C 17.950001 30.049988 17.366667 29.866638 16.700001 29.900024 L 16.65 29.900024 C 16.016666 30 15.483334 30.333313 15.050001 30.900024 C 14.616667 31.400024 14.450001 32 14.550001 32.700012 M 55.300003 30.450012 C 54.76667 30.849976 54.449997 31.399963 54.349998 32.099976 L 52.5 48 C 52.433334 48.666687 52.599998 49.283325 53 49.849976 C 53.366669 50.383362 53.883339 50.68335 54.550003 50.75 L 54.599998 50.75 C 55.266663 50.850037 55.866669 50.700012 56.400002 50.299988 C 56.966667 49.833313 57.283333 49.266663 57.349998 48.599976 L 59.25 32.700012 C 59.349998 32 59.183334 31.400024 58.75 30.900024 C 58.316666 30.333313 57.766663 30 57.099998 29.900024 L 57.050003 29.900024 C 56.383339 29.866638 55.800003 30.049988 55.300003 30.450012 Z"/>
                    </g>
                </g>
            </g>
            <g id="g72">
                <g id="g73">
                    <g id="g74">
                        <path id="path37" fill="#ffffff" stroke="none" d="M 39.599998 56.400024 L 39.599998 53.200012 L 31.950001 53.200012 C 31.716667 53.200012 31.5 53.283325 31.299999 53.450012 C 31.066666 53.549988 30.933334 53.716675 30.900002 53.950012 C 30.833332 54.116699 30.833332 54.333313 30.900002 54.599976 C 30.933334 54.933289 31.049999 55.283325 31.25 55.650024 C 31.416668 55.883362 31.599998 56.133362 31.799999 56.400024 L 39.599998 56.400024 Z"/>
                        <path id="path38" fill="#bf7958" stroke="none" d="M 43.400002 53.450012 C 43.200001 53.283325 42.983334 53.200012 42.75 53.200012 L 39.599998 53.200012 L 39.599998 56.400024 L 31.799999 56.400024 C 32 56.766663 32.266666 57.06665 32.599998 57.299988 C 33.899998 58.56665 35.483334 59.200012 37.349998 59.200012 C 39.149998 59.200012 40.716667 58.583313 42.049999 57.349976 L 42.150002 57.299988 C 42.650002 56.833313 43.066669 56.283325 43.400002 55.650024 C 43.600002 55.283325 43.75 54.933289 43.849998 54.599976 C 43.883335 54.333313 43.866669 54.116699 43.799999 53.950012 C 43.733334 53.716675 43.600002 53.549988 43.400002 53.450012 Z"/>
                    </g>
                </g>
            </g>
        </g>
    </g>
</svg>
