<?xml version="1.0" encoding="UTF-8"?>
<!-- Generated by Pixelmator Pro 3.6.15 -->
<svg width="69" height="100" viewBox="0 0 69 100" xmlns="http://www.w3.org/2000/svg">
    <g id="Group-copy-5">
        <g id="backFLFLFLFLFLFLFLFLFLFLFLFLFLFLFLFLFLFLFLFLFLFLFLFLFLFLFLFLFLFLFLFLFLFLFLFLFLFL">
            <g id="Group">
                <g id="g1">
                    <g id="g2">
                        <path id="Path" fill="#bf7958" stroke="none" d="M 56.150002 16.150024 C 50.950001 12.083313 44.666664 10.049988 37.299999 10.049988 C 29.966667 10.049988 23.666664 12.083313 18.4 16.150024 C 16.366665 17.75 14.733332 19.483337 13.5 21.349976 C 12.666666 23.783325 12.25 26.383362 12.25 29.150024 C 12.25 29.216675 12.25 29.266663 12.25 29.299988 C 12.25 29.466675 12.25 29.616638 12.25 29.75 C 12.283333 31.516663 12.4 33.233337 12.599998 34.900024 L 13.4 47.049988 C 13.4 47.450012 13.416666 47.850037 13.449999 48.25 C 13.65 50.68335 14.199999 52.966675 15.099998 55.099976 C 16.233332 57.899963 17.966665 60.466675 20.299999 62.799988 C 24.933334 67.466675 30.549999 69.799988 37.150002 69.799988 C 43.716667 69.799988 49.316666 67.466675 53.949997 62.799988 C 56.449997 60.333313 58.283333 57.716675 59.449997 54.950012 C 59.883331 53.916687 60.216667 52.866699 60.449997 51.799988 C 61.75 46.233337 62.333336 40.766663 62.199997 35.400024 C 62.166664 34.400024 62.183334 33.43335 62.25 32.5 C 62.25 32.333313 62.26667 32.150024 62.300003 31.950012 C 62.333336 31.083374 62.349998 30.200012 62.349998 29.299988 C 62.349998 29.266663 62.349998 29.216675 62.349998 29.150024 C 62.349998 26.383362 61.933334 23.783325 61.099998 21.349976 C 59.833328 19.483337 58.183334 17.75 56.150002 16.150024 Z"/>
                        <path id="path1" fill="#db855c" stroke="none" d="M 37.299999 10.049988 C 44.666664 10.049988 50.950001 12.083313 56.150002 16.150024 C 58.183334 17.75 59.833328 19.483337 61.099998 21.349976 C 59.900002 17.81665 57.866669 14.633301 55 11.799988 C 50.100002 7 44.200001 4.599976 37.299999 4.599976 C 30.400002 4.599976 24.483334 7 19.549999 11.799988 C 16.683332 14.666626 14.666666 17.849976 13.5 21.349976 C 14.733332 19.483337 16.366665 17.75 18.4 16.150024 C 23.666664 12.083313 29.966667 10.049988 37.299999 10.049988 Z"/>
                    </g>
                </g>
            </g>
        </g>
        <g id="g3">
            <g id="g4">
                <g id="g5">
                    <g id="g6">
                        <path id="path2" fill="#ffd7b1" stroke="none" d="M 49.299999 90.950012 L 49.450001 85.950012 L 40.049999 85.950012 L 40.049999 90.950012 L 49.25 90.950012 L 49.299999 90.950012 Z"/>
                        <path id="path3" fill="#bf7958" stroke="none" d="M 54.900002 99.950012 L 55 96.950012 C 51.766666 96.049988 49.850002 94.049988 49.25 90.950012 L 40.049999 90.950012 L 40.049999 99.950012 L 54.900002 99.950012 Z"/>
                        <path id="path4" fill="#eea160" stroke="none" d="M 49.900002 76.75 C 49.900002 75.149963 49.266666 73.783325 48 72.650024 C 46.766666 71.516663 45.25 70.950012 43.450001 70.950012 C 41.683334 70.950012 40.166668 71.516663 38.900002 72.650024 C 37.633335 73.783325 37 75.149963 37 76.75 C 38.966667 78.350037 39.983334 81.416687 40.049999 85.950012 L 49.450001 85.950012 L 49.900002 76.75 Z"/>
                    </g>
                </g>
            </g>
        </g>
        <g id="g7">
            <g id="g8">
                <g id="g9">
                    <g id="g10">
                        <path id="path5" fill="#ffd7b1" stroke="none" d="M 22.700001 90.950012 L 22.549999 85.950012 L 31.950001 85.950012 L 31.950001 90.950012 L 22.75 90.950012 L 22.700001 90.950012 Z"/>
                        <path id="path6" fill="#bf7958" stroke="none" d="M 17.1 99.950012 L 17 96.950012 C 20.233334 96.049988 22.149998 94.049988 22.75 90.950012 L 31.950001 90.950012 L 31.950001 99.950012 L 17.1 99.950012 Z"/>
                        <path id="path7" fill="#eea160" stroke="none" d="M 22.099998 76.75 C 22.099998 75.149963 22.733334 73.783325 24 72.650024 C 25.233334 71.516663 26.75 70.950012 28.549999 70.950012 C 30.316666 70.950012 31.833332 71.516663 33.099998 72.650024 C 34.366665 73.783325 35 75.149963 35 76.75 C 33.033333 78.350037 32.016666 81.416687 31.950001 85.950012 L 22.549999 85.950012 L 22.099998 76.75 Z"/>
                    </g>
                </g>
            </g>
        </g>
        <g id="g11">
            <g id="g12">
                <g id="g13">
                    <g id="g14">
                        <path id="path8" fill="#ffd7b1" stroke="none" d="M 57.349998 71.700012 C 57.983337 72.900024 58.400002 74.033325 58.599998 75.099976 C 59.033333 77.466675 59.333336 79.316711 59.5 80.650024 C 59.633331 81.950012 60.416664 82.666626 61.849998 82.799988 C 63.25 82.900024 64.48333 82.5 65.550003 81.599976 C 66.583336 80.700012 67.166664 79.56665 67.300003 78.200012 C 67.666664 74.666687 67.283333 71.25 66.150002 67.950012 L 57.349998 71.700012 Z"/>
                        <path id="path9" fill="#79adcb" stroke="none" d="M 66.150002 67.950012 C 65.449997 65.849976 64.449997 63.799988 63.150002 61.799988 C 61.416672 59.133301 59.150002 56.549988 56.349998 54.049988 C 55.283333 53.150024 54.066666 52.733337 52.699997 52.799988 C 51.266666 52.866699 50.083332 53.400024 49.150002 54.400024 C 48.183334 55.400024 47.733334 56.583374 47.799999 57.950012 C 47.866669 59.31665 48.416668 60.466675 49.450001 61.400024 C 51.316666 63.033325 52.849998 64.75 54.050003 66.549988 C 55.48333 68.383301 56.583328 70.099976 57.349998 71.700012 L 66.150002 67.950012 Z"/>
                    </g>
                </g>
            </g>
            <g id="g15">
                <g id="g16">
                    <g id="g17">
                        <path id="path10" fill="#5a93b4" stroke="none" d="M 55.349998 70.049988 L 56.650002 73.450012 L 67.75 69.25 L 66.599998 65.299988 L 55.349998 70.049988 Z"/>
                    </g>
                </g>
            </g>
        </g>
        <g id="g18">
            <g id="g19">
                <g id="g20">
                    <g id="g21">
                        <path id="path11" fill="#ffd7b1" stroke="none" d="M 14.65 71.700012 C 14.016666 72.900024 13.6 74.033325 13.4 75.099976 C 12.966667 77.466675 12.666666 79.316711 12.5 80.650024 C 12.366667 81.950012 11.583332 82.666626 10.15 82.799988 C 8.75 82.900024 7.516666 82.5 6.450001 81.599976 C 5.416666 80.700012 4.833334 79.56665 4.700001 78.200012 C 4.333334 74.666687 4.716667 71.25 5.85 67.950012 L 14.65 71.700012 Z"/>
                        <path id="path12" fill="#79adcb" stroke="none" d="M 5.85 67.950012 C 6.549999 65.849976 7.549999 63.799988 8.85 61.799988 C 10.583334 59.133301 12.85 56.549988 15.65 54.049988 C 16.716667 53.150024 17.933332 52.733337 19.299999 52.799988 C 20.733334 52.866699 21.916668 53.400024 22.849998 54.400024 C 23.816666 55.400024 24.266666 56.583374 24.200001 57.950012 C 24.133331 59.31665 23.583332 60.466675 22.549999 61.400024 C 20.683334 63.033325 19.15 64.75 17.950001 66.549988 C 16.516666 68.383301 15.416666 70.099976 14.65 71.700012 L 5.85 67.950012 Z"/>
                    </g>
                </g>
            </g>
            <g id="g22">
                <g id="g23">
                    <g id="g24">
                        <path id="path13" fill="#5a93b4" stroke="none" d="M 16.65 70.049988 L 15.35 73.450012 L 4.25 69.25 L 5.4 65.299988 L 16.65 70.049988 Z"/>
                    </g>
                </g>
            </g>
        </g>
        <g id="g25">
            <g id="g26">
                <g id="g27">
                    <g id="g28">
                        <path id="path14" fill="#5a93b4" stroke="none" d="M 20.5 64.599976 L 20.700001 65.400024 C 21.799999 68.966675 22.316666 72.983337 22.25 77.450012 C 26.583332 72.75 26 68.466675 20.5 64.599976 M 50.349998 65.400024 L 50.549999 64.599976 C 45.049999 68.466675 44.466667 72.75 48.799999 77.450012 C 48.733334 72.983337 49.25 68.966675 50.349998 65.400024 Z"/>
                        <path id="path15" fill="#eea160" stroke="none" d="M 48.200001 82.049988 C 48.633331 80.450012 48.833332 78.916687 48.799999 77.450012 L 22.25 77.450012 C 22.216667 78.916687 22.416668 80.450012 22.849998 82.049988 L 48.200001 82.049988 Z"/>
                        <path id="path16" fill="#79adcb" stroke="none" d="M 50.549999 64.599976 L 50.349998 65.400024 C 51.183331 62.733337 52.316666 60.350037 53.75 58.25 C 54.416664 54.916687 53.733337 53.18335 51.700001 53.049988 C 51.533333 53.049988 51.366669 53.049988 51.200001 53.049988 L 19.85 53.049988 C 17.416668 52.916626 16.550001 54.649963 17.25 58.25 C 18.716667 60.350037 19.866667 62.733337 20.700001 65.400024 L 20.5 64.599976 C 26 68.466675 26.583332 72.75 22.25 77.450012 L 48.799999 77.450012 C 44.466667 72.75 45.049999 68.466675 50.549999 64.599976 M 45.5 65 C 45.5 65.533325 44.533333 65.966675 42.599998 66.299988 C 40.633335 66.733337 38.266666 66.950012 35.5 66.950012 C 32.766666 66.950012 30.416668 66.733337 28.450001 66.299988 C 26.516666 65.966675 25.549999 65.533325 25.549999 65 C 25.549999 64.43335 26.516666 63.93335 28.450001 63.5 C 30.416668 63.166687 32.766666 63 35.5 63 C 38.266666 63 40.633335 63.166687 42.599998 63.5 C 44.533333 63.93335 45.5 64.43335 45.5 65 Z"/>
                        <path id="path17" fill="#69a1c2" stroke="none" d="M 42.599998 66.299988 C 44.533333 65.966675 45.5 65.533325 45.5 65 C 45.5 64.43335 44.533333 63.93335 42.599998 63.5 C 40.633335 63.166687 38.266666 63 35.5 63 C 32.766666 63 30.416668 63.166687 28.450001 63.5 C 26.516666 63.93335 25.549999 64.43335 25.549999 65 C 25.549999 65.533325 26.516666 65.966675 28.450001 66.299988 C 30.416668 66.733337 32.766666 66.950012 35.5 66.950012 C 38.266666 66.950012 40.633335 66.733337 42.599998 66.299988 Z"/>
                    </g>
                </g>
            </g>
            <g id="g29">
                <g id="g30">
                    <g id="g31">
                        <path id="path18" fill="#bf7958" stroke="none" d="M 50 79.049988 L 50 74.049988 L 22 74.049988 L 22 79.049988 L 50 79.049988 Z"/>
                    </g>
                </g>
            </g>
            <g id="g32">
                <g id="g33">
                    <g id="g34">
                        <path id="path19" fill="#bf7958" stroke="none" d="M 48.799999 86.799988 L 48.849998 86.799988 C 49.516666 86.799988 50.066666 86.56665 50.5 86.099976 C 50.933334 85.599976 51.083336 85.016663 50.950001 84.349976 L 50.049999 78.799988 L 45 78.799988 L 45.900002 84.349976 C 46.033333 85.016663 46.366665 85.599976 46.900002 86.099976 C 47.466667 86.56665 48.099998 86.799988 48.799999 86.799988 Z"/>
                    </g>
                </g>
            </g>
            <g id="g35">
                <g id="g36">
                    <g id="g37">
                        <path id="path20" fill="#f0c49a" stroke="none" d="M 46 52.049988 C 46 49.549988 44.983334 47.399963 42.950001 45.599976 C 40.883331 43.899963 38.399998 43.049988 35.5 43.049988 C 32.600002 43.049988 30.116669 43.899963 28.049999 45.599976 C 26.016666 47.399963 25 49.549988 25 52.049988 C 25 52.216675 25.016666 52.383301 25.049999 52.549988 C 25.150002 54.81665 26.150002 56.75 28.049999 58.349976 C 30.116669 60.149963 32.600002 61.049988 35.5 61.049988 C 38.399998 61.049988 40.883331 60.149963 42.950001 58.349976 C 44.849998 56.75 45.849998 54.81665 45.950001 52.549988 C 45.983334 52.383301 46 52.216675 46 52.049988 Z"/>
                    </g>
                </g>
            </g>
            <g id="g38">
                <g id="g39">
                    <g id="g40">
                        <path id="path21" fill="#bf7958" stroke="none" d="M 24.099998 49.049988 L 20 52.799988 C 26.299999 62.966675 34.283333 71.383301 43.950001 78.049988 L 48 74.349976 C 39.166668 68.016663 31.200001 59.583313 24.099998 49.049988 Z"/>
                    </g>
                </g>
            </g>
        </g>
        <g id="g41">
            <g id="g42">
                <g id="g43">
                    <g id="g44">
                        <path id="path22" fill="#f0c49a" stroke="none" d="M 54 87.5 L 53.949997 86.549988 C 54.283333 82.416626 55.816666 79.200012 58.550003 76.900024 C 52.283333 81.266663 50.75 84.81665 53.949997 87.549988 L 54 87.5 Z"/>
                        <path id="path23" fill="#ffd7b1" stroke="none" d="M 66.550003 76.900024 L 58.550003 76.900024 C 55.816666 79.200012 54.283333 82.416626 53.949997 86.549988 L 54 87.5 L 53.949997 87.549988 C 53.916664 88.650024 53.916664 89.833313 53.949997 91.099976 L 53.949997 91.450012 C 53.949997 92.416687 54.633331 93.033325 56 93.299988 C 58.066666 93.733337 60.066666 93.93335 62 93.900024 C 66.933334 93.866638 68.450005 88.200012 66.550003 76.900024 Z"/>
                    </g>
                </g>
            </g>
        </g>
        <g id="g45">
            <g id="g46">
                <g id="g47">
                    <g id="g48">
                        <path id="path24" fill="#f0c49a" stroke="none" d="M 18 87.5 L 18.049999 86.549988 C 17.716665 82.416626 16.183332 79.200012 13.450001 76.900024 C 19.716665 81.266663 21.25 84.81665 18.049999 87.549988 L 18 87.5 Z"/>
                        <path id="path25" fill="#ffd7b1" stroke="none" d="M 5.450001 76.900024 L 13.450001 76.900024 C 16.183332 79.200012 17.716665 82.416626 18.049999 86.549988 L 18 87.5 L 18.049999 87.549988 C 18.083334 88.650024 18.083334 89.833313 18.049999 91.099976 L 18.049999 91.450012 C 18.049999 92.416687 17.366667 93.033325 16 93.299988 C 13.933332 93.733337 11.933332 93.93335 10 93.900024 C 5.066666 93.866638 3.55 88.200012 5.450001 76.900024 Z"/>
                    </g>
                </g>
            </g>
        </g>
        <g id="g49">
            <g id="g50">
                <g id="g51">
                    <g id="g52">
                        <radialGradient id="radialGradient1" cx="36.4" cy="54.1" r="20.481597" fx="36.4" fy="54.1" gradientUnits="userSpaceOnUse">
                            <stop offset="1e-05" stop-color="#000000" stop-opacity="0.301961"/>
                            <stop offset="1" stop-color="#000000" stop-opacity="0"/>
                        </radialGradient>
                        <path id="path26" fill="url(#radialGradient1)" stroke="none" d="M 50.644791 44.549988 C 46.72559 41.950012 41.977325 40.650024 36.400002 40.650024 C 30.822674 40.650024 26.024166 41.950012 22.004471 44.549988 C 18.08527 47.216675 16.125669 50.399963 16.125669 54.099976 C 16.125669 57.799988 18.08527 60.950012 22.004471 63.549988 C 26.024166 66.216675 30.822674 67.549988 36.400002 67.549988 C 41.977325 67.549988 46.72559 66.216675 50.644791 63.549988 C 54.664482 60.950012 56.674332 57.799988 56.674332 54.099976 C 56.674332 50.399963 54.664482 47.216675 50.644791 44.549988 Z"/>
                    </g>
                </g>
            </g>
        </g>
        <g id="g53">
            <g id="g54">
                <g id="g55">
                    <g id="g56">
                        <path id="path27" fill="#ffd7b1" stroke="none" d="M 55.849998 26.700012 C 53.650002 26.700012 51.76667 27.5 50.200001 29.099976 C 48.633331 30.700012 47.849998 32.616638 47.849998 34.849976 C 47.849998 37.083313 48.633331 39 50.200001 40.599976 C 51.76667 42.200012 53.650002 43 55.849998 43 C 58.050003 43 59.933334 42.200012 61.5 40.599976 C 63.066666 39 63.849998 37.083313 63.849998 34.849976 C 63.849998 32.616638 63.066666 30.700012 61.5 29.099976 C 59.933334 27.5 58.050003 26.700012 55.849998 26.700012 M 55.849998 39.75 C 54.516663 39.75 53.383331 39.266663 52.449997 38.299988 C 51.516666 37.366699 51.049999 36.216675 51.049999 34.849976 C 51.049999 33.549988 51.516666 32.400024 52.449997 31.400024 C 53.383331 30.43335 54.516663 29.950012 55.849998 29.950012 C 57.183334 29.950012 58.333336 30.43335 59.300003 31.400024 C 60.200005 32.400024 60.650002 33.549988 60.650002 34.849976 C 60.650002 36.216675 60.200005 37.366699 59.300003 38.299988 C 58.333336 39.266663 57.183334 39.75 55.849998 39.75 Z"/>
                        <path id="path28" fill="#e7b687" stroke="none" d="M 52.449997 38.299988 C 53.383331 39.266663 54.516663 39.75 55.849998 39.75 C 57.183334 39.75 58.333336 39.266663 59.300003 38.299988 C 60.200005 37.366699 60.650002 36.216675 60.650002 34.849976 C 60.650002 33.549988 60.200005 32.400024 59.300003 31.400024 C 58.333336 30.43335 57.183334 29.950012 55.849998 29.950012 C 54.516663 29.950012 53.383331 30.43335 52.449997 31.400024 C 51.516666 32.400024 51.049999 33.549988 51.049999 34.849976 C 51.049999 36.216675 51.516666 37.366699 52.449997 38.299988 Z"/>
                    </g>
                </g>
            </g>
            <g id="g57">
                <g id="g58">
                    <g id="g59">
                        <path id="path29" fill="#ffd7b1" stroke="none" d="M 13.200001 29.099976 C 11.633333 30.700012 10.85 32.616638 10.85 34.849976 C 10.85 37.083313 11.633333 39 13.200001 40.599976 C 14.766668 42.200012 16.650002 43 18.85 43 C 21.016666 43 22.899998 42.200012 24.5 40.599976 C 26.066666 39 26.849998 37.083313 26.849998 34.849976 C 26.849998 32.616638 26.066666 30.700012 24.5 29.099976 C 22.899998 27.5 21.016666 26.700012 18.85 26.700012 C 16.650002 26.700012 14.766668 27.5 13.200001 29.099976 M 15.450001 38.299988 C 14.550001 37.366699 14.1 36.216675 14.1 34.849976 C 14.1 33.549988 14.550001 32.400024 15.450001 31.400024 C 16.383333 30.43335 17.516666 29.950012 18.85 29.950012 C 20.216667 29.950012 21.349998 30.43335 22.25 31.400024 C 23.183334 32.400024 23.650002 33.549988 23.650002 34.849976 C 23.650002 36.216675 23.183334 37.366699 22.25 38.299988 C 21.349998 39.266663 20.216667 39.75 18.85 39.75 C 17.516666 39.75 16.383333 39.266663 15.450001 38.299988 Z"/>
                        <path id="path30" fill="#e7b687" stroke="none" d="M 14.1 34.849976 C 14.1 36.216675 14.550001 37.366699 15.450001 38.299988 C 16.383333 39.266663 17.516666 39.75 18.85 39.75 C 20.216667 39.75 21.349998 39.266663 22.25 38.299988 C 23.183334 37.366699 23.650002 36.216675 23.650002 34.849976 C 23.650002 33.549988 23.183334 32.400024 22.25 31.400024 C 21.349998 30.43335 20.216667 29.950012 18.85 29.950012 C 17.516666 29.950012 16.383333 30.43335 15.450001 31.400024 C 14.550001 32.400024 14.1 33.549988 14.1 34.849976 Z"/>
                    </g>
                </g>
            </g>
            <g id="g60">
                <g id="g61">
                    <g id="g62">
                        <path id="path31" fill="#ffd7b1" stroke="none" d="M 55.949997 42.5 L 58.25 19.799988 L 16.4 19.799988 L 18.700001 42.5 C 20.066666 47.466675 23.549999 50.900024 29.150002 52.799988 C 31.916668 53.799988 34.633331 54.266663 37.299999 54.200012 C 40 54.266663 42.733334 53.799988 45.5 52.799988 C 51.100002 50.900024 54.583336 47.466675 55.949997 42.5 Z"/>
                    </g>
                </g>
            </g>
            <g id="g63">
                <g id="g64">
                    <g id="g65">
                        <path id="path32" fill="#e7b687" stroke="none" d="M 39.700001 41.299988 C 40.400002 40.833313 40.75 40.283325 40.75 39.650024 C 40.75 39.049988 40.400002 38.5 39.700001 38 C 39.033333 37.56665 38.216667 37.349976 37.25 37.349976 C 36.350002 37.349976 35.566669 37.56665 34.900002 38 C 34.233334 38.5 33.900002 39.049988 33.900002 39.650024 C 33.900002 40.283325 34.233334 40.833313 34.900002 41.299988 C 35.566669 41.799988 36.350002 42.049988 37.25 42.049988 C 38.216667 42.049988 39.033333 41.799988 39.700001 41.299988 Z"/>
                    </g>
                </g>
            </g>
            <g id="g66">
                <g id="g67">
                    <g id="g68">
                        <path id="path33" fill="#bf7958" stroke="none" d="M 24.75 36.900024 C 24.75 36.766663 24.75 36.650024 24.75 36.549988 C 24.75 35.349976 25.133335 34.333313 25.900002 33.5 C 26.533333 32.833313 27.299999 32.43335 28.200001 32.299988 L 22.450001 32.299988 C 23.849998 33.366699 24.616665 34.900024 24.75 36.900024 M 31.400002 39.049988 C 31.866665 38.383301 32.099998 37.549988 32.099998 36.549988 C 32.099998 35.549988 31.866665 34.700012 31.400002 34 C 30.933334 33.299988 30.350002 32.950012 29.650002 32.950012 C 29.016666 32.950012 28.466667 33.299988 28 34 C 27.533333 34.700012 27.299999 35.549988 27.299999 36.549988 C 27.299999 37.549988 27.533333 38.383301 28 39.049988 C 28.466667 39.783325 29.016666 40.150024 29.650002 40.150024 C 30.350002 40.150024 30.933334 39.783325 31.400002 39.049988 Z"/>
                        <path id="path34" fill="#ffffff" stroke="none" d="M 28.599998 32.25 C 28.466667 32.25 28.333336 32.266663 28.200001 32.299988 C 27.299999 32.43335 26.533333 32.833313 25.900002 33.5 C 25.133335 34.333313 24.75 35.349976 24.75 36.549988 C 24.75 36.650024 24.75 36.766663 24.75 36.900024 C 24.816666 37.900024 25.200001 38.783325 25.900002 39.549988 C 26.700001 40.450012 27.700001 40.900024 28.900002 40.900024 C 30 40.900024 30.933334 40.450012 31.700001 39.549988 C 32.5 38.716675 32.900002 37.716675 32.900002 36.549988 C 32.900002 35.349976 32.5 34.333313 31.700001 33.5 C 30.933334 32.666687 30 32.25 28.900002 32.25 C 28.799999 32.25 28.700001 32.25 28.599998 32.25 M 32.099998 36.549988 C 32.099998 37.549988 31.866665 38.383301 31.400002 39.049988 C 30.933334 39.783325 30.350002 40.150024 29.650002 40.150024 C 29.016666 40.150024 28.466667 39.783325 28 39.049988 C 27.533333 38.383301 27.299999 37.549988 27.299999 36.549988 C 27.299999 35.549988 27.533333 34.700012 28 34 C 28.466667 33.299988 29.016666 32.950012 29.650002 32.950012 C 30.350002 32.950012 30.933334 33.299988 31.400002 34 C 31.866665 34.700012 32.099998 35.549988 32.099998 36.549988 Z"/>
                    </g>
                </g>
            </g>
            <g id="g69">
                <g id="g70">
                    <g id="g71">
                        <path id="path35" fill="#bf7958" stroke="none" d="M 49.900002 36.549988 C 49.900002 36.650024 49.900002 36.766663 49.900002 36.900024 C 50.033333 34.900024 50.783333 33.366699 52.150002 32.299988 L 46.450001 32.299988 C 47.349998 32.43335 48.116665 32.833313 48.75 33.5 C 49.516666 34.333313 49.900002 35.349976 49.900002 36.549988 M 42.549999 36.549988 C 42.549999 37.549988 42.783333 38.383301 43.25 39.049988 C 43.716667 39.783325 44.283333 40.150024 44.950001 40.150024 C 45.616669 40.150024 46.183334 39.783325 46.650002 39.049988 C 47.116665 38.383301 47.349998 37.549988 47.349998 36.549988 C 47.349998 35.549988 47.116665 34.700012 46.650002 34 C 46.183334 33.299988 45.616669 32.950012 44.950001 32.950012 C 44.283333 32.950012 43.716667 33.299988 43.25 34 C 42.783333 34.700012 42.549999 35.549988 42.549999 36.549988 Z"/>
                        <path id="path36" fill="#ffffff" stroke="none" d="M 46.450001 32.299988 C 46.316666 32.266663 46.183334 32.25 46.049999 32.25 C 45.950001 32.25 45.850002 32.25 45.75 32.25 C 44.649998 32.25 43.716667 32.666687 42.950001 33.5 C 42.150002 34.333313 41.75 35.349976 41.75 36.549988 C 41.75 37.716675 42.150002 38.716675 42.950001 39.549988 C 43.716667 40.450012 44.649998 40.900024 45.75 40.900024 C 46.950001 40.900024 47.950001 40.450012 48.75 39.549988 C 49.450001 38.783325 49.833332 37.900024 49.900002 36.900024 C 49.900002 36.766663 49.900002 36.650024 49.900002 36.549988 C 49.900002 35.349976 49.516666 34.333313 48.75 33.5 C 48.116665 32.833313 47.349998 32.43335 46.450001 32.299988 M 43.25 39.049988 C 42.783333 38.383301 42.549999 37.549988 42.549999 36.549988 C 42.549999 35.549988 42.783333 34.700012 43.25 34 C 43.716667 33.299988 44.283333 32.950012 44.950001 32.950012 C 45.616669 32.950012 46.183334 33.299988 46.650002 34 C 47.116665 34.700012 47.349998 35.549988 47.349998 36.549988 C 47.349998 37.549988 47.116665 38.383301 46.650002 39.049988 C 46.183334 39.783325 45.616669 40.150024 44.950001 40.150024 C 44.283333 40.150024 43.716667 39.783325 43.25 39.049988 Z"/>
                    </g>
                </g>
            </g>
            <g id="g72">
                <g id="g73">
                    <g id="g74">
                        <path id="path37" fill="#bf7958" stroke="none" d="M 51.900002 29.549988 L 51.900002 27.099976 L 42.549999 26 L 42.549999 28.049988 L 51.900002 29.549988 Z"/>
                    </g>
                </g>
            </g>
            <g id="g75">
                <g id="g76">
                    <g id="g77">
                        <path id="path38" fill="#bf7958" stroke="none" d="M 22.799999 29.150024 L 22.799999 31.599976 L 32.150002 30.099976 L 32.150002 28 L 22.799999 29.150024 Z"/>
                    </g>
                </g>
            </g>
            <g id="g78">
                <g id="g79">
                    <g id="g80">
                        <path id="path39" fill="#ffffff" stroke="none" d="M 30.900002 44.950012 C 30.833332 45.116699 30.833332 45.333313 30.900002 45.599976 C 30.933334 45.933289 31.049999 46.283325 31.25 46.650024 C 31.416668 46.883362 31.599998 47.133362 31.799999 47.400024 L 39.599998 47.400024 L 39.599998 44.200012 L 31.950001 44.200012 C 31.716667 44.200012 31.5 44.283325 31.299999 44.450012 C 31.066666 44.549988 30.933334 44.716675 30.900002 44.950012 Z"/>
                        <path id="path40" fill="#bf7958" stroke="none" d="M 42.75 44.200012 L 39.599998 44.200012 L 39.599998 47.400024 L 31.799999 47.400024 C 32 47.766663 32.266666 48.06665 32.599998 48.299988 C 33.899998 49.56665 35.483334 50.200012 37.349998 50.200012 C 39.149998 50.200012 40.716667 49.583313 42.049999 48.349976 L 42.150002 48.299988 C 42.650002 47.833313 43.066669 47.283325 43.400002 46.650024 C 43.600002 46.283325 43.75 45.933289 43.849998 45.599976 C 43.883335 45.333313 43.866669 45.116699 43.799999 44.950012 C 43.733334 44.716675 43.600002 44.549988 43.400002 44.450012 C 43.200001 44.283325 42.983334 44.200012 42.75 44.200012 Z"/>
                    </g>
                </g>
            </g>
            <g id="g81">
                <g id="g82">
                    <g id="g83">
                        <path id="path41" fill="#db855c" stroke="none" d="M 56.75 37.75 L 57.900002 28.400024 C 50.166668 28.766663 42.049999 26 33.549999 20.099976 C 36.716667 29.666687 44.450001 35.549988 56.75 37.75 Z"/>
                        <path id="path42" fill="#bf7958" stroke="none" d="M 57.900002 28.400024 L 59.050003 19.099976 L 15.65 19.099976 L 16.300001 26.799988 C 23.466667 26.666626 29.216667 24.433289 33.549999 20.099976 C 42.049999 26 50.166668 28.766663 57.900002 28.400024 Z"/>
                    </g>
                </g>
            </g>
            <g id="g84">
                <g id="g85">
                    <g id="g86">
                        <path id="path43" fill="#71a2be" stroke="none" d="M 54.949997 19.049988 C 54.416664 18.31665 53.75 17.600037 52.949997 16.900024 C 49.25 13.766663 44.049999 12.200012 37.349998 12.200012 C 30.649998 12.200012 25.466667 13.75 21.799999 16.849976 C 21.566666 17.016663 21.366669 17.216675 21.200001 17.450012 C 20.599998 17.916687 20.116665 18.450012 19.75 19.049988 C 19.35 19.583313 19.299999 20.233337 19.6 21 C 23.900002 18.533325 29.816666 17.299988 37.349998 17.299988 C 44.816666 17.299988 50.716667 18.516663 55.050003 20.950012 C 55.349998 20.216675 55.316666 19.583313 54.949997 19.049988 Z"/>
                    </g>
                </g>
            </g>
        </g>
    </g>
</svg>
