<?xml version="1.0" encoding="UTF-8"?>
<!-- Generated by Pixelmator Pro 3.6.15 -->
<svg width="75" height="98" viewBox="0 0 75 98" xmlns="http://www.w3.org/2000/svg">
    <g id="Group-copy">
        <g id="Group">
            <g id="g1">
                <g id="g2">
                    <g id="g3">
                        <path id="Path" fill="#4c4eaa" stroke="none" d="M 48.299999 88.950012 L 48.450001 83.950012 L 36.549999 83.950012 L 36.400002 88.950012 L 48.25 88.950012 L 48.299999 88.950012 Z"/>
                        <path id="path1" fill="#ffffff" stroke="none" d="M 54 94.950012 L 48.25 88.950012 L 36.400002 88.950012 L 36.150002 94.950012 L 54 94.950012 Z"/>
                        <path id="path2" fill="#eea160" stroke="none" d="M 53.900002 97.950012 L 54 94.950012 L 36.150002 94.950012 L 36 97.950012 L 53.900002 97.950012 Z"/>
                        <path id="path3" fill="#676ac6" stroke="none" d="M 48.900002 74.75 C 48.900002 73.149963 48.266666 71.783325 47 70.650024 C 45.766666 69.516663 44.25 68.950012 42.450001 68.950012 C 40.683334 68.950012 39.166668 69.516663 37.900002 70.650024 C 36.633335 71.783325 36 73.149963 36 74.75 L 36.549999 83.950012 L 48.450001 83.950012 L 48.900002 74.75 Z"/>
                    </g>
                </g>
            </g>
        </g>
        <g id="g4">
            <g id="g5">
                <g id="g6">
                    <g id="g7">
                        <path id="path4" fill="#4c4eaa" stroke="none" d="M 21.700001 88.950012 L 21.549999 83.950012 L 33.450001 83.950012 L 33.599998 88.950012 L 21.75 88.950012 L 21.700001 88.950012 Z"/>
                        <path id="path5" fill="#ffffff" stroke="none" d="M 16 94.950012 L 21.75 88.950012 L 33.599998 88.950012 L 33.849998 94.950012 L 16 94.950012 Z"/>
                        <path id="path6" fill="#eea160" stroke="none" d="M 16.1 97.950012 L 16 94.950012 L 33.849998 94.950012 L 34 97.950012 L 16.1 97.950012 Z"/>
                        <path id="path7" fill="#676ac6" stroke="none" d="M 21.099998 74.75 C 21.099998 73.149963 21.733334 71.783325 23 70.650024 C 24.233334 69.516663 25.75 68.950012 27.549999 68.950012 C 29.316666 68.950012 30.833332 69.516663 32.099998 70.650024 C 33.366665 71.783325 34 73.149963 34 74.75 L 33.450001 83.950012 L 21.549999 83.950012 L 21.099998 74.75 Z"/>
                    </g>
                </g>
            </g>
        </g>
        <g id="g8">
            <g id="g9">
                <g id="g10">
                    <g id="g11">
                        <path id="path8" fill="#bf7958" stroke="none" d="M 65.900002 66.400024 C 65.066666 64.100037 64 61.866699 62.699997 59.700012 C 58.966667 60.599976 55.549995 62.666687 52.449997 65.900024 C 53.01667 66.799988 53.51667 67.716675 53.949997 68.650024 C 54.98333 70.783325 55.633331 73.083313 55.900002 75.549988 C 56.066666 77.150024 56.783333 78.466675 58.050003 79.5 C 59.349998 80.5 60.816666 80.93335 62.449997 80.799988 C 64.049995 80.599976 65.366669 79.849976 66.400002 78.549988 C 67.433334 77.31665 67.866661 75.866699 67.699997 74.200012 C 67.466667 72.266663 67.099998 70.416687 66.599998 68.650024 C 66.400002 67.883362 66.166672 67.133362 65.900002 66.400024 Z"/>
                        <path id="path9" fill="#e7f3fc" stroke="none" d="M 52.550003 50.799988 C 50.916668 50.833313 49.516666 51.433289 48.349998 52.599976 C 47.216667 53.799988 46.683334 55.200012 46.75 56.799988 C 46.75 58.43335 47.316666 59.81665 48.450001 60.950012 C 50.049999 62.483337 51.383331 64.133362 52.449997 65.900024 C 55.549995 62.666687 58.966667 60.599976 62.699997 59.700012 C 61.066666 57.133301 59.083336 54.716675 56.75 52.450012 C 55.583336 51.383301 54.183334 50.833313 52.550003 50.799988 Z"/>
                    </g>
                </g>
            </g>
            <g id="g12">
                <g id="g13">
                    <g id="g14">
                        <path id="path10" fill="#bfd4e5" stroke="none" d="M 65.150002 60.599976 L 63.099998 57 L 50.200001 64.5 L 52.199997 68.049988 L 65.150002 60.599976 Z"/>
                    </g>
                </g>
            </g>
        </g>
        <g id="g15">
            <g id="g16">
                <g id="g17">
                    <g id="g18">
                        <path id="path11" fill="#bf7958" stroke="none" d="M 4.1 66.400024 C 4.933334 64.100037 6 61.866699 7.299999 59.700012 C 11.033333 60.599976 14.449999 62.666687 17.549999 65.900024 C 16.983334 66.799988 16.483334 67.716675 16.049999 68.650024 C 15.016666 70.783325 14.366667 73.083313 14.1 75.549988 C 13.933334 77.150024 13.216667 78.466675 11.950001 79.5 C 10.65 80.5 9.183332 80.93335 7.549999 80.799988 C 5.949999 80.599976 4.633333 79.849976 3.6 78.549988 C 2.566667 77.31665 2.133333 75.866699 2.3 74.200012 C 2.533333 72.266663 2.9 70.416687 3.4 68.650024 C 3.6 67.883362 3.833334 67.133362 4.1 66.400024 Z"/>
                        <path id="path12" fill="#e7f3fc" stroke="none" d="M 17.450001 50.799988 C 19.083336 50.833313 20.483334 51.433289 21.650002 52.599976 C 22.783333 53.799988 23.316666 55.200012 23.25 56.799988 C 23.25 58.43335 22.683334 59.81665 21.549999 60.950012 C 19.950001 62.483337 18.616667 64.133362 17.549999 65.900024 C 14.449999 62.666687 11.033333 60.599976 7.299999 59.700012 C 8.933332 57.133301 10.916666 54.716675 13.25 52.450012 C 14.416666 51.383301 15.816668 50.833313 17.450001 50.799988 Z"/>
                    </g>
                </g>
            </g>
            <g id="g19">
                <g id="g20">
                    <g id="g21">
                        <path id="path13" fill="#bfd4e5" stroke="none" d="M 4.85 60.599976 L 6.9 57 L 19.799999 64.5 L 17.799999 68.049988 L 4.85 60.599976 Z"/>
                    </g>
                </g>
            </g>
        </g>
        <g id="g22">
            <g id="g23">
                <g id="g24">
                    <g id="g25">
                        <path id="path14" fill="#bfd4e5" stroke="none" d="M 49.599998 74.849976 L 49.599998 69.900024 L 19.549999 69.900024 L 19.549999 74.849976 L 49.599998 74.849976 Z"/>
                        <path id="path15" fill="#676ac6" stroke="none" d="M 48.099998 80.049988 C 49.033333 78.783325 49.533333 77.049988 49.599998 74.849976 L 19.549999 74.849976 C 19.616669 77.049988 20.116669 78.783325 21.049999 80.049988 L 48.099998 80.049988 Z"/>
                        <path id="path16" fill="#e7f3fc" stroke="none" d="M 52.800003 56.25 C 53.5 52.649963 52.633331 50.916626 50.200001 51.049988 L 18.9 51.049988 C 16.466667 50.916626 15.6 52.649963 16.299999 56.25 L 19.549999 69.900024 L 49.599998 69.900024 L 52.800003 56.25 Z"/>
                    </g>
                </g>
            </g>
            <g id="g26">
                <g id="g27">
                    <g id="g28">
                        <path id="path17" fill="#a8603f" stroke="none" d="M 42.599998 43.599976 C 40.5 41.899963 37.983334 41.049988 35.049999 41.049988 C 32.116669 41.049988 29.600002 41.899963 27.5 43.599976 C 25.433334 45.399963 24.400002 47.549988 24.400002 50.049988 C 24.400002 50.216675 24.416668 50.383301 24.450001 50.549988 C 24.549999 52.81665 25.566666 54.75 27.5 56.349976 C 29.600002 58.149963 32.116669 59.049988 35.049999 59.049988 C 37.983334 59.049988 40.5 58.149963 42.599998 56.349976 C 44.533333 54.75 45.549999 52.81665 45.650002 50.549988 C 45.683334 50.383301 45.700001 50.216675 45.700001 50.049988 C 45.700001 47.549988 44.666668 45.399963 42.599998 43.599976 Z"/>
                    </g>
                </g>
            </g>
            <g id="g29">
                <g id="g30">
                    <g id="g31">
                        <path id="path18" fill="#d78b49" stroke="none" d="M 31.849998 70.099976 L 17.75 71.349976 C 18.016666 72.983337 18.299999 74.716675 18.6 76.549988 L 31.049999 75.049988 C 31.383331 73.516663 31.649998 71.866638 31.849998 70.099976 Z"/>
                        <path id="path19" fill="#eea160" stroke="none" d="M 31.849998 70.099976 C 32.083332 67.766663 32.166668 65.25 32.099998 62.549988 C 27.599998 59.716675 24.033333 55.416687 21.400002 49.650024 L 16.85 48.799988 C 15.483334 51.266663 15.783333 58.783325 17.75 71.349976 L 31.849998 70.099976 Z"/>
                    </g>
                </g>
            </g>
            <g id="g32">
                <g id="g33">
                    <g id="g34">
                        <path id="path20" fill="#d78b49" stroke="none" d="M 51.849998 71.349976 L 37.75 70.099976 C 37.950001 71.866638 38.216667 73.516663 38.549999 75.049988 L 51 76.549988 C 51.299995 74.716675 51.583328 72.983337 51.849998 71.349976 Z"/>
                        <path id="path21" fill="#eea160" stroke="none" d="M 37.5 62.549988 C 37.433334 65.25 37.516666 67.766663 37.75 70.099976 L 51.849998 71.349976 C 53.816666 58.783325 54.116669 51.266663 52.75 48.799988 L 48.200001 49.650024 C 45.566666 55.416687 42 59.716675 37.5 62.549988 Z"/>
                    </g>
                </g>
            </g>
            <g id="g35">
                <g id="g36">
                    <g id="g37">
                        <path id="path22" fill="#bfd4e5" stroke="none" d="M 21.950001 50.049988 L 19.900002 53.650024 L 33 61.25 L 35.049999 57.599976 L 21.950001 50.049988 M 48.150002 50.049988 L 35.049999 57.599976 L 37.099998 61.25 L 50.200001 53.650024 L 48.150002 50.049988 Z"/>
                        <path id="path23" fill="#e7f3fc" stroke="none" d="M 37.099998 61.25 L 35.049999 57.599976 L 33 61.25 L 37.099998 61.25 Z"/>
                    </g>
                </g>
            </g>
        </g>
        <g id="g38">
            <g id="g39">
                <g id="g40">
                    <g id="g41">
                        <path id="path24" fill="#a8603f" stroke="none" d="M 52.150002 85.5 L 52.099998 84.549988 C 52.433334 80.416626 53.699997 77.216675 55.900002 74.950012 C 50.100002 79.25 48.833332 82.783325 52.099998 85.549988 L 52.150002 85.5 Z"/>
                        <path id="path25" fill="#bf7958" stroke="none" d="M 68.349998 76.25 C 68.316666 75.350037 67.816666 74.900024 66.849998 74.900024 L 55.900002 74.950012 C 53.699997 77.216675 52.433334 80.416626 52.099998 84.549988 L 52.150002 85.5 L 52.099998 85.549988 C 52.066666 86.650024 52.066666 87.81665 52.099998 89.049988 L 52.099998 89.450012 C 52.099998 90.383301 52.816666 90.983337 54.25 91.25 C 56.349998 91.716675 58.400002 91.93335 60.400002 91.900024 C 66.066666 91.866638 68.716667 86.950012 68.349998 77.150024 L 68.349998 76.25 Z"/>
                    </g>
                </g>
            </g>
        </g>
        <g id="g42">
            <g id="g43">
                <g id="g44">
                    <g id="g45">
                        <path id="path26" fill="#a8603f" stroke="none" d="M 17.85 85.5 L 17.9 84.549988 C 17.566666 80.416626 16.299999 77.216675 14.1 74.950012 C 19.900002 79.25 21.166664 82.783325 17.9 85.549988 L 17.85 85.5 Z"/>
                        <path id="path27" fill="#bf7958" stroke="none" d="M 1.65 76.25 C 1.683333 75.350037 2.183333 74.900024 3.15 74.900024 L 14.1 74.950012 C 16.299999 77.216675 17.566666 80.416626 17.9 84.549988 L 17.85 85.5 L 17.9 85.549988 C 17.933334 86.650024 17.933334 87.81665 17.9 89.049988 L 17.9 89.450012 C 17.9 90.383301 17.183332 90.983337 15.75 91.25 C 13.65 91.716675 11.6 91.93335 9.6 91.900024 C 3.933332 91.866638 1.283333 86.950012 1.65 77.150024 L 1.65 76.25 Z"/>
                    </g>
                </g>
            </g>
        </g>
        <g id="g46">
            <g id="g47">
                <g id="g48">
                    <g id="g49">
                        <radialGradient id="radialGradient1" cx="35.4" cy="52.1" r="20.481597" fx="35.4" fy="52.1" gradientUnits="userSpaceOnUse">
                            <stop offset="1e-05" stop-color="#000000" stop-opacity="0.301961"/>
                            <stop offset="1" stop-color="#000000" stop-opacity="0"/>
                        </radialGradient>
                        <path id="path28" fill="url(#radialGradient1)" stroke="none" d="M 49.644791 42.549988 C 45.72559 39.950012 40.977325 38.650024 35.400002 38.650024 C 29.822674 38.650024 25.024166 39.950012 21.004471 42.549988 C 17.08527 45.216675 15.125669 48.399963 15.125669 52.099976 C 15.125669 55.799988 17.08527 58.950012 21.004471 61.549988 C 25.024166 64.216675 29.822674 65.549988 35.400002 65.549988 C 40.977325 65.549988 45.72559 64.216675 49.644791 61.549988 C 53.664482 58.950012 55.674332 55.799988 55.674332 52.099976 C 55.674332 48.399963 53.664482 45.216675 49.644791 42.549988 Z"/>
                    </g>
                </g>
            </g>
        </g>
        <g id="g50">
            <g id="g51">
                <g id="g52">
                    <g id="g53">
                        <path id="path29" fill="#454a51" stroke="none" d="M 49.5 9.150024 L 46.599998 4.599976 C 36.866665 3.833313 27.75 4.133362 19.25 5.5 C 14.483334 6.166687 12.316668 8.43335 12.75 12.299988 L 12.950001 14 C 13.583334 11.633362 15.699999 10.200012 19.299999 9.700012 C 27.799999 8.366699 36.916668 8.083313 46.650002 8.849976 L 49.5 9.150024 M 60 13.549988 L 60.150002 12.299988 C 60.616669 8.533325 58.799995 6.266663 54.699997 5.5 L 50.150002 9.25 L 54.75 9.700012 C 57.616669 10.233337 59.366669 11.516663 60 13.549988 Z"/>
                        <path id="path30" fill="#3c3e41" stroke="none" d="M 54.75 9.700012 L 50.150002 9.25 L 49.75 9.549988 L 49.5 9.150024 L 46.650002 8.849976 C 36.916668 8.083313 27.799999 8.366699 19.299999 9.700012 C 15.699999 10.200012 13.583334 11.633362 12.950001 14 L 15.200001 33.400024 C 15.566668 36.299988 17.466667 37.75 20.900002 37.75 L 52 37.75 C 55.466667 37.75 57.366661 36.299988 57.699997 33.400024 L 60 13.549988 C 59.366669 11.516663 57.616669 10.233337 54.75 9.700012 Z"/>
                    </g>
                </g>
            </g>
            <g id="g54">
                <g id="g55">
                    <g id="g56">
                        <path id="path31" fill="#bf7958" stroke="none" d="M 12.200001 32.950012 C 10.633333 34.516663 9.85 36.416687 9.85 38.650024 C 9.85 40.883362 10.633333 42.783325 12.200001 44.349976 C 13.800001 45.983337 15.683334 46.799988 17.85 46.799988 C 20.050003 46.799988 21.950001 45.983337 23.549999 44.349976 C 25.083332 42.783325 25.849998 40.883362 25.849998 38.650024 C 25.849998 36.416687 25.083332 34.516663 23.549999 32.950012 C 21.950001 31.31665 20.050003 30.5 17.85 30.5 C 15.683334 30.5 13.800001 31.31665 12.200001 32.950012 M 14.5 42.099976 C 13.566668 41.166687 13.1 40.016663 13.1 38.650024 C 13.1 37.350037 13.566668 36.200012 14.5 35.200012 C 15.433332 34.266663 16.549999 33.799988 17.85 33.799988 C 19.216667 33.799988 20.366665 34.266663 21.299999 35.200012 C 22.233334 36.200012 22.700001 37.350037 22.700001 38.650024 C 22.700001 40.016663 22.233334 41.166687 21.299999 42.099976 C 20.366665 43.06665 19.216667 43.549988 17.85 43.549988 C 16.549999 43.549988 15.433332 43.06665 14.5 42.099976 M 49.200001 32.950012 C 47.633331 34.516663 46.849998 36.416687 46.849998 38.650024 C 46.849998 40.883362 47.633331 42.783325 49.200001 44.349976 C 50.799999 45.983337 52.683334 46.799988 54.849998 46.799988 C 57.050003 46.799988 58.950005 45.983337 60.550003 44.349976 C 62.083336 42.783325 62.849998 40.883362 62.849998 38.650024 C 62.849998 36.416687 62.083336 34.516663 60.550003 32.950012 C 58.950005 31.31665 57.050003 30.5 54.849998 30.5 C 52.683334 30.5 50.799999 31.31665 49.200001 32.950012 M 51.5 35.200012 C 52.433334 34.266663 53.550003 33.799988 54.849998 33.799988 C 56.183334 33.799988 57.333336 34.266663 58.300003 35.200012 C 59.23333 36.200012 59.699997 37.350037 59.699997 38.650024 C 59.699997 40.016663 59.23333 41.166687 58.300003 42.099976 C 57.333336 43.06665 56.183334 43.549988 54.849998 43.549988 C 53.550003 43.549988 52.433334 43.06665 51.5 42.099976 C 50.533333 41.166687 50.049999 40.016663 50.049999 38.650024 C 50.049999 37.350037 50.533333 36.200012 51.5 35.200012 Z"/>
                        <path id="path32" fill="#a8603f" stroke="none" d="M 13.1 38.650024 C 13.1 40.016663 13.566668 41.166687 14.5 42.099976 C 15.433332 43.06665 16.549999 43.549988 17.85 43.549988 C 19.216667 43.549988 20.366665 43.06665 21.299999 42.099976 C 22.233334 41.166687 22.700001 40.016663 22.700001 38.650024 C 22.700001 37.350037 22.233334 36.200012 21.299999 35.200012 C 20.366665 34.266663 19.216667 33.799988 17.85 33.799988 C 16.549999 33.799988 15.433332 34.266663 14.5 35.200012 C 13.566668 36.200012 13.1 37.350037 13.1 38.650024 M 54.849998 33.799988 C 53.550003 33.799988 52.433334 34.266663 51.5 35.200012 C 50.533333 36.200012 50.049999 37.350037 50.049999 38.650024 C 50.049999 40.016663 50.533333 41.166687 51.5 42.099976 C 52.433334 43.06665 53.550003 43.549988 54.849998 43.549988 C 56.183334 43.549988 57.333336 43.06665 58.300003 42.099976 C 59.23333 41.166687 59.699997 40.016663 59.699997 38.650024 C 59.699997 37.350037 59.23333 36.200012 58.300003 35.200012 C 57.333336 34.266663 56.183334 33.799988 54.849998 33.799988 Z"/>
                    </g>
                </g>
            </g>
            <g id="g57">
                <g id="g58">
                    <g id="g59">
                        <path id="path33" fill="#bf7958" stroke="none" d="M 48.549999 52.200012 C 52.149994 51.733337 54.183334 49.799988 54.650002 46.400024 L 57.300003 20.400024 L 15.450001 20.400024 L 18.65 52.200012 L 48.549999 52.200012 Z"/>
                    </g>
                </g>
            </g>
            <g id="g60">
                <g id="g61">
                    <g id="g62">
                        <path id="path34" fill="#ffffff" stroke="none" d="M 23.900002 36.049988 C 23.900002 37.216675 24.266666 38.216675 25 39.049988 C 25.799999 39.950012 26.799999 40.400024 28 40.400024 C 29.133335 40.400024 30.083332 39.950012 30.849998 39.049988 C 31.616665 38.216675 32 37.216675 32 36.049988 C 32 34.883301 31.616665 33.883301 30.849998 33.049988 C 30.083332 32.18335 29.133335 31.75 28 31.75 C 26.799999 31.75 25.799999 32.18335 25 33.049988 C 24.266666 33.883301 23.900002 34.883301 23.900002 36.049988 M 26.400002 36.200012 L 26.400002 35.950012 C 26.433334 35.25 26.666668 34.650024 27.099998 34.150024 C 27.566666 33.616638 28.133331 33.349976 28.799999 33.349976 C 29.5 33.349976 30.083332 33.616638 30.549999 34.150024 C 30.983334 34.650024 31.216667 35.25 31.25 35.950012 L 31.25 36.200012 C 31.216667 36.866699 30.983334 37.450012 30.549999 37.950012 C 30.083332 38.483337 29.5 38.75 28.799999 38.75 C 28.133331 38.75 27.566666 38.483337 27.099998 37.950012 C 26.666668 37.450012 26.433334 36.866699 26.400002 36.200012 M 41.950001 39.049988 C 42.783333 39.950012 43.783333 40.400024 44.950001 40.400024 C 46.116669 40.400024 47.049999 39.950012 47.75 39.049988 C 48.583332 38.216675 49 37.216675 49 36.049988 C 49 34.883301 48.583332 33.883301 47.75 33.049988 C 47.049999 32.18335 46.116669 31.75 44.950001 31.75 C 43.783333 31.75 42.783333 32.18335 41.950001 33.049988 C 41.216667 33.883301 40.849998 34.883301 40.849998 36.049988 C 40.849998 37.216675 41.216667 38.216675 41.950001 39.049988 M 45.5 34.150024 C 45.966667 34.650024 46.216667 35.25 46.25 35.950012 L 46.25 36.200012 C 46.216667 36.866699 45.966667 37.450012 45.5 37.950012 C 45.066666 38.483337 44.516666 38.75 43.849998 38.75 C 43.183331 38.75 42.583332 38.483337 42.049999 37.950012 C 41.650002 37.450012 41.433334 36.866699 41.400002 36.200012 L 41.400002 35.849976 C 41.433334 35.216675 41.650002 34.650024 42.049999 34.150024 C 42.583332 33.616638 43.183331 33.349976 43.849998 33.349976 C 44.516666 33.349976 45.066666 33.616638 45.5 34.150024 Z"/>
                        <path id="path35" fill="#3c3e41" stroke="none" d="M 26.400002 35.950012 L 26.400002 36.200012 C 26.433334 36.866699 26.666668 37.450012 27.099998 37.950012 C 27.566666 38.483337 28.133331 38.75 28.799999 38.75 C 29.5 38.75 30.083332 38.483337 30.549999 37.950012 C 30.983334 37.450012 31.216667 36.866699 31.25 36.200012 L 31.25 35.950012 C 31.216667 35.25 30.983334 34.650024 30.549999 34.150024 C 30.083332 33.616638 29.5 33.349976 28.799999 33.349976 C 28.133331 33.349976 27.566666 33.616638 27.099998 34.150024 C 26.666668 34.650024 26.433334 35.25 26.400002 35.950012 M 46.25 35.950012 C 46.216667 35.25 45.966667 34.650024 45.5 34.150024 C 45.066666 33.616638 44.516666 33.349976 43.849998 33.349976 C 43.183331 33.349976 42.583332 33.616638 42.049999 34.150024 C 41.650002 34.650024 41.433334 35.216675 41.400002 35.849976 L 41.400002 36.200012 C 41.433334 36.866699 41.650002 37.450012 42.049999 37.950012 C 42.583332 38.483337 43.183331 38.75 43.849998 38.75 C 44.516666 38.75 45.066666 38.483337 45.5 37.950012 C 45.966667 37.450012 46.216667 36.866699 46.25 36.200012 L 46.25 35.950012 Z"/>
                    </g>
                </g>
            </g>
            <g id="g63">
                <g id="g64">
                    <g id="g65">
                        <path id="path36" fill="#3c3e41" stroke="none" d="M 33.450001 32.900024 L 33.650002 30.049988 L 22.849998 29.549988 L 22.700001 32.400024 L 33.450001 32.900024 M 39.75 30.049988 L 39.950001 32.900024 L 50.700001 32.400024 L 50.549999 29.549988 L 39.75 30.049988 Z"/>
                    </g>
                </g>
            </g>
            <g id="g66">
                <g id="g67">
                    <g id="g68">
                        <path id="path37" fill="#3c3e41" stroke="none" d="M 36.150002 40.900024 C 33.783333 40.900024 31.783333 41.383362 30.150002 42.349976 C 28.616665 43.216675 27.75 44.25 27.549999 45.450012 C 27.483334 45.616699 27.483334 45.799988 27.549999 46 C 27.616669 46.166687 27.716667 46.31665 27.849998 46.450012 C 27.983334 46.583374 28.149998 46.666687 28.349998 46.700012 C 31.216667 47.133301 33.916668 46.799988 36.450001 45.700012 C 38.950001 46.799988 41.650002 47.133301 44.549999 46.700012 C 44.75 46.666687 44.916664 46.583374 45.049999 46.450012 C 45.183334 46.31665 45.283333 46.166687 45.349998 46 C 45.416668 45.799988 45.433334 45.616699 45.400002 45.450012 C 45.166668 44.25 44.283333 43.216675 42.75 42.349976 C 41.083332 41.383362 39.083332 40.900024 36.75 40.900024 C 36.649998 40.900024 36.549999 40.900024 36.450001 40.900024 C 36.349998 40.900024 36.25 40.900024 36.150002 40.900024 Z"/>
                    </g>
                </g>
            </g>
            <g id="g69">
                <g id="g70">
                    <g id="g71">
                        <path id="path38" fill="#955435" stroke="none" d="M 38.950001 40.799988 C 39.616669 40.333313 39.950001 39.783325 39.950001 39.150024 C 39.950001 38.549988 39.616669 38 38.950001 37.5 C 38.283333 37.06665 37.466667 36.849976 36.5 36.849976 C 35.566666 36.849976 34.766666 37.06665 34.099998 37.5 C 33.433331 38 33.099998 38.549988 33.099998 39.150024 C 33.099998 39.783325 33.433331 40.333313 34.099998 40.799988 C 34.766666 41.299988 35.566666 41.549988 36.5 41.549988 C 37.466667 41.549988 38.283333 41.299988 38.950001 40.799988 Z"/>
                    </g>
                </g>
            </g>
            <g id="g72">
                <g id="g73">
                    <g id="g74">
                        <path id="path39" fill="#3c3e41" stroke="none" d="M 16.25 20.900024 L 16.200001 20.900024 C 15.533335 21 14.983334 21.333313 14.550001 21.900024 C 14.116667 22.400024 13.950001 22.983337 14.050001 23.650024 L 15.950001 39.650024 C 16.016668 40.283325 16.316668 40.833313 16.85 41.299988 C 17.383333 41.700012 17.983334 41.850037 18.65 41.75 L 18.700001 41.75 C 19.366669 41.68335 19.900002 41.383362 20.299999 40.849976 C 20.700001 40.31665 20.866669 39.700012 20.799999 39 L 18.9 23.099976 C 18.799999 22.399963 18.483334 21.849976 17.950001 21.450012 C 17.450001 21.049988 16.883333 20.866638 16.25 20.900024 M 54.75 21.450012 C 54.25 21.849976 53.949997 22.399963 53.849998 23.099976 L 51.949997 39 C 51.883331 39.700012 52.049995 40.31665 52.449997 40.849976 C 52.849998 41.383362 53.383339 41.68335 54.050003 41.75 L 54.099998 41.75 C 54.733337 41.850037 55.316666 41.700012 55.849998 41.299988 C 56.416664 40.833313 56.73333 40.283325 56.800003 39.650024 L 58.699997 23.650024 C 58.799995 22.983337 58.633331 22.400024 58.199997 21.900024 C 57.76667 21.333313 57.216667 21 56.550003 20.900024 L 56.5 20.900024 C 55.833336 20.866638 55.25 21.049988 54.75 21.450012 Z"/>
                    </g>
                </g>
            </g>
            <g id="g75">
                <g id="g76">
                    <g id="g77">
                        <path id="path40" fill="#3c3e41" stroke="none" d="M 51.5 24.299988 C 55.76667 22.93335 57.900002 21.349976 57.900002 19.549988 C 57.900002 17.783325 55.76667 16.333374 51.5 15.200012 C 47.299999 14.06665 42.183334 13.583313 36.150002 13.75 C 30.183334 13.950012 25.066666 14.733337 20.799999 16.099976 C 16.566668 17.5 14.450001 19.083313 14.450001 20.849976 C 14.450001 22.649963 16.566668 24.099976 20.799999 25.200012 C 25.066666 26.366699 30.183334 26.850037 36.150002 26.650024 C 42.183334 26.483337 47.299999 25.700012 51.5 24.299988 Z"/>
                    </g>
                </g>
            </g>
        </g>
    </g>
</svg>
