<?xml version="1.0" encoding="UTF-8"?>
<!-- Generated by Pixelmator Pro 3.6.15 -->
<svg width="70" height="95" viewBox="0 0 70 95" xmlns="http://www.w3.org/2000/svg">
    <g id="Group-copy-2">
        <g id="Group">
            <g id="g1">
                <g id="g2">
                    <g id="g3">
                        <path id="Path" fill="#334e63" stroke="none" d="M 52 91.950012 L 46.25 85.950012 L 40.450001 85.950012 L 40.450001 81.599976 C 40.450001 80.766663 40.150002 80.049988 39.549999 79.450012 C 38.950001 78.849976 38.233334 78.549988 37.400002 78.549988 L 37.349998 78.549988 C 36.516666 78.549988 35.799999 78.849976 35.200001 79.450012 C 34.900002 79.75 34.666668 80.083374 34.5 80.450012 C 34.366665 80.81665 34.299999 81.200012 34.299999 81.599976 L 34 94.950012 L 51.900002 94.950012 L 52 91.950012 M 37.400002 80.299988 C 37.799999 80.299988 38.150002 80.450012 38.450001 80.75 C 38.75 81.049988 38.900002 81.400024 38.900002 81.799988 C 38.900002 82.200012 38.75 82.549988 38.450001 82.849976 C 38.150002 83.149963 37.799999 83.299988 37.400002 83.299988 C 37 83.299988 36.649998 83.149963 36.349998 82.849976 C 36.049999 82.549988 35.900002 82.200012 35.900002 81.799988 C 35.900002 81.400024 36.049999 81.049988 36.349998 80.75 C 36.649998 80.450012 37 80.299988 37.400002 80.299988 Z"/>
                        <path id="path1" fill="#477ca6" stroke="none" d="M 38.450001 80.75 C 38.150002 80.450012 37.799999 80.299988 37.400002 80.299988 C 37 80.299988 36.649998 80.450012 36.349998 80.75 C 36.049999 81.049988 35.900002 81.400024 35.900002 81.799988 C 35.900002 82.200012 36.049999 82.549988 36.349998 82.849976 C 36.649998 83.149963 37 83.299988 37.400002 83.299988 C 37.799999 83.299988 38.150002 83.149963 38.450001 82.849976 C 38.75 82.549988 38.900002 82.200012 38.900002 81.799988 C 38.900002 81.400024 38.75 81.049988 38.450001 80.75 M 46.900002 71.75 C 46.900002 70.149963 46.266666 68.783325 45 67.650024 C 43.766666 66.516663 42.25 65.950012 40.450001 65.950012 C 38.683334 65.950012 37.166668 66.516663 35.900002 67.650024 C 34.633335 68.783325 34 70.149963 34 71.75 L 34.5 80.450012 C 34.666668 80.083374 34.900002 79.75 35.200001 79.450012 C 35.799999 78.849976 36.516666 78.549988 37.349998 78.549988 L 37.400002 78.549988 C 38.233334 78.549988 38.950001 78.849976 39.549999 79.450012 C 40.150002 80.049988 40.450001 80.766663 40.450001 81.599976 L 40.450001 85.950012 L 46.25 85.950012 L 46.299999 85.950012 L 46.900002 71.75 Z"/>
                    </g>
                </g>
            </g>
        </g>
        <g id="g4">
            <g id="g5">
                <g id="g6">
                    <g id="g7">
                        <path id="path2" fill="#334e63" stroke="none" d="M 14 91.950012 L 19.75 85.950012 L 25.549999 85.950012 L 25.549999 81.599976 C 25.549999 80.766663 25.849998 80.049988 26.450001 79.450012 C 27.049999 78.849976 27.766666 78.549988 28.599998 78.549988 L 28.650002 78.549988 C 29.483334 78.549988 30.200001 78.849976 30.799999 79.450012 C 31.099998 79.75 31.333332 80.083374 31.5 80.450012 C 31.633335 80.81665 31.700001 81.200012 31.700001 81.599976 L 32 94.950012 L 14.1 94.950012 L 14 91.950012 M 28.599998 80.299988 C 28.200001 80.299988 27.849998 80.450012 27.549999 80.75 C 27.25 81.049988 27.099998 81.400024 27.099998 81.799988 C 27.099998 82.200012 27.25 82.549988 27.549999 82.849976 C 27.849998 83.149963 28.200001 83.299988 28.599998 83.299988 C 29 83.299988 29.350002 83.149963 29.650002 82.849976 C 29.950001 82.549988 30.099998 82.200012 30.099998 81.799988 C 30.099998 81.400024 29.950001 81.049988 29.650002 80.75 C 29.350002 80.450012 29 80.299988 28.599998 80.299988 Z"/>
                        <path id="path3" fill="#477ca6" stroke="none" d="M 27.549999 80.75 C 27.849998 80.450012 28.200001 80.299988 28.599998 80.299988 C 29 80.299988 29.350002 80.450012 29.650002 80.75 C 29.950001 81.049988 30.099998 81.400024 30.099998 81.799988 C 30.099998 82.200012 29.950001 82.549988 29.650002 82.849976 C 29.350002 83.149963 29 83.299988 28.599998 83.299988 C 28.200001 83.299988 27.849998 83.149963 27.549999 82.849976 C 27.25 82.549988 27.099998 82.200012 27.099998 81.799988 C 27.099998 81.400024 27.25 81.049988 27.549999 80.75 M 19.099998 71.75 C 19.099998 70.149963 19.733334 68.783325 21 67.650024 C 22.233334 66.516663 23.75 65.950012 25.549999 65.950012 C 27.316666 65.950012 28.833332 66.516663 30.099998 67.650024 C 31.366665 68.783325 32 70.149963 32 71.75 L 31.5 80.450012 C 31.333332 80.083374 31.099998 79.75 30.799999 79.450012 C 30.200001 78.849976 29.483334 78.549988 28.650002 78.549988 L 28.599998 78.549988 C 27.766666 78.549988 27.049999 78.849976 26.450001 79.450012 C 25.849998 80.049988 25.549999 80.766663 25.549999 81.599976 L 25.549999 85.950012 L 19.75 85.950012 L 19.700001 85.950012 L 19.099998 71.75 Z"/>
                    </g>
                </g>
            </g>
        </g>
        <g id="g8">
            <g id="g9">
                <g id="g10">
                    <g id="g11">
                        <path id="path4" fill="#477ca6" stroke="none" d="M 57.150002 67.5 C 56.278 67.5 55.461327 67.333313 54.699997 67 C 55.194527 68.873047 55.477867 70.873047 55.550003 73 C 55.583336 74.06665 56.033333 74.983337 56.900002 75.75 C 57.699997 76.483337 58.666664 76.833313 59.800003 76.799988 C 60.933334 76.766663 61.900002 76.349976 62.699997 75.549988 C 63.433334 74.716675 63.783333 73.766663 63.75 72.700012 C 63.635155 69.666016 63.20182 66.832703 62.449997 64.200012 C 62.182159 64.816406 61.782158 65.383118 61.25 65.900024 C 60.116669 66.966675 58.75 67.5 57.150002 67.5 M 57.150002 56.25 C 57.83828 56.25 58.471611 56.349976 59.050003 56.549988 C 57.111717 53.483887 54.545052 50.833862 51.349998 48.599976 C 50.416664 47.933289 49.383331 47.683289 48.25 47.849976 C 47.116665 48.016663 46.233334 48.533325 45.599998 49.400024 C 44.899998 50.266663 44.633331 51.25 44.799999 52.349976 C 45 53.416687 45.549999 54.283325 46.450001 54.950012 C 48.514065 56.4328 50.230728 58.149475 51.599998 60.099976 C 51.868362 59.298279 52.33503 58.565002 53 57.900024 C 54.166664 56.799988 55.550003 56.25 57.150002 56.25 M 55.800003 59.900024 C 55.666664 60.033325 55.549995 60.183289 55.449997 60.349976 C 55.150002 60.783325 55 61.283325 55 61.849976 C 55 62.616638 55.26667 63.266663 55.800003 63.799988 C 56.366669 64.333313 57.050003 64.599976 57.849998 64.599976 C 58.449997 64.599976 58.98333 64.466675 59.449997 64.200012 C 59.583336 64.06665 59.716667 63.93335 59.849998 63.799988 C 60.116669 63.56665 60.316666 63.350037 60.449997 63.150024 C 60.650002 62.75 60.75 62.31665 60.75 61.849976 C 60.75 61.083313 60.449997 60.43335 59.849998 59.900024 C 59.316666 59.366638 58.650002 59.099976 57.849998 59.099976 C 57.349998 59.099976 56.916664 59.200012 56.550003 59.400024 C 56.283333 59.533325 56.033333 59.700012 55.800003 59.900024 Z"/>
                        <path id="path5" fill="#334e63" stroke="none" d="M 62.449997 64.200012 C 62.816666 63.500671 63 62.734009 63 61.900024 C 63 60.366638 62.416664 59.033325 61.25 57.900024 C 60.604164 57.273193 59.870834 56.823181 59.050003 56.549988 C 58.471611 56.349976 57.83828 56.25 57.150002 56.25 C 55.550003 56.25 54.166664 56.799988 53 57.900024 C 52.33503 58.565002 51.868362 59.298279 51.599998 60.099976 C 51.400002 60.66626 51.300003 61.266296 51.300003 61.900024 C 51.300003 63.43335 51.866669 64.766663 53 65.900024 C 53.530861 66.385315 54.097527 66.751953 54.699997 67 C 55.461327 67.333313 56.278 67.5 57.150002 67.5 C 58.75 67.5 60.116669 66.966675 61.25 65.900024 C 61.782158 65.383118 62.182159 64.816406 62.449997 64.200012 M 55.449997 60.349976 C 55.549995 60.183289 55.666664 60.033325 55.800003 59.900024 C 56.033333 59.700012 56.283333 59.533325 56.550003 59.400024 C 56.916664 59.200012 57.349998 59.099976 57.849998 59.099976 C 58.650002 59.099976 59.316666 59.366638 59.849998 59.900024 C 60.449997 60.43335 60.75 61.083313 60.75 61.849976 C 60.75 62.31665 60.650002 62.75 60.449997 63.150024 C 60.316666 63.350037 60.116669 63.56665 59.849998 63.799988 C 59.716667 63.93335 59.583336 64.06665 59.449997 64.200012 C 58.98333 64.466675 58.449997 64.599976 57.849998 64.599976 C 57.050003 64.599976 56.366669 64.333313 55.800003 63.799988 C 55.26667 63.266663 55 62.616638 55 61.849976 C 55 61.283325 55.150002 60.783325 55.449997 60.349976 Z"/>
                    </g>
                </g>
            </g>
        </g>
        <g id="g12">
            <g id="g13">
                <g id="g14">
                    <g id="g15">
                        <path id="path6" fill="#477ca6" stroke="none" d="M 8.85 67.5 C 9.722006 67.5 10.538671 67.333313 11.299999 67 C 10.805468 68.873047 10.522135 70.873047 10.450001 73 C 10.416666 74.06665 9.966667 74.983337 9.1 75.75 C 8.299999 76.483337 7.333334 76.833313 6.200001 76.799988 C 5.066668 76.766663 4.1 76.349976 3.299999 75.549988 C 2.566668 74.716675 2.216667 73.766663 2.25 72.700012 C 2.364843 69.666016 2.798178 66.832703 3.549999 64.200012 C 3.817839 64.816406 4.217838 65.383118 4.75 65.900024 C 5.883333 66.966675 7.25 67.5 8.85 67.5 M 8.85 56.25 C 8.161718 56.25 7.528385 56.349976 6.950001 56.549988 C 8.888281 53.483887 11.454948 50.833862 14.65 48.599976 C 15.583332 47.933289 16.616667 47.683289 17.75 47.849976 C 18.883335 48.016663 19.766666 48.533325 20.400002 49.400024 C 21.100002 50.266663 21.366669 51.25 21.200001 52.349976 C 21 53.416687 20.450001 54.283325 19.549999 54.950012 C 17.485939 56.4328 15.769272 58.149475 14.4 60.099976 C 14.131641 59.298279 13.664974 58.565002 13 57.900024 C 11.833334 56.799988 10.450001 56.25 8.85 56.25 M 10.200001 59.900024 C 10.333334 60.033325 10.449999 60.183289 10.549999 60.349976 C 10.85 60.783325 11 61.283325 11 61.849976 C 11 62.616638 10.733334 63.266663 10.200001 63.799988 C 9.633333 64.333313 8.950001 64.599976 8.15 64.599976 C 7.549999 64.599976 7.016666 64.466675 6.549999 64.200012 C 6.416666 64.06665 6.283333 63.93335 6.15 63.799988 C 5.883333 63.56665 5.683332 63.350037 5.549999 63.150024 C 5.35 62.75 5.25 62.31665 5.25 61.849976 C 5.25 61.083313 5.549999 60.43335 6.15 59.900024 C 6.683334 59.366638 7.35 59.099976 8.15 59.099976 C 8.65 59.099976 9.083334 59.200012 9.450001 59.400024 C 9.716667 59.533325 9.966667 59.700012 10.200001 59.900024 Z"/>
                        <path id="path7" fill="#334e63" stroke="none" d="M 3.549999 64.200012 C 3.183332 63.500671 3 62.734009 3 61.900024 C 3 60.366638 3.583334 59.033325 4.75 57.900024 C 5.395834 57.273193 6.129168 56.823181 6.950001 56.549988 C 7.528385 56.349976 8.161718 56.25 8.85 56.25 C 10.450001 56.25 11.833334 56.799988 13 57.900024 C 13.664974 58.565002 14.131641 59.298279 14.4 60.099976 C 14.6 60.66626 14.700001 61.266296 14.700001 61.900024 C 14.700001 63.43335 14.133333 64.766663 13 65.900024 C 12.469141 66.385315 11.902473 66.751953 11.299999 67 C 10.538671 67.333313 9.722006 67.5 8.85 67.5 C 7.25 67.5 5.883333 66.966675 4.75 65.900024 C 4.217838 65.383118 3.817839 64.816406 3.549999 64.200012 M 10.549999 60.349976 C 10.449999 60.183289 10.333334 60.033325 10.200001 59.900024 C 9.966667 59.700012 9.716667 59.533325 9.450001 59.400024 C 9.083334 59.200012 8.65 59.099976 8.15 59.099976 C 7.35 59.099976 6.683334 59.366638 6.15 59.900024 C 5.549999 60.43335 5.25 61.083313 5.25 61.849976 C 5.25 62.31665 5.35 62.75 5.549999 63.150024 C 5.683332 63.350037 5.883333 63.56665 6.15 63.799988 C 6.283333 63.93335 6.416666 64.06665 6.549999 64.200012 C 7.016666 64.466675 7.549999 64.599976 8.15 64.599976 C 8.950001 64.599976 9.633333 64.333313 10.200001 63.799988 C 10.733334 63.266663 11 62.616638 11 61.849976 C 11 61.283325 10.85 60.783325 10.549999 60.349976 Z"/>
                    </g>
                </g>
            </g>
        </g>
        <g id="g16">
            <g id="g17">
                <g id="g18">
                    <g id="g19">
                        <path id="path8" fill="#334e63" stroke="none" d="M 20.049999 54.150024 C 21.349998 52.883362 22 51.349976 22 49.549988 C 22 47.75 21.349998 46.216675 20.049999 44.950012 C 18.783333 43.68335 17.25 43.049988 15.450001 43.049988 C 13.65 43.049988 12.133333 43.68335 10.9 44.950012 C 9.633333 46.216675 9 47.75 9 49.549988 C 9 51.349976 9.633333 52.883362 10.9 54.150024 C 12.133333 55.416687 13.65 56.049988 15.450001 56.049988 C 17.25 56.049988 18.783333 55.416687 20.049999 54.150024 M 54.099998 54.150024 C 55.366669 52.883362 56 51.349976 56 49.549988 C 56 47.75 55.366669 46.216675 54.099998 44.950012 C 52.833328 43.68335 51.299995 43.049988 49.5 43.049988 C 47.700001 43.049988 46.183334 43.68335 44.950001 44.950012 C 43.650002 46.216675 43 47.75 43 49.549988 C 43 51.349976 43.650002 52.883362 44.950001 54.150024 C 46.183334 55.416687 47.700001 56.049988 49.5 56.049988 C 51.299995 56.049988 52.833328 55.416687 54.099998 54.150024 Z"/>
                    </g>
                </g>
            </g>
            <g id="g20">
                <g id="g21">
                    <g id="g22">
                        <path id="path9" fill="#5393c5" stroke="none" d="M 45.900002 77.049988 C 46.833332 75.75 47.333332 74 47.400002 71.799988 L 17.5 71.799988 C 17.566666 74 18.066666 75.75 19 77.049988 L 45.900002 77.049988 Z"/>
                        <path id="path10" fill="#334e63" stroke="none" d="M 40.75 66.799988 C 41.649998 65.333313 42.099998 63.666626 42.099998 61.799988 C 42.099998 59.133301 41.166664 56.849976 39.299999 54.950012 C 37.400002 53.049988 35.116669 52.099976 32.450001 52.099976 C 29.783333 52.099976 27.5 53.049988 25.599998 54.950012 C 23.700001 56.849976 22.75 59.133301 22.75 61.799988 C 22.75 63.666626 23.216667 65.333313 24.150002 66.799988 L 17.5 66.799988 L 17.5 71.799988 L 47.400002 71.799988 L 47.400002 66.799988 L 40.75 66.799988 M 37.5 60.25 L 35.849998 65.5 C 35.816666 65.633362 35.733334 65.75 35.599998 65.849976 C 35.466667 65.950012 35.316669 66 35.150002 66 L 29.900002 66 C 29.766666 66 29.633335 65.950012 29.5 65.849976 C 29.333332 65.75 29.233334 65.633362 29.200001 65.5 L 27.549999 60.25 C 27.516666 60.083313 27.516666 59.916687 27.549999 59.75 C 27.616669 59.616638 27.716667 59.483337 27.849998 59.349976 L 32.150002 56.200012 C 32.25 56.099976 32.383331 56.049988 32.549999 56.049988 C 32.683334 56.049988 32.833332 56.099976 33 56.200012 L 37.25 59.349976 C 37.350002 59.483337 37.433334 59.616638 37.5 59.75 C 37.533333 59.916687 37.533333 60.083313 37.5 60.25 Z"/>
                        <path id="path11" fill="#ff6699" stroke="none" d="M 35.849998 65.5 L 37.5 60.25 C 37.533333 60.083313 37.533333 59.916687 37.5 59.75 C 37.433334 59.616638 37.350002 59.483337 37.25 59.349976 L 33 56.200012 C 32.833332 56.099976 32.683334 56.049988 32.549999 56.049988 C 32.383331 56.049988 32.25 56.099976 32.150002 56.200012 L 27.849998 59.349976 C 27.716667 59.483337 27.616669 59.616638 27.549999 59.75 C 27.516666 59.916687 27.516666 60.083313 27.549999 60.25 L 29.200001 65.5 C 29.233334 65.633362 29.333332 65.75 29.5 65.849976 C 29.633335 65.950012 29.766666 66 29.900002 66 L 35.150002 66 C 35.316669 66 35.466667 65.950012 35.599998 65.849976 C 35.733334 65.75 35.816666 65.633362 35.849998 65.5 Z"/>
                        <path id="path12" fill="#477ca6" stroke="none" d="M 50.650002 53.049988 C 51.483337 49.716675 50.733337 47.966675 48.400002 47.799988 L 43.049999 47.799988 C 43.049999 47.733337 43.049999 47.650024 43.049999 47.549988 C 43.083332 47.383301 43.099998 47.216675 43.099998 47.049988 C 43.099998 44.549988 42.083332 42.399963 40.049999 40.599976 C 37.950001 38.899963 35.433334 38.049988 32.5 38.049988 C 29.566666 38.049988 27.049999 38.899963 24.950001 40.599976 C 22.916668 42.399963 21.900002 44.549988 21.900002 47.049988 C 21.900002 47.216675 21.916668 47.383301 21.950001 47.549988 C 21.950001 47.650024 21.966667 47.733337 22 47.799988 L 16.85 47.799988 C 14.416668 47.666626 13.550001 49.416626 14.25 53.049988 L 17.5 66.799988 L 24.150002 66.799988 C 23.216667 65.333313 22.75 63.666626 22.75 61.799988 C 22.75 59.133301 23.700001 56.849976 25.599998 54.950012 C 27.5 53.049988 29.783333 52.099976 32.450001 52.099976 C 35.116669 52.099976 37.400002 53.049988 39.299999 54.950012 C 41.166664 56.849976 42.099998 59.133301 42.099998 61.799988 C 42.099998 63.666626 41.649998 65.333313 40.75 66.799988 L 47.400002 66.799988 L 50.650002 53.049988 Z"/>
                    </g>
                </g>
            </g>
        </g>
        <g id="g23">
            <g id="g24">
                <g id="g25">
                    <g id="g26">
                        <path id="path13" fill="#bfd4e5" stroke="none" d="M 58.199997 85.549988 C 58.133331 85.483337 58.083336 85.5 58.050003 85.599976 C 57.98333 85.700012 57.933334 85.81665 57.900002 85.950012 L 57.900002 89.450012 C 57.900002 89.549988 57.950005 89.683289 58.050003 89.849976 C 58.116669 89.883362 58.200005 89.900024 58.300003 89.900024 C 60.166664 89.866638 61.766663 89.183289 63.099998 87.849976 L 63.150002 87.849976 C 64.550003 86.450012 65.283333 84.75 65.349998 82.75 C 65.383331 80.716675 64.733337 79 63.400002 77.599976 L 63.25 77.450012 C 63.231773 77.820435 63.165108 78.187134 63.050003 78.549988 C 62.710419 79.815918 61.977081 80.799255 60.849998 81.5 C 61.016663 81.864563 61.099998 82.247925 61.099998 82.650024 C 61.033333 83.416687 60.76667 84.083313 60.300003 84.650024 C 60.26667 84.650024 60.216667 84.666687 60.150002 84.700012 C 59.650002 85.233337 59 85.516663 58.199997 85.549988 M 53.650002 74.450012 C 53.373566 74.510803 53.090233 74.577454 52.800003 74.650024 C 50.933334 75.083313 49.466667 76.166687 48.400002 77.900024 C 47.400002 79.633362 47.116669 81.466675 47.549999 83.400024 C 47.549999 83.43335 47.549999 83.466675 47.549999 83.5 C 48.049999 85.333313 49.083336 86.75 50.650002 87.75 C 50.75 87.81665 50.849998 87.849976 50.949997 87.849976 C 51.01667 87.81665 51.066666 87.75 51.099998 87.650024 L 53.050003 84.599976 C 53.116669 84.533325 53.150002 84.466675 53.150002 84.400024 C 53.083336 84.266663 53.01667 84.166687 52.949997 84.099976 C 52.349998 83.700012 51.950005 83.133362 51.75 82.400024 C 51.75 82.366638 51.75 82.333313 51.75 82.299988 C 51.583336 81.56665 51.699997 80.866699 52.099998 80.200012 C 52.424088 79.676453 52.824089 79.293091 53.300003 79.049988 C 52.922134 77.956116 52.872131 76.839478 53.150002 75.700012 C 53.278259 75.261719 53.444923 74.845093 53.650002 74.450012 Z"/>
                        <path id="path14" fill="#5393c5" stroke="none" d="M 62.599998 74.599976 C 61.933334 73.366638 60.916664 72.533325 59.550003 72.099976 C 58.216667 71.700012 56.900002 71.849976 55.599998 72.549988 C 54.762108 73.048157 54.112106 73.681519 53.650002 74.450012 C 53.444923 74.845093 53.278259 75.261719 53.150002 75.700012 C 52.872131 76.839478 52.922134 77.956116 53.300003 79.049988 C 53.394791 79.267334 53.494789 79.484009 53.599998 79.700012 C 54.300003 80.93335 55.333336 81.75 56.699997 82.150024 C 58.066666 82.516663 59.366669 82.366699 60.599998 81.700012 C 60.693489 81.645996 60.776825 81.579285 60.849998 81.5 C 61.977081 80.799255 62.710419 79.815918 63.050003 78.549988 C 63.165108 78.187134 63.231773 77.820435 63.25 77.450012 C 63.355339 76.480347 63.138672 75.530334 62.599998 74.599976 Z"/>
                    </g>
                </g>
            </g>
        </g>
        <g id="g27">
            <g id="g28">
                <g id="g29">
                    <g id="g30">
                        <path id="path15" fill="#bfd4e5" stroke="none" d="M 7.799999 85.549988 C 7.866667 85.483337 7.916666 85.5 7.950001 85.599976 C 8.016666 85.700012 8.066666 85.81665 8.1 85.950012 L 8.1 89.450012 C 8.1 89.549988 8.050001 89.683289 7.950001 89.849976 C 7.883333 89.883362 7.800001 89.900024 7.700001 89.900024 C 5.833334 89.866638 4.233334 89.183289 2.9 87.849976 L 2.85 87.849976 C 1.450001 86.450012 0.716666 84.75 0.65 82.75 C 0.616666 80.716675 1.266666 79 2.6 77.599976 L 2.75 77.450012 C 2.768229 77.820435 2.834896 78.187134 2.950001 78.549988 C 3.289583 79.815918 4.022917 80.799255 5.15 81.5 C 4.983334 81.864563 4.9 82.247925 4.9 82.650024 C 4.966667 83.416687 5.233334 84.083313 5.700001 84.650024 C 5.733334 84.650024 5.783333 84.666687 5.85 84.700012 C 6.35 85.233337 7 85.516663 7.799999 85.549988 M 12.35 74.450012 C 12.626432 74.510803 12.909765 74.577454 13.200001 74.650024 C 15.066668 75.083313 16.533333 76.166687 17.599998 77.900024 C 18.599998 79.633362 18.883331 81.466675 18.450001 83.400024 C 18.450001 83.43335 18.450001 83.466675 18.450001 83.5 C 17.950001 85.333313 16.916668 86.75 15.35 87.75 C 15.25 87.81665 15.15 87.849976 15.049999 87.849976 C 14.983334 87.81665 14.933334 87.75 14.9 87.650024 L 12.950001 84.599976 C 12.883333 84.533325 12.85 84.466675 12.85 84.400024 C 12.916668 84.266663 12.983334 84.166687 13.049999 84.099976 C 13.65 83.700012 14.050001 83.133362 14.25 82.400024 C 14.25 82.366638 14.25 82.333313 14.25 82.299988 C 14.416666 81.56665 14.299999 80.866699 13.9 80.200012 C 13.575912 79.676453 13.175913 79.293091 12.700001 79.049988 C 13.077864 77.956116 13.127865 76.839478 12.85 75.700012 C 12.721745 75.261719 12.555079 74.845093 12.35 74.450012 Z"/>
                        <path id="path16" fill="#5393c5" stroke="none" d="M 3.4 74.599976 C 4.066666 73.366638 5.083334 72.533325 6.450001 72.099976 C 7.783335 71.700012 9.1 71.849976 10.4 72.549988 C 11.23789 73.048157 11.88789 73.681519 12.35 74.450012 C 12.555079 74.845093 12.721745 75.261719 12.85 75.700012 C 13.127865 76.839478 13.077864 77.956116 12.700001 79.049988 C 12.605207 79.267334 12.505207 79.484009 12.4 79.700012 C 11.700001 80.93335 10.666666 81.75 9.299999 82.150024 C 7.933332 82.516663 6.633333 82.366699 5.4 81.700012 C 5.306511 81.645996 5.223177 81.579285 5.15 81.5 C 4.022917 80.799255 3.289583 79.815918 2.950001 78.549988 C 2.834896 78.187134 2.768229 77.820435 2.75 77.450012 C 2.644661 76.480347 2.861328 75.530334 3.4 74.599976 Z"/>
                    </g>
                </g>
            </g>
        </g>
        <g id="g31">
            <g id="g32">
                <g id="g33">
                    <g id="g34">
                        <radialGradient id="radialGradient1" cx="33.4" cy="49.1" r="20.481597" fx="33.4" fy="49.1" gradientUnits="userSpaceOnUse">
                            <stop offset="1e-05" stop-color="#000000" stop-opacity="0.301961"/>
                            <stop offset="1" stop-color="#000000" stop-opacity="0"/>
                        </radialGradient>
                        <path id="path17" fill="url(#radialGradient1)" stroke="none" d="M 47.644791 39.549988 C 43.72559 36.950012 38.977325 35.650024 33.400002 35.650024 C 27.822674 35.650024 23.024166 36.950012 19.004471 39.549988 C 15.08527 42.216675 13.125669 45.399963 13.125669 49.099976 C 13.125669 52.799988 15.08527 55.950012 19.004471 58.549988 C 23.024166 61.216675 27.822674 62.549988 33.400002 62.549988 C 38.977325 62.549988 43.72559 61.216675 47.644791 58.549988 C 51.664482 55.950012 53.674332 52.799988 53.674332 49.099976 C 53.674332 45.399963 51.664482 42.216675 47.644791 39.549988 Z"/>
                    </g>
                </g>
            </g>
        </g>
        <g id="g35">
            <g id="g36">
                <g id="g37">
                    <g id="g38">
                        <path id="path18" fill="#bfd4e5" stroke="none" d="M 46.700001 34.099976 C 50.133331 30.700012 51.849998 26.583313 51.849998 21.75 C 51.849998 16.916687 50.133331 12.783325 46.700001 9.349976 C 43.266666 5.916687 39.133331 4.200012 34.299999 4.200012 C 29.466667 4.200012 25.333332 5.916687 21.900002 9.349976 C 18.466667 12.783325 16.75 16.916687 16.75 21.75 C 16.75 26.583313 18.466667 30.700012 21.900002 34.099976 C 25.333332 37.56665 29.466667 39.299988 34.299999 39.299988 C 39.133331 39.299988 43.266666 37.56665 46.700001 34.099976 M 44.25 21.75 C 44.25 24.483337 43.283333 26.81665 41.349998 28.75 C 39.383335 30.716675 37.033333 31.700012 34.299999 31.700012 C 31.566666 31.700012 29.233334 30.716675 27.299999 28.75 C 25.333332 26.81665 24.349998 24.483337 24.349998 21.75 C 24.349998 19.016663 25.333332 16.68335 27.299999 14.75 C 29.233334 12.783325 31.566666 11.799988 34.299999 11.799988 C 37.033333 11.799988 39.383335 12.783325 41.349998 14.75 C 43.283333 16.68335 44.25 19.016663 44.25 21.75 Z"/>
                        <path id="path19" fill="#ffffff" stroke="none" d="M 41.349998 28.75 C 43.283333 26.81665 44.25 24.483337 44.25 21.75 C 44.25 19.016663 43.283333 16.68335 41.349998 14.75 C 39.383335 12.783325 37.033333 11.799988 34.299999 11.799988 C 31.566666 11.799988 29.233334 12.783325 27.299999 14.75 C 25.333332 16.68335 24.349998 19.016663 24.349998 21.75 C 24.349998 24.483337 25.333332 26.81665 27.299999 28.75 C 29.233334 30.716675 31.566666 31.700012 34.299999 31.700012 C 37.033333 31.700012 39.383335 30.716675 41.349998 28.75 Z"/>
                    </g>
                </g>
            </g>
            <g id="g39">
                <g id="g40">
                    <g id="g41">
                        <path id="path20" fill="#477ca6" stroke="none" d="M 18.849998 10.75 C 18.216663 11.116638 17.799999 11.666687 17.599998 12.400024 L 15.4 20.599976 C 15.200001 21.333313 15.283333 22.049988 15.65 22.75 C 16.083334 23.383362 16.666666 23.799988 17.399998 24 L 17.450001 24 C 18.183334 24.200012 18.883331 24.133301 19.549999 23.799988 C 20.216667 23.366699 20.649998 22.783325 20.849998 22.049988 L 23 13.849976 C 23.200001 13.116638 23.099998 12.416687 22.700001 11.75 C 22.333336 11.083313 21.799999 10.650024 21.099998 10.450012 L 21.049999 10.450012 C 20.316666 10.25 19.583332 10.350037 18.849998 10.75 Z"/>
                    </g>
                </g>
            </g>
            <g id="g42">
                <g id="g43">
                    <g id="g44">
                        <path id="path21" fill="#477ca6" stroke="none" d="M 51.150002 12.400024 C 50.949997 11.666687 50.533333 11.116638 49.900002 10.75 C 49.166664 10.350037 48.433334 10.25 47.700001 10.450012 L 47.650002 10.450012 C 46.916668 10.650024 46.366665 11.083313 46 11.75 C 45.600002 12.416687 45.5 13.116638 45.700001 13.849976 L 47.900002 22.049988 C 48.100002 22.783325 48.533333 23.366699 49.199997 23.799988 C 49.866661 24.133301 50.566666 24.200012 51.300003 24 L 51.349998 24 C 52.050003 23.799988 52.616669 23.383362 53.050003 22.75 C 53.416664 22.049988 53.5 21.333313 53.300003 20.599976 L 51.150002 12.400024 Z"/>
                    </g>
                </g>
            </g>
            <g id="g45">
                <g id="g46">
                    <g id="g47">
                        <path id="path22" fill="#5393c5" stroke="none" d="M 10.200001 30.200012 C 8.633333 31.766663 7.85 33.649963 7.85 35.849976 C 7.85 38.049988 8.633333 39.916687 10.200001 41.450012 C 11.800001 43.049988 13.683334 43.849976 15.85 43.849976 C 18.050003 43.849976 19.950001 43.049988 21.549999 41.450012 C 23.083332 39.916687 23.849998 38.049988 23.849998 35.849976 C 23.849998 33.649963 23.083332 31.766663 21.549999 30.200012 C 19.950001 28.599976 18.050003 27.799988 15.85 27.799988 C 13.683334 27.799988 11.800001 28.599976 10.200001 30.200012 M 12.5 39.25 C 11.566668 38.31665 11.1 37.183289 11.1 35.849976 C 11.1 34.549988 11.566668 33.416687 12.5 32.450012 C 13.433332 31.516663 14.549999 31.049988 15.85 31.049988 C 17.216667 31.049988 18.366665 31.516663 19.299999 32.450012 C 20.233334 33.416687 20.700001 34.549988 20.700001 35.849976 C 20.700001 37.183289 20.233334 38.31665 19.299999 39.25 C 18.366665 40.216675 17.216667 40.700012 15.85 40.700012 C 14.549999 40.700012 13.433332 40.216675 12.5 39.25 M 47.200001 30.200012 C 45.633331 31.766663 44.849998 33.649963 44.849998 35.849976 C 44.849998 38.049988 45.633331 39.916687 47.200001 41.450012 C 48.799999 43.049988 50.683334 43.849976 52.849998 43.849976 C 55.050003 43.849976 56.950005 43.049988 58.550003 41.450012 C 60.083336 39.916687 60.849998 38.049988 60.849998 35.849976 C 60.849998 33.649963 60.083336 31.766663 58.550003 30.200012 C 56.950005 28.599976 55.050003 27.799988 52.849998 27.799988 C 50.683334 27.799988 48.799999 28.599976 47.200001 30.200012 M 49.5 32.450012 C 50.433334 31.516663 51.550003 31.049988 52.849998 31.049988 C 54.183334 31.049988 55.333336 31.516663 56.300003 32.450012 C 57.23333 33.416687 57.699997 34.549988 57.699997 35.849976 C 57.699997 37.183289 57.23333 38.31665 56.300003 39.25 C 55.333336 40.216675 54.183334 40.700012 52.849998 40.700012 C 51.550003 40.700012 50.433334 40.216675 49.5 39.25 C 48.533333 38.31665 48.049999 37.183289 48.049999 35.849976 C 48.049999 34.549988 48.533333 33.416687 49.5 32.450012 Z"/>
                        <path id="path23" fill="#477ca6" stroke="none" d="M 11.1 35.849976 C 11.1 37.183289 11.566668 38.31665 12.5 39.25 C 13.433332 40.216675 14.549999 40.700012 15.85 40.700012 C 17.216667 40.700012 18.366665 40.216675 19.299999 39.25 C 20.233334 38.31665 20.700001 37.183289 20.700001 35.849976 C 20.700001 34.549988 20.233334 33.416687 19.299999 32.450012 C 18.366665 31.516663 17.216667 31.049988 15.85 31.049988 C 14.549999 31.049988 13.433332 31.516663 12.5 32.450012 C 11.566668 33.416687 11.1 34.549988 11.1 35.849976 M 52.849998 31.049988 C 51.550003 31.049988 50.433334 31.516663 49.5 32.450012 C 48.533333 33.416687 48.049999 34.549988 48.049999 35.849976 C 48.049999 37.183289 48.533333 38.31665 49.5 39.25 C 50.433334 40.216675 51.550003 40.700012 52.849998 40.700012 C 54.183334 40.700012 55.333336 40.216675 56.300003 39.25 C 57.23333 38.31665 57.699997 37.183289 57.699997 35.849976 C 57.699997 34.549988 57.23333 33.416687 56.300003 32.450012 C 55.333336 31.516663 54.183334 31.049988 52.849998 31.049988 Z"/>
                    </g>
                </g>
            </g>
            <g id="g48">
                <g id="g49">
                    <g id="g50">
                        <path id="path24" fill="#334e63" stroke="none" d="M 16.65 49.200012 L 24.650002 49.200012 C 24.616665 42.666687 21.516666 38.43335 15.35 36.5 L 16.65 49.200012 M 46.549999 49.200012 C 50.116669 48.733337 52.150002 46.833313 52.650002 43.5 L 53.550003 34.75 C 47.516666 37.850037 44.383335 42.666687 44.150002 49.200012 L 46.549999 49.200012 Z"/>
                        <path id="path25" fill="#5393c5" stroke="none" d="M 53.550003 34.75 L 55.300003 17.849976 L 13.450001 17.849976 L 15.35 36.5 C 21.516666 38.43335 24.616665 42.666687 24.650002 49.200012 L 44.150002 49.200012 C 44.383335 42.666687 47.516666 37.850037 53.550003 34.75 Z"/>
                    </g>
                </g>
            </g>
            <g id="g51">
                <g id="g52">
                    <g id="g53">
                        <path id="path26" fill="#477ca6" stroke="none" d="M 40.299999 36.599976 C 41.866669 35.033325 42.650002 33.150024 42.650002 30.950012 C 42.650002 28.716675 41.866669 26.833313 40.299999 25.299988 C 38.733334 23.733337 36.850002 22.950012 34.650002 22.950012 C 32.416668 22.950012 30.533333 23.733337 29 25.299988 C 27.433334 26.833313 26.650002 28.716675 26.650002 30.950012 C 26.650002 33.150024 27.433334 35.033325 29 36.599976 C 30.533333 38.166687 32.416668 38.950012 34.650002 38.950012 C 36.850002 38.950012 38.733334 38.166687 40.299999 36.599976 M 40 30.950012 C 40 32.416687 39.466667 33.666687 38.400002 34.700012 C 37.366665 35.766663 36.116665 36.299988 34.650002 36.299988 C 33.150002 36.299988 31.866669 35.766663 30.799999 34.700012 C 29.766666 33.666687 29.25 32.416687 29.25 30.950012 C 29.25 29.450012 29.766666 28.166687 30.799999 27.099976 C 31.866669 26.099976 33.150002 25.599976 34.650002 25.599976 C 36.116665 25.599976 37.366665 26.099976 38.400002 27.099976 C 39.466667 28.166687 40 29.450012 40 30.950012 Z"/>
                        <path id="path27" fill="#ffcc00" stroke="none" d="M 38.400002 34.700012 C 39.466667 33.666687 40 32.416687 40 30.950012 C 40 29.450012 39.466667 28.166687 38.400002 27.099976 C 37.366665 26.099976 36.116665 25.599976 34.650002 25.599976 C 33.150002 25.599976 31.866669 26.099976 30.799999 27.099976 C 29.766666 28.166687 29.25 29.450012 29.25 30.950012 C 29.25 32.416687 29.766666 33.666687 30.799999 34.700012 C 31.866669 35.766663 33.150002 36.299988 34.650002 36.299988 C 36.116665 36.299988 37.366665 35.766663 38.400002 34.700012 M 37.75 30.950012 C 37.75 31.549988 37.533333 32.049988 37.099998 32.450012 C 36.733334 32.883301 36.25 33.099976 35.650002 33.099976 C 35.049999 33.099976 34.533333 32.883301 34.099998 32.450012 C 33.700001 32.049988 33.5 31.549988 33.5 30.950012 C 33.5 30.349976 33.700001 29.833313 34.099998 29.400024 C 34.533333 29 35.049999 28.799988 35.650002 28.799988 C 36.25 28.799988 36.733334 29 37.099998 29.400024 C 37.533333 29.833313 37.75 30.349976 37.75 30.950012 Z"/>
                        <path id="path28" fill="#ffffff" stroke="none" d="M 37.099998 32.450012 C 37.533333 32.049988 37.75 31.549988 37.75 30.950012 C 37.75 30.349976 37.533333 29.833313 37.099998 29.400024 C 36.733334 29 36.25 28.799988 35.650002 28.799988 C 35.049999 28.799988 34.533333 29 34.099998 29.400024 C 33.700001 29.833313 33.5 30.349976 33.5 30.950012 C 33.5 31.549988 33.700001 32.049988 34.099998 32.450012 C 34.533333 32.883301 35.049999 33.099976 35.650002 33.099976 C 36.25 33.099976 36.733334 32.883301 37.099998 32.450012 Z"/>
                    </g>
                </g>
            </g>
            <g id="g54">
                <g id="g55">
                    <g id="g56">
                        <path id="path29" fill="#bfd4e5" stroke="none" d="M 39.799999 42.349976 C 39.799999 42.149963 39.783333 41.966675 39.75 41.799988 C 39.516666 41.733337 39.266666 41.700012 39 41.700012 L 29.549999 41.700012 C 29.316666 41.700012 29.083332 41.733337 28.849998 41.799988 C 28.816666 41.966675 28.799999 42.149963 28.799999 42.349976 L 28.799999 42.400024 C 28.799999 43.033325 29 43.56665 29.400002 44 C 29.866665 44.466675 30.416664 44.700012 31.049999 44.700012 L 37.5 44.700012 C 38.133335 44.700012 38.666668 44.466675 39.099998 44 C 39.566666 43.56665 39.799999 43.033325 39.799999 42.400024 L 39.799999 42.349976 Z"/>
                        <path id="path30" fill="#334e63" stroke="none" d="M 41.950001 44.650024 C 41.950001 43.850037 41.650002 43.150024 41.049999 42.549988 C 40.650002 42.150024 40.216667 41.900024 39.75 41.799988 C 39.783333 41.966675 39.799999 42.149963 39.799999 42.349976 L 39.799999 42.400024 C 39.799999 43.033325 39.566666 43.56665 39.099998 44 C 38.666668 44.466675 38.133335 44.700012 37.5 44.700012 L 31.049999 44.700012 C 30.416664 44.700012 29.866665 44.466675 29.400002 44 C 29 43.56665 28.799999 43.033325 28.799999 42.400024 L 28.799999 42.349976 C 28.799999 42.149963 28.816666 41.966675 28.849998 41.799988 C 28.349998 41.900024 27.899998 42.150024 27.5 42.549988 C 26.933334 43.150024 26.650002 43.850037 26.650002 44.650024 C 26.650002 45.450012 26.933334 46.133301 27.5 46.700012 C 28.100002 47.299988 28.783333 47.599976 29.549999 47.599976 L 39 47.599976 C 39.799999 47.599976 40.483334 47.299988 41.049999 46.700012 C 41.650002 46.133301 41.950001 45.450012 41.950001 44.650024 Z"/>
                    </g>
                </g>
            </g>
            <g id="g57">
                <g id="g58">
                    <g id="g59">
                        <path id="path31" fill="#477ca6" stroke="none" d="M 50 33.299988 C 50.599998 32.733337 50.900002 32.049988 50.900002 31.25 C 50.900002 30.450012 50.599998 29.75 50 29.150024 C 49.433334 28.583313 48.75 28.299988 47.950001 28.299988 C 47.150002 28.299988 46.450001 28.583313 45.849998 29.150024 C 45.283333 29.75 45 30.450012 45 31.25 C 45 32.049988 45.283333 32.733337 45.849998 33.299988 C 46.450001 33.866699 47.150002 34.150024 47.950001 34.150024 C 48.75 34.150024 49.433334 33.866699 50 33.299988 Z"/>
                    </g>
                </g>
            </g>
            <g id="g60">
                <g id="g61">
                    <g id="g62">
                        <path id="path32" fill="#477ca6" stroke="none" d="M 23.299999 33.299988 C 23.900002 32.733337 24.200001 32.049988 24.200001 31.25 C 24.200001 30.450012 23.900002 29.75 23.299999 29.150024 C 22.733334 28.583313 22.066666 28.299988 21.299999 28.299988 C 20.5 28.299988 19.799999 28.583313 19.200001 29.150024 C 18.633331 29.75 18.349998 30.450012 18.349998 31.25 C 18.349998 32.049988 18.633331 32.733337 19.200001 33.299988 C 19.799999 33.866699 20.5 34.150024 21.299999 34.150024 C 22.066666 34.150024 22.733334 33.866699 23.299999 33.299988 Z"/>
                    </g>
                </g>
            </g>
        </g>
    </g>
</svg>
