<?xml version="1.0" encoding="UTF-8"?>
<!-- Generated by Pixelmator Pro 3.6.15 -->
<svg width="80" height="80" viewBox="0 0 80 80" xmlns="http://www.w3.org/2000/svg">
    <g id="Group">
        <g id="Group-copy">
            <g id="g1">
                <g id="g2">
                    <linearGradient id="linearGradient1" x1="40" y1="0" x2="40" y2="80" gradientUnits="userSpaceOnUse">
                        <stop offset="1e-05" stop-color="#e26081" stop-opacity="1"/>
                        <stop offset="1" stop-color="#d44947" stop-opacity="1"/>
                    </linearGradient>
                    <path id="Path" fill="url(#linearGradient1)" stroke="none" d="M 80 14 C 79.833336 7.333313 76.316666 4 69.449997 4 L 10.5 4 C 3.666668 4 0.166666 7.333313 0 14 L 0 69.950012 C 0.166666 76.650024 3.666668 80 10.5 80 L 69.449997 80 C 76.316666 80 79.833336 76.650024 80 69.950012 L 80 14 Z"/>
                    <linearGradient id="linearGradient2" x1="39.75" y1="-0.25" x2="39.75" y2="43.25" gradientUnits="userSpaceOnUse">
                        <stop offset="1e-05" stop-color="#f37f98" stop-opacity="1"/>
                        <stop offset="1" stop-color="#d74854" stop-opacity="1"/>
                    </linearGradient>
                    <path id="path1" fill="url(#linearGradient2)" stroke="none" d="M 80 10.5 C 80 3.5 76.48333 0 69.449997 0 L 10.5 0 C 3.5 0 0 3.5 0 10.5 L 0 14 C 0.166666 7.333313 3.666668 4 10.5 4 L 69.449997 4 C 76.316666 4 79.833336 7.333313 80 14 L 80 10.5 Z"/>
                </g>
            </g>
        </g>
        <g id="facek-copy-2">
            <g id="facialpartmouthhappy">
                <g id="g3">
                    <g id="g4">
                        <g id="g5">
                            <path id="path2" fill="#3d465d" stroke="none" d="M 50 58.149994 C 50.03334 57.583313 49.866669 57.100006 49.5 56.700012 C 49.133331 56.266663 48.683334 56.033325 48.149994 56 C 47.583328 55.966675 47.100006 56.133331 46.699997 56.5 C 46.433334 56.733337 46.150009 56.966675 45.850006 57.200012 L 45.800003 57.200012 C 44.199997 58.399994 42.266663 59 40 59 C 37.666672 59 35.683334 58.399994 34.050003 57.200012 C 33.850006 57.033356 33.666672 56.866669 33.5 56.700012 C 33.133331 56.266663 32.683334 56.033325 32.149994 56 C 31.583328 55.966675 31.100006 56.133331 30.699997 56.5 C 30.266663 56.866669 30.03334 57.333313 30 57.899994 C 29.96666 58.43335 30.133331 58.916687 30.5 59.350006 C 30.800003 59.68335 31.166672 60.016663 31.600006 60.350006 C 31.633331 60.350006 31.649994 60.366669 31.649994 60.399994 C 33.949997 62.133331 36.733337 63 40 63 C 43.199997 63 45.933334 62.149994 48.199997 60.450012 L 48.199997 60.399994 C 48.600006 60.100006 48.983337 59.800018 49.350006 59.5 C 49.75 59.133331 49.96666 58.68335 50 58.149994 Z"/>
                        </g>
                    </g>
                </g>
            </g>
            <g id="g6">
                <g id="g7">
                    <g id="g8">
                        <path id="path3" fill="#3d465d" stroke="none" d="M 14.350006 23.699997 C 13.78334 23.833336 13.383331 24.133331 13.149994 24.599998 C 12.849991 25.066666 12.766663 25.583336 12.899994 26.150002 L 13.949997 30 C 14.083328 30.566666 14.399994 30.966667 14.899994 31.199997 C 15.333328 31.5 15.833328 31.583336 16.399994 31.449997 L 35.699997 26.25 C 36.233337 26.116669 36.649994 25.800003 36.949997 25.300003 C 37.216675 24.866669 37.28334 24.366669 37.149994 23.800003 L 36.100006 19.949997 C 35.96666 19.383331 35.666656 18.966667 35.199997 18.699997 C 34.699997 18.433334 34.183334 18.366669 33.649994 18.5 L 14.350006 23.699997 Z"/>
                    </g>
                </g>
            </g>
            <g id="g9">
                <g id="g10">
                    <g id="g11">
                        <path id="path4" fill="#3d465d" stroke="none" d="M 46.350006 18.5 C 45.816666 18.366669 45.300003 18.433334 44.800003 18.699997 C 44.333344 18.966667 44.03334 19.383331 43.899994 19.949997 L 42.850006 23.800003 C 42.71666 24.366669 42.783325 24.866669 43.050003 25.300003 C 43.350006 25.800003 43.766663 26.116669 44.300003 26.25 L 63.600006 31.449997 C 64.166687 31.583336 64.666687 31.5 65.100006 31.199997 C 65.600006 30.966667 65.916656 30.566666 66.049988 30 L 67.100006 26.150002 C 67.233337 25.583336 67.149994 25.066666 66.850006 24.599998 C 66.616669 24.133331 66.216675 23.833336 65.649994 23.699997 L 46.350006 18.5 Z"/>
                    </g>
                </g>
            </g>
            <g id="g12">
                <g id="g13">
                    <g id="g14">
                        <path id="path5" fill="#3d465d" stroke="none" d="M 35.800003 38.099998 C 35.533325 37.599998 35.166656 37.266663 34.699997 37.099998 C 34.166656 36.933334 33.649994 36.98333 33.149994 37.25 C 32.649994 37.48333 32.316666 37.866669 32.149994 38.400002 C 31.949997 38.966667 31.716675 39.5 31.449997 40 C 31.050003 40.566666 30.600006 41.116669 30.100006 41.650002 C 28.53334 43.216667 26.666672 44 24.5 44 C 22.300003 44 20.433334 43.216667 18.899994 41.650002 C 18.366669 41.116669 17.933334 40.566666 17.600006 40 C 17.300003 39.5 17.083328 38.98333 16.949997 38.449997 C 16.783325 37.916664 16.46666 37.51667 16 37.25 C 15.5 36.98333 14.983337 36.933334 14.449997 37.099998 C 13.916656 37.233337 13.516663 37.550003 13.25 38.050003 C 12.983337 38.51667 12.933334 39.01667 13.100006 39.550003 C 13.333328 40.416664 13.683334 41.23333 14.149994 42 L 14.149994 42.050003 C 14.649994 42.916664 15.283325 43.73333 16.050003 44.5 C 18.383331 46.833332 21.199997 48 24.5 48 C 27.800003 48 30.616669 46.816666 32.949997 44.449997 L 32.949997 44.5 C 33.649994 43.73333 34.28334 42.933334 34.850006 42.099998 C 34.850006 42.066666 34.866669 42.033333 34.899994 42 C 35.300003 41.23333 35.633331 40.449997 35.899994 39.650002 C 36.066666 39.116669 36.033325 38.599998 35.800003 38.099998 Z"/>
                    </g>
                </g>
            </g>
            <g id="g15">
                <g id="g16">
                    <g id="g17">
                        <path id="path6" fill="#3d465d" stroke="none" d="M 65.799988 38.099998 C 65.533325 37.599998 65.166656 37.266663 64.700012 37.099998 C 64.166656 36.933334 63.649994 36.98333 63.149994 37.25 C 62.649994 37.48333 62.31665 37.866669 62.149994 38.400002 C 61.950012 38.966667 61.716675 39.5 61.450012 40 C 61.050018 40.566666 60.600006 41.116669 60.100006 41.650002 C 58.53334 43.216667 56.666672 44 54.5 44 C 52.300003 44 50.433334 43.216667 48.899994 41.650002 C 48.366669 41.116669 47.933334 40.566666 47.600006 40 C 47.300003 39.5 47.083328 38.98333 46.949997 38.449997 C 46.783325 37.916664 46.46666 37.51667 46 37.25 C 45.5 36.98333 44.983337 36.933334 44.449997 37.099998 C 43.916656 37.233337 43.516663 37.550003 43.25 38.050003 C 42.983337 38.51667 42.933334 39.01667 43.100006 39.550003 C 43.333328 40.416664 43.683334 41.23333 44.149994 42 L 44.149994 42.050003 C 44.649994 42.916664 45.283325 43.73333 46.050003 44.5 C 48.383331 46.833332 51.199997 48 54.5 48 C 57.800003 48 60.616669 46.816666 62.950012 44.449997 L 62.950012 44.5 C 63.649994 43.73333 64.283325 42.933334 64.850006 42.099998 C 64.850006 42.066666 64.866669 42.033333 64.899994 42 C 65.299988 41.23333 65.633331 40.449997 65.899994 39.650002 C 66.06665 39.116669 66.033325 38.599998 65.799988 38.099998 Z"/>
                    </g>
                </g>
            </g>
        </g>
    </g>
</svg>
