<?xml version="1.0" encoding="UTF-8"?>
<!-- Generated by Pixelmator Pro 3.6.15 -->
<svg width="70" height="98" viewBox="0 0 70 98" xmlns="http://www.w3.org/2000/svg">
    <g id="Group">
        <g id="backFLFLFLFLFLFLFLFLFLFLFLFLFLFLFLFLFLFLFLFLFLFLFLFLFLFLFLFLFLFLFLFLFLFLFLFLFLFL">
            <g id="g1">
                <g id="g2">
                    <g id="g3">
                        <path id="Path" fill="#454a51" stroke="none" d="M 17.900002 34.549988 L 14.199999 34.349976 C 13.799999 34.31665 13.433332 34.450012 13.099998 34.75 C 12.766665 35.049988 12.583332 35.416687 12.549999 35.849976 C 12.316666 40.549988 10.449999 44.68335 6.949999 48.25 C 6.65 48.483337 6.5 48.81665 6.5 49.25 C 6.466665 49.716675 6.583332 50.100037 6.849998 50.400024 L 6.849998 50.450012 C 6.883333 50.416687 6.916666 50.383362 6.949999 50.349976 C 12.116665 45.849976 15.583332 40.899963 17.349998 35.5 C 17.450001 35.166687 17.633335 34.849976 17.900002 34.549988 Z"/>
                        <path id="path1" fill="#3c3e41" stroke="none" d="M 28.349998 35.150024 L 17.900002 34.549988 C 17.633335 34.849976 17.450001 35.166687 17.349998 35.5 C 15.583332 40.899963 12.116665 45.849976 6.949999 50.349976 C 6.916666 50.383362 6.883333 50.416687 6.849998 50.450012 C 7.15 50.75 7.5 50.93335 7.9 51 C 18.900002 52.166687 26.200001 47.616638 29.799999 37.349976 C 29.900002 36.983337 29.916668 36.649963 29.849998 36.349976 C 29.75 36.016663 29.566666 35.75 29.299999 35.549988 C 29 35.283325 28.683331 35.150024 28.349998 35.150024 Z"/>
                    </g>
                </g>
            </g>
            <g id="g4">
                <g id="g5">
                    <g id="g6">
                        <path id="path2" fill="#3c3e41" stroke="none" d="M 51.300003 35.5 C 51.200005 35.166687 51.01667 34.849976 50.75 34.549988 L 40.299999 35.150024 C 39.966667 35.150024 39.649998 35.283325 39.349998 35.549988 C 39.083332 35.75 38.900002 36.016663 38.799999 36.349976 C 38.733334 36.649963 38.75 36.983337 38.849998 37.349976 C 42.450001 47.616638 49.75 52.166687 60.75 51 C 61.150002 50.93335 61.5 50.75 61.800003 50.450012 C 61.76667 50.416687 61.73333 50.383362 61.699997 50.349976 C 56.533333 45.849976 53.066666 40.899963 51.300003 35.5 Z"/>
                        <path id="path3" fill="#454a51" stroke="none" d="M 56.099998 35.849976 C 56.066666 35.416687 55.883339 35.049988 55.550003 34.75 C 55.216667 34.450012 54.849998 34.31665 54.449997 34.349976 L 50.75 34.549988 C 51.01667 34.849976 51.200005 35.166687 51.300003 35.5 C 53.066666 40.899963 56.533333 45.849976 61.699997 50.349976 C 61.73333 50.383362 61.76667 50.416687 61.800003 50.450012 L 61.800003 50.400024 C 62.066666 50.100037 62.183334 49.716675 62.150002 49.25 C 62.150002 48.81665 62 48.483337 61.699997 48.25 C 58.199997 44.68335 56.333328 40.549988 56.099998 35.849976 Z"/>
                    </g>
                </g>
            </g>
        </g>
        <g id="g7">
            <g id="g8">
                <g id="g9">
                    <g id="g10">
                        <path id="path4" fill="#ffffff" stroke="none" d="M 51.900002 97.950012 L 52 94.950012 L 37.049999 94.950012 L 37.049999 97.950012 L 51.900002 97.950012 Z"/>
                        <path id="path5" fill="#bfd4e5" stroke="none" d="M 52 94.950012 C 48.766666 94.049988 46.850002 92.049988 46.25 88.950012 L 37.049999 88.950012 L 37.049999 94.950012 L 52 94.950012 Z"/>
                        <path id="path6" fill="#bf7958" stroke="none" d="M 46.25 88.950012 L 46.299999 88.950012 L 46.450001 83.950012 L 37.049999 83.950012 L 37.049999 88.950012 L 46.25 88.950012 Z"/>
                        <path id="path7" fill="#676ac6" stroke="none" d="M 46.900002 74.75 C 46.900002 73.149963 46.266666 71.783325 45 70.650024 C 43.766666 69.516663 42.25 68.950012 40.450001 68.950012 C 38.683334 68.950012 37.166668 69.516663 35.900002 70.650024 C 34.633335 71.783325 34 73.149963 34 74.75 C 35.966667 76.350037 36.983334 79.416687 37.049999 83.950012 L 46.450001 83.950012 L 46.900002 74.75 Z"/>
                    </g>
                </g>
            </g>
        </g>
        <g id="g11">
            <g id="g12">
                <g id="g13">
                    <g id="g14">
                        <path id="path8" fill="#ffffff" stroke="none" d="M 14.1 97.950012 L 14 94.950012 L 28.950001 94.950012 L 28.950001 97.950012 L 14.1 97.950012 Z"/>
                        <path id="path9" fill="#bfd4e5" stroke="none" d="M 14 94.950012 C 17.233334 94.049988 19.149998 92.049988 19.75 88.950012 L 28.950001 88.950012 L 28.950001 94.950012 L 14 94.950012 Z"/>
                        <path id="path10" fill="#bf7958" stroke="none" d="M 19.75 88.950012 L 19.700001 88.950012 L 19.549999 83.950012 L 28.950001 83.950012 L 28.950001 88.950012 L 19.75 88.950012 Z"/>
                        <path id="path11" fill="#676ac6" stroke="none" d="M 19.099998 74.75 C 19.099998 73.149963 19.733334 71.783325 21 70.650024 C 22.233334 69.516663 23.75 68.950012 25.549999 68.950012 C 27.316666 68.950012 28.833332 69.516663 30.099998 70.650024 C 31.366665 71.783325 32 73.149963 32 74.75 C 30.033333 76.350037 29.016666 79.416687 28.950001 83.950012 L 19.549999 83.950012 L 19.099998 74.75 Z"/>
                    </g>
                </g>
            </g>
        </g>
        <g id="g15">
            <g id="g16">
                <g id="g17">
                    <g id="g18">
                        <path id="path12" fill="#bf7958" stroke="none" d="M 55.599998 73.150024 C 56.033333 75.516663 56.333336 77.350037 56.5 78.650024 C 56.666664 79.950012 57.466667 80.666626 58.900002 80.799988 C 60.266663 80.900024 61.48333 80.5 62.550003 79.599976 C 63.616669 78.700012 64.216667 77.583313 64.349998 76.25 C 64.616669 73.283325 64.400002 70.43335 63.699997 67.700012 L 54.949997 70.950012 C 55.25 71.716675 55.466667 72.450012 55.599998 73.150024 Z"/>
                        <path id="path13" fill="#3dbf7b" stroke="none" d="M 51.050003 64.549988 C 51.883339 65.650024 52.616669 66.700012 53.25 67.700012 L 62.349998 63.849976 C 61.75 62.483337 61.016663 61.133301 60.150002 59.799988 C 58.416672 57.133301 56.150002 54.56665 53.349998 52.099976 C 52.283333 51.166687 51.050003 50.733337 49.650002 50.799988 C 48.216667 50.866699 47.049999 51.416687 46.150002 52.450012 C 45.150002 53.416687 44.683334 54.600037 44.75 56 C 44.816666 57.366638 45.383331 58.5 46.450001 59.400024 C 48.316666 61.066711 49.849998 62.783325 51.050003 64.549988 Z"/>
                        <path id="path14" fill="#25a863" stroke="none" d="M 63.699997 67.700012 L 64.75 67.25 L 63.650002 63.299988 L 62.349998 63.849976 L 53.25 67.700012 L 52.349998 68.049988 L 53.650002 71.450012 L 54.949997 70.950012 L 63.699997 67.700012 Z"/>
                    </g>
                </g>
            </g>
        </g>
        <g id="g19">
            <g id="g20">
                <g id="g21">
                    <g id="g22">
                        <path id="path15" fill="#bf7958" stroke="none" d="M 10.4 73.150024 C 9.966667 75.516663 9.666666 77.350037 9.5 78.650024 C 9.333334 79.950012 8.533333 80.666626 7.1 80.799988 C 5.733334 80.900024 4.516666 80.5 3.450001 79.599976 C 2.383333 78.700012 1.783333 77.583313 1.65 76.25 C 1.383333 73.283325 1.6 70.43335 2.299999 67.700012 L 11.049999 70.950012 C 10.75 71.716675 10.533333 72.450012 10.4 73.150024 Z"/>
                        <path id="path16" fill="#3dbf7b" stroke="none" d="M 14.950001 64.549988 C 14.116667 65.650024 13.383333 66.700012 12.75 67.700012 L 3.65 63.849976 C 4.25 62.483337 4.983334 61.133301 5.85 59.799988 C 7.583334 57.133301 9.85 54.56665 12.65 52.099976 C 13.716667 51.166687 14.950001 50.733337 16.35 50.799988 C 17.783333 50.866699 18.950001 51.416687 19.849998 52.450012 C 20.849998 53.416687 21.316666 54.600037 21.25 56 C 21.183334 57.366638 20.616669 58.5 19.549999 59.400024 C 17.683334 61.066711 16.15 62.783325 14.950001 64.549988 Z"/>
                        <path id="path17" fill="#25a863" stroke="none" d="M 2.299999 67.700012 L 1.25 67.25 L 2.35 63.299988 L 3.65 63.849976 L 12.75 67.700012 L 13.65 68.049988 L 12.35 71.450012 L 11.049999 70.950012 L 2.299999 67.700012 Z"/>
                    </g>
                </g>
            </g>
        </g>
        <g id="g23">
            <g id="g24">
                <g id="g25">
                    <g id="g26">
                        <path id="path18" fill="#676ac6" stroke="none" d="M 19.25 75.5 C 19.216667 76.93335 19.416668 78.450012 19.849998 80.049988 L 45.150002 80.049988 C 45.583332 78.450012 45.783333 76.93335 45.75 75.5 L 19.25 75.5 Z"/>
                        <path id="path19" fill="#25a863" stroke="none" d="M 19.099998 70.549988 L 22.049999 70.549988 C 22.549999 67.716675 21.033333 65.049988 17.5 62.549988 L 17.700001 63.349976 C 18.400002 65.583313 18.866665 67.983337 19.099998 70.549988 M 47.299999 63.349976 L 47.5 62.549988 C 43.966667 65.049988 42.466667 67.716675 43 70.549988 L 45.950001 70.549988 C 46.183334 67.983337 46.633331 65.583313 47.299999 63.349976 M 42.450001 62.950012 C 42.450001 62.383301 41.5 61.883301 39.599998 61.450012 C 37.633335 61.116699 35.266666 60.950012 32.5 60.950012 C 29.733334 60.950012 27.366665 61.116699 25.400002 61.450012 C 23.5 61.883301 22.549999 62.383301 22.549999 62.950012 C 22.549999 63.516663 23.5 63.966675 25.400002 64.299988 C 27.366665 64.733337 29.733334 64.950012 32.5 64.950012 C 35.266666 64.950012 37.633335 64.733337 39.599998 64.299988 C 41.5 63.966675 42.450001 63.516663 42.450001 62.950012 Z"/>
                        <path id="path20" fill="#3c3e41" stroke="none" d="M 47.099998 70.549988 L 45.950001 70.549988 L 43 70.549988 L 22.049999 70.549988 L 19.099998 70.549988 L 17.950001 70.549988 L 18.700001 75.5 L 19.25 75.5 L 45.75 75.5 L 46.349998 75.5 L 47.099998 70.549988 Z"/>
                        <path id="path21" fill="#3dbf7b" stroke="none" d="M 50.75 56.200012 C 51.416664 52.833374 50.716667 51.083374 48.650002 50.950012 C 48.483334 50.950012 48.316669 50.950012 48.150002 50.950012 L 16.85 50.950012 C 14.416668 50.81665 13.550001 52.56665 14.25 56.200012 C 15.716667 58.299988 16.866667 60.683289 17.700001 63.349976 L 17.5 62.549988 C 21.033333 65.049988 22.549999 67.716675 22.049999 70.549988 L 43 70.549988 C 42.466667 67.716675 43.966667 65.049988 47.5 62.549988 L 47.299999 63.349976 C 48.133331 60.683289 49.283333 58.299988 50.75 56.200012 M 39.599998 61.450012 C 41.5 61.883301 42.450001 62.383301 42.450001 62.950012 C 42.450001 63.516663 41.5 63.966675 39.599998 64.299988 C 37.633335 64.733337 35.266666 64.950012 32.5 64.950012 C 29.733334 64.950012 27.366665 64.733337 25.400002 64.299988 C 23.5 63.966675 22.549999 63.516663 22.549999 62.950012 C 22.549999 62.383301 23.5 61.883301 25.400002 61.450012 C 27.366665 61.116699 29.733334 60.950012 32.5 60.950012 C 35.266666 60.950012 37.633335 61.116699 39.599998 61.450012 Z"/>
                    </g>
                </g>
            </g>
            <g id="g27">
                <g id="g28">
                    <g id="g29">
                        <path id="path22" fill="#ffffff" stroke="none" d="M 43.049999 50.799988 C 42.849998 52.93335 41.849998 54.766663 40.049999 56.299988 C 37.950001 58.06665 35.433334 58.950012 32.5 58.950012 C 29.566666 58.950012 27.049999 58.06665 24.950001 56.299988 C 23.150002 54.799988 22.166668 53 22 50.900024 C 21.633335 51.733337 21.450001 52.600037 21.450001 53.5 C 21.450001 53.666687 21.466667 53.833313 21.5 54 C 21.600002 56.06665 22.650002 57.81665 24.650002 59.25 C 26.816669 60.883362 29.433334 61.700012 32.5 61.700012 C 35.566666 61.700012 38.200001 60.883362 40.400002 59.25 C 42.400002 57.81665 43.450001 56.06665 43.549999 54 C 43.583332 53.833313 43.599998 53.666687 43.599998 53.5 C 43.599998 52.56665 43.416664 51.666626 43.049999 50.799988 Z"/>
                        <path id="path23" fill="#bf7958" stroke="none" d="M 43.099998 50 C 43.099998 47.533325 42.083332 45.399963 40.049999 43.599976 C 37.950001 41.899963 35.433334 41.049988 32.5 41.049988 C 29.566666 41.049988 27.049999 41.899963 24.950001 43.599976 C 22.916668 45.399963 21.900002 47.533325 21.900002 50 C 21.900002 50.166687 21.916668 50.333313 21.950001 50.5 C 21.950001 50.633362 21.966667 50.766663 22 50.900024 C 22.166668 53 23.150002 54.799988 24.950001 56.299988 C 27.049999 58.06665 29.566666 58.950012 32.5 58.950012 C 35.433334 58.950012 37.950001 58.06665 40.049999 56.299988 C 41.849998 54.766663 42.849998 52.93335 43.049999 50.799988 C 43.049999 50.700012 43.049999 50.600037 43.049999 50.5 C 43.083332 50.333313 43.099998 50.166687 43.099998 50 Z"/>
                    </g>
                </g>
            </g>
        </g>
        <g id="g30">
            <g id="g31">
                <g id="g32">
                    <g id="g33">
                        <path id="path24" fill="#a8603f" stroke="none" d="M 51 85.5 L 50.949997 84.549988 C 51.283333 80.416626 52.816666 77.200012 55.550003 74.900024 C 49.283333 79.266663 47.75 82.81665 50.949997 85.549988 L 51 85.5 Z"/>
                        <path id="path25" fill="#bf7958" stroke="none" d="M 63.550003 74.900024 L 55.550003 74.900024 C 52.816666 77.200012 51.283333 80.416626 50.949997 84.549988 L 51 85.5 L 50.949997 85.549988 C 50.916664 86.650024 50.916664 87.833313 50.949997 89.099976 L 50.949997 89.450012 C 50.949997 90.416687 51.633331 91.033325 53 91.299988 C 55.066666 91.733337 57.066666 91.93335 59 91.900024 C 63.933334 91.866638 65.450005 86.200012 63.550003 74.900024 Z"/>
                    </g>
                </g>
            </g>
        </g>
        <g id="g34">
            <g id="g35">
                <g id="g36">
                    <g id="g37">
                        <path id="path26" fill="#a8603f" stroke="none" d="M 15 85.5 L 15.049999 84.549988 C 14.716665 80.416626 13.183332 77.200012 10.450001 74.900024 C 16.716665 79.266663 18.25 82.81665 15.049999 85.549988 L 15 85.5 Z"/>
                        <path id="path27" fill="#bf7958" stroke="none" d="M 2.450001 74.900024 L 10.450001 74.900024 C 13.183332 77.200012 14.716665 80.416626 15.049999 84.549988 L 15 85.5 L 15.049999 85.549988 C 15.083334 86.650024 15.083334 87.833313 15.049999 89.099976 L 15.049999 89.450012 C 15.049999 90.416687 14.366667 91.033325 13 91.299988 C 10.933332 91.733337 8.933332 91.93335 7 91.900024 C 2.066666 91.866638 0.55 86.200012 2.450001 74.900024 Z"/>
                    </g>
                </g>
            </g>
        </g>
        <g id="g38">
            <g id="g39">
                <g id="g40">
                    <g id="g41">
                        <radialGradient id="radialGradient1" cx="33.4" cy="52.1" r="20.481597" fx="33.4" fy="52.1" gradientUnits="userSpaceOnUse">
                            <stop offset="1e-05" stop-color="#000000" stop-opacity="0.301961"/>
                            <stop offset="1" stop-color="#000000" stop-opacity="0"/>
                        </radialGradient>
                        <path id="path28" fill="url(#radialGradient1)" stroke="none" d="M 47.644791 42.549988 C 43.72559 39.950012 38.977325 38.650024 33.400002 38.650024 C 27.822674 38.650024 23.024166 39.950012 19.004471 42.549988 C 15.08527 45.216675 13.125669 48.399963 13.125669 52.099976 C 13.125669 55.799988 15.08527 58.950012 19.004471 61.549988 C 23.024166 64.216675 27.822674 65.549988 33.400002 65.549988 C 38.977325 65.549988 43.72559 64.216675 47.644791 61.549988 C 51.664482 58.950012 53.674332 55.799988 53.674332 52.099976 C 53.674332 48.399963 51.664482 45.216675 47.644791 42.549988 Z"/>
                    </g>
                </g>
            </g>
        </g>
        <g id="g42">
            <g id="g43">
                <g id="g44">
                    <g id="g45">
                        <path id="path29" fill="#3c3e41" stroke="none" d="M 58.599998 25.650024 C 58.233337 20.850037 55.833336 16.700012 51.400002 13.200012 C 46.566669 9.366699 40.733334 7.450012 33.900002 7.450012 C 27.066669 7.450012 21.233334 9.366699 16.4 13.200012 C 12 16.700012 9.616667 20.850037 9.25 25.650024 C 9.616667 31.083313 12 35.766663 16.4 39.700012 C 21.233334 44.033325 27.066669 46.200012 33.900002 46.200012 C 40.733334 46.200012 46.566669 44.033325 51.400002 39.700012 C 55.833336 35.766663 58.233337 31.083313 58.599998 25.650024 Z"/>
                        <path id="path30" fill="#454a51" stroke="none" d="M 58.650002 24.200012 C 58.650002 18.133301 56.233337 12.933289 51.400002 8.599976 C 46.566669 4.333313 40.733334 2.200012 33.900002 2.200012 C 27.066669 2.200012 21.233334 4.333313 16.4 8.599976 C 11.6 12.933289 9.200001 18.133301 9.200001 24.200012 C 9.200001 24.700012 9.216667 25.18335 9.25 25.650024 C 9.616667 20.850037 12 16.700012 16.4 13.200012 C 21.233334 9.366699 27.066669 7.450012 33.900002 7.450012 C 40.733334 7.450012 46.566669 9.366699 51.400002 13.200012 C 55.833336 16.700012 58.233337 20.850037 58.599998 25.650024 C 58.633331 25.18335 58.650002 24.700012 58.650002 24.200012 Z"/>
                    </g>
                </g>
            </g>
            <g id="g46">
                <g id="g47">
                    <g id="g48">
                        <path id="path31" fill="#bf7958" stroke="none" d="M 10.200001 27.25 C 8.633333 28.81665 7.85 30.733337 7.85 33 C 7.85 35.200012 8.633333 37.083313 10.200001 38.650024 C 11.766668 40.283325 13.650002 41.099976 15.85 41.099976 C 18.016666 41.099976 19.899998 40.283325 21.5 38.650024 C 23.066666 37.083313 23.849998 35.200012 23.849998 33 C 23.849998 30.733337 23.066666 28.81665 21.5 27.25 C 19.899998 25.649963 18.016666 24.849976 15.85 24.849976 C 13.650002 24.849976 11.766668 25.649963 10.200001 27.25 M 12.450001 36.400024 C 11.516668 35.466675 11.050001 34.333313 11.050001 33 C 11.050001 31.700012 11.516668 30.533325 12.450001 29.5 C 13.383333 28.56665 14.516666 28.099976 15.85 28.099976 C 17.216667 28.099976 18.349998 28.56665 19.25 29.5 C 20.183334 30.533325 20.650002 31.700012 20.650002 33 C 20.650002 34.333313 20.183334 35.466675 19.25 36.400024 C 18.349998 37.366638 17.216667 37.849976 15.85 37.849976 C 14.516666 37.849976 13.383333 37.366638 12.450001 36.400024 M 47.200001 38.650024 C 48.76667 40.283325 50.650002 41.099976 52.849998 41.099976 C 55.016663 41.099976 56.900002 40.283325 58.5 38.650024 C 60.066666 37.083313 60.849998 35.200012 60.849998 33 C 60.849998 30.733337 60.066666 28.81665 58.5 27.25 C 56.900002 25.649963 55.016663 24.849976 52.849998 24.849976 C 50.650002 24.849976 48.76667 25.649963 47.200001 27.25 C 45.633331 28.81665 44.849998 30.733337 44.849998 33 C 44.849998 35.200012 45.633331 37.083313 47.200001 38.650024 M 49.449997 29.5 C 50.383331 28.56665 51.516663 28.099976 52.849998 28.099976 C 54.183334 28.099976 55.316666 28.56665 56.25 29.5 C 57.183334 30.533325 57.650002 31.700012 57.650002 33 C 57.650002 34.333313 57.183334 35.466675 56.25 36.400024 C 55.316666 37.366638 54.183334 37.849976 52.849998 37.849976 C 51.516663 37.849976 50.383331 37.366638 49.449997 36.400024 C 48.516666 35.466675 48.049999 34.333313 48.049999 33 C 48.049999 31.700012 48.516666 30.533325 49.449997 29.5 Z"/>
                        <path id="path32" fill="#a8603f" stroke="none" d="M 11.050001 33 C 11.050001 34.333313 11.516668 35.466675 12.450001 36.400024 C 13.383333 37.366638 14.516666 37.849976 15.85 37.849976 C 17.216667 37.849976 18.349998 37.366638 19.25 36.400024 C 20.183334 35.466675 20.650002 34.333313 20.650002 33 C 20.650002 31.700012 20.183334 30.533325 19.25 29.5 C 18.349998 28.56665 17.216667 28.099976 15.85 28.099976 C 14.516666 28.099976 13.383333 28.56665 12.450001 29.5 C 11.516668 30.533325 11.050001 31.700012 11.050001 33 M 52.849998 28.099976 C 51.516663 28.099976 50.383331 28.56665 49.449997 29.5 C 48.516666 30.533325 48.049999 31.700012 48.049999 33 C 48.049999 34.333313 48.516666 35.466675 49.449997 36.400024 C 50.383331 37.366638 51.516663 37.849976 52.849998 37.849976 C 54.183334 37.849976 55.316666 37.366638 56.25 36.400024 C 57.183334 35.466675 57.650002 34.333313 57.650002 33 C 57.650002 31.700012 57.183334 30.533325 56.25 29.5 C 55.316666 28.56665 54.183334 28.099976 52.849998 28.099976 Z"/>
                    </g>
                </g>
            </g>
            <g id="g49">
                <g id="g50">
                    <g id="g51">
                        <path id="path33" fill="#bf7958" stroke="none" d="M 52.949997 40.549988 L 55.25 18 L 13.4 18 L 15.700001 40.549988 C 17.066666 45.483337 20.533333 48.916687 26.099998 50.849976 C 28.899998 51.81665 31.633331 52.266663 34.299999 52.200012 C 37 52.266663 39.733334 51.81665 42.5 50.849976 C 48.100002 48.916687 51.583336 45.483337 52.949997 40.549988 Z"/>
                    </g>
                </g>
            </g>
            <g id="g52">
                <g id="g53">
                    <g id="g54">
                        <path id="path34" fill="#955435" stroke="none" d="M 36.700001 39.349976 C 37.400002 38.883362 37.75 38.350037 37.75 37.75 C 37.75 37.149963 37.400002 36.599976 36.700001 36.099976 C 36.033333 35.666687 35.216667 35.450012 34.25 35.450012 C 33.350002 35.450012 32.566669 35.666687 31.900002 36.099976 C 31.233334 36.599976 30.900002 37.149963 30.900002 37.75 C 30.900002 38.350037 31.233334 38.883362 31.900002 39.349976 C 32.566669 39.883362 33.350002 40.150024 34.25 40.150024 C 35.216667 40.150024 36.033333 39.883362 36.700001 39.349976 Z"/>
                    </g>
                </g>
            </g>
            <g id="g55">
                <g id="g56">
                    <g id="g57">
                        <path id="path35" fill="#3c3e41" stroke="none" d="M 21.75 35 C 21.75 34.866638 21.75 34.75 21.75 34.650024 C 21.75 33.483337 22.133335 32.483337 22.900002 31.650024 C 23.533333 30.983337 24.299999 30.566711 25.200001 30.400024 L 19.450001 30.400024 C 20.849998 31.5 21.616665 33.033325 21.75 35 M 28.400002 37.150024 C 28.866665 36.483337 29.099998 35.650024 29.099998 34.650024 C 29.099998 33.68335 28.866665 32.850037 28.400002 32.150024 C 27.933334 31.450012 27.350002 31.099976 26.650002 31.099976 C 25.983334 31.099976 25.433334 31.450012 25 32.150024 C 24.533333 32.850037 24.299999 33.68335 24.299999 34.650024 C 24.299999 35.650024 24.533333 36.483337 25 37.150024 C 25.433334 37.850037 25.983334 38.200012 26.650002 38.200012 C 27.350002 38.200012 27.933334 37.850037 28.400002 37.150024 M 46.900002 34.650024 C 46.900002 34.75 46.900002 34.866638 46.900002 35 C 47.033333 33.033325 47.783333 31.5 49.150002 30.400024 L 43.450001 30.400024 C 44.349998 30.566711 45.116665 30.983337 45.75 31.650024 C 46.516666 32.483337 46.900002 33.483337 46.900002 34.650024 M 39.549999 34.650024 C 39.549999 35.650024 39.783333 36.483337 40.25 37.150024 C 40.683334 37.850037 41.25 38.200012 41.950001 38.200012 C 42.616669 38.200012 43.183334 37.850037 43.650002 37.150024 C 44.116665 36.483337 44.349998 35.650024 44.349998 34.650024 C 44.349998 33.68335 44.116665 32.850037 43.650002 32.150024 C 43.183334 31.450012 42.616669 31.099976 41.950001 31.099976 C 41.25 31.099976 40.683334 31.450012 40.25 32.150024 C 39.783333 32.850037 39.549999 33.68335 39.549999 34.650024 Z"/>
                        <path id="path36" fill="#ffffff" stroke="none" d="M 25.599998 30.349976 C 25.466667 30.349976 25.333336 30.366638 25.200001 30.400024 C 24.299999 30.566711 23.533333 30.983337 22.900002 31.650024 C 22.133335 32.483337 21.75 33.483337 21.75 34.650024 C 21.75 34.75 21.75 34.866638 21.75 35 C 21.816666 36 22.200001 36.883362 22.900002 37.650024 C 23.700001 38.516663 24.683331 38.950012 25.849998 38.950012 C 26.983334 38.950012 27.933334 38.516663 28.700001 37.650024 C 29.5 36.816711 29.900002 35.816711 29.900002 34.650024 C 29.900002 33.483337 29.5 32.483337 28.700001 31.650024 C 27.933334 30.783325 26.983334 30.349976 25.849998 30.349976 C 25.75 30.349976 25.666668 30.349976 25.599998 30.349976 M 29.099998 34.650024 C 29.099998 35.650024 28.866665 36.483337 28.400002 37.150024 C 27.933334 37.850037 27.350002 38.200012 26.650002 38.200012 C 25.983334 38.200012 25.433334 37.850037 25 37.150024 C 24.533333 36.483337 24.299999 35.650024 24.299999 34.650024 C 24.299999 33.68335 24.533333 32.850037 25 32.150024 C 25.433334 31.450012 25.983334 31.099976 26.650002 31.099976 C 27.350002 31.099976 27.933334 31.450012 28.400002 32.150024 C 28.866665 32.850037 29.099998 33.68335 29.099998 34.650024 M 43.450001 30.400024 C 43.316666 30.366638 43.183334 30.349976 43.049999 30.349976 C 42.950001 30.349976 42.850002 30.349976 42.75 30.349976 C 41.616665 30.349976 40.683334 30.783325 39.950001 31.650024 C 39.150002 32.483337 38.75 33.483337 38.75 34.650024 C 38.75 35.816711 39.150002 36.816711 39.950001 37.650024 C 40.683334 38.516663 41.616665 38.950012 42.75 38.950012 C 43.950001 38.950012 44.950001 38.516663 45.75 37.650024 C 46.450001 36.883362 46.833332 36 46.900002 35 C 46.900002 34.866638 46.900002 34.75 46.900002 34.650024 C 46.900002 33.483337 46.516666 32.483337 45.75 31.650024 C 45.116665 30.983337 44.349998 30.566711 43.450001 30.400024 M 40.25 37.150024 C 39.783333 36.483337 39.549999 35.650024 39.549999 34.650024 C 39.549999 33.68335 39.783333 32.850037 40.25 32.150024 C 40.683334 31.450012 41.25 31.099976 41.950001 31.099976 C 42.616669 31.099976 43.183334 31.450012 43.650002 32.150024 C 44.116665 32.850037 44.349998 33.68335 44.349998 34.650024 C 44.349998 35.650024 44.116665 36.483337 43.650002 37.150024 C 43.183334 37.850037 42.616669 38.200012 41.950001 38.200012 C 41.25 38.200012 40.683334 37.850037 40.25 37.150024 Z"/>
                    </g>
                </g>
            </g>
            <g id="g58">
                <g id="g59">
                    <g id="g60">
                        <path id="path37" fill="#ffffff" stroke="none" d="M 36.599998 45.400024 L 36.599998 42.200012 L 28.950001 42.200012 C 28.716667 42.200012 28.5 42.283325 28.299999 42.450012 C 28.066666 42.549988 27.933334 42.716675 27.900002 42.950012 C 27.833332 43.116699 27.833332 43.333313 27.900002 43.599976 C 27.933334 43.933289 28.049999 44.283325 28.25 44.650024 C 28.416668 44.883362 28.599998 45.133362 28.799999 45.400024 L 36.599998 45.400024 Z"/>
                        <path id="path38" fill="#a8603f" stroke="none" d="M 39.75 42.200012 L 36.599998 42.200012 L 36.599998 45.400024 L 28.799999 45.400024 C 29 45.766663 29.266666 46.06665 29.599998 46.299988 C 30.899998 47.56665 32.483334 48.200012 34.349998 48.200012 C 36.149998 48.200012 37.716667 47.583313 39.049999 46.349976 L 39.150002 46.299988 C 39.650002 45.833313 40.066669 45.283325 40.400002 44.650024 C 40.600002 44.283325 40.75 43.933289 40.849998 43.599976 C 40.883335 43.333313 40.866669 43.116699 40.799999 42.950012 C 40.733334 42.716675 40.600002 42.549988 40.400002 42.450012 C 40.200001 42.283325 39.983334 42.200012 39.75 42.200012 Z"/>
                    </g>
                </g>
            </g>
            <g id="g61">
                <g id="g62">
                    <g id="g63">
                        <path id="path39" fill="#3c3e41" stroke="none" d="M 54.900002 26.549988 L 55.900002 18.150024 L 55.349998 18.150024 L 55.349998 17.299988 L 12.65 17.299988 L 13.300001 24.950012 C 20.466667 24.81665 25.766666 23.450012 29.200001 20.849976 C 32.666668 25.149963 36.350002 27.349976 40.25 27.450012 L 41.700001 24.349976 C 46.200001 26.016663 50.599998 26.75 54.900002 26.549988 Z"/>
                    </g>
                </g>
            </g>
            <g id="g64">
                <g id="g65">
                    <g id="g66">
                        <path id="path40" fill="#71a2be" stroke="none" d="M 51.949997 17.25 C 51.416664 16.516663 50.75 15.799988 49.949997 15.099976 C 46.25 11.966675 41.049999 10.400024 34.349998 10.400024 C 27.649998 10.400024 22.466667 11.950012 18.799999 15.049988 C 18.533333 15.216675 18.316666 15.416687 18.149998 15.650024 C 17.583332 16.116638 17.116665 16.649963 16.75 17.25 C 16.35 17.783325 16.299999 18.43335 16.6 19.200012 C 20.900002 16.733337 26.816666 15.5 34.349998 15.5 C 41.816666 15.5 47.716667 16.716675 52.050003 19.150024 C 52.349998 18.416687 52.316666 17.783325 51.949997 17.25 Z"/>
                    </g>
                </g>
            </g>
            <g id="g67">
                <g id="g68">
                    <g id="g69">
                        <path id="path41" fill="#3c3e41" stroke="none" d="M 18.25 31.650024 C 18.649998 31.116638 18.816666 30.5 18.75 29.799988 L 18.099998 24.150024 L 13.15 24.150024 L 13.9 30.400024 C 13.966667 31.066711 14.283333 31.633362 14.85 32.099976 C 15.383333 32.5 15.983334 32.650024 16.65 32.549988 L 16.700001 32.549988 C 17.366669 32.483337 17.883335 32.18335 18.25 31.650024 Z"/>
                    </g>
                </g>
            </g>
            <g id="g70">
                <g id="g71">
                    <g id="g72">
                        <path id="path42" fill="#3c3e41" stroke="none" d="M 49.699997 29.799988 C 49.633331 30.5 49.799995 31.116638 50.199997 31.650024 C 50.599998 32.18335 51.133339 32.483337 51.800003 32.549988 L 51.849998 32.549988 C 52.516663 32.650024 53.116669 32.5 53.650002 32.099976 C 54.216667 31.633362 54.533333 31.066711 54.599998 30.400024 L 55.349998 24.150024 L 50.349998 24.150024 L 49.699997 29.799988 Z"/>
                    </g>
                </g>
            </g>
            <g id="g73">
                <g id="g74">
                    <g id="g75">
                        <path id="path43" fill="#3c3e41" stroke="none" d="M 20.5 25.849976 L 19.849998 28.25 L 29.299999 29.200012 L 29.849998 27.200012 L 20.5 25.849976 Z"/>
                    </g>
                </g>
            </g>
            <g id="g76">
                <g id="g77">
                    <g id="g78">
                        <path id="path44" fill="#3c3e41" stroke="none" d="M 48.849998 28.400024 L 48.450001 26 L 39.099998 26.450012 L 39.450001 28.5 L 48.849998 28.400024 Z"/>
                    </g>
                </g>
            </g>
            <g id="g79">
                <g id="g80">
                    <g id="g81">
                        <path id="path45" fill="#eea160" stroke="none" d="M 54.699997 36.400024 C 54.433334 36.866638 54.366669 37.333313 54.5 37.799988 L 55.5 41.650024 C 55.633331 42.116638 55.916664 42.483337 56.349998 42.75 C 56.783333 42.983337 57.25 43.033325 57.75 42.900024 L 57.800003 42.900024 C 58.26667 42.766663 58.633331 42.483337 58.900002 42.049988 C 59.166672 41.583313 59.233337 41.099976 59.099998 40.599976 L 58.099998 36.799988 C 57.966667 36.333313 57.666664 35.966675 57.199997 35.700012 C 56.73333 35.466675 56.283333 35.416626 55.849998 35.549988 L 55.800003 35.549988 C 55.300003 35.68335 54.933334 35.966675 54.699997 36.400024 Z"/>
                    </g>
                </g>
            </g>
            <g id="g82">
                <g id="g83">
                    <g id="g84">
                        <path id="path46" fill="#eea160" stroke="none" d="M 14.050001 36.400024 C 13.816668 35.966675 13.450001 35.68335 12.950001 35.549988 L 12.9 35.549988 C 12.433334 35.416626 11.966667 35.466675 11.5 35.700012 C 11.033335 35.966675 10.733334 36.333313 10.6 36.799988 L 9.65 40.599976 C 9.516666 41.099976 9.583334 41.583313 9.85 42.049988 C 10.116667 42.483337 10.466667 42.766663 10.9 42.900024 L 10.950001 42.900024 C 11.450001 43.033325 11.916668 42.983337 12.35 42.75 C 12.816668 42.483337 13.116667 42.116638 13.25 41.650024 L 14.25 37.799988 C 14.383333 37.333313 14.316668 36.866638 14.050001 36.400024 Z"/>
                    </g>
                </g>
            </g>
        </g>
    </g>
</svg>
