<?xml version="1.0" encoding="UTF-8"?>
<!-- Generated by Pixelmator Pro 3.6.15 -->
<svg width="80" height="80" viewBox="0 0 80 80" xmlns="http://www.w3.org/2000/svg">
    <g id="Group">
        <g id="greenbodysquare-copy">
            <g id="g1">
                <g id="g2">
                    <g id="g3">
                        <linearGradient id="linearGradient1" x1="40" y1="0" x2="40" y2="80" gradientUnits="userSpaceOnUse">
                            <stop offset="1e-05" stop-color="#71cf93" stop-opacity="1"/>
                            <stop offset="1" stop-color="#59b15c" stop-opacity="1"/>
                        </linearGradient>
                        <path id="Path" fill="url(#linearGradient1)" stroke="none" d="M 80 14 C 79.833333 7.333333 76.316671 4 69.450012 4 L 10.5 4 C 3.666667 4 0.166667 7.333333 0 14 L 0 69.950012 C 0.166667 76.650004 3.666667 80 10.5 80 L 69.450012 80 C 76.316671 80 79.833333 76.650004 80 69.950012 L 80 14 Z"/>
                        <linearGradient id="linearGradient2" x1="39.75" y1="-0.25" x2="39.75" y2="43.25" gradientUnits="userSpaceOnUse">
                            <stop offset="1e-05" stop-color="#85dfaf" stop-opacity="1"/>
                            <stop offset="1" stop-color="#69c581" stop-opacity="1"/>
                        </linearGradient>
                        <path id="path1" fill="url(#linearGradient2)" stroke="none" d="M 80 10.5 C 80 3.5 76.483337 0 69.450012 0 L 10.5 0 C 3.5 0 0 3.5 0 10.5 L 0 14 C 0.166667 7.333333 3.666667 4 10.5 4 L 69.450012 4 C 76.316671 4 79.833333 7.333333 80 14 L 80 10.5 Z"/>
                    </g>
                </g>
            </g>
        </g>
        <g id="facea-copy">
            <g id="g4">
                <g id="g5">
                    <g id="g6">
                        <path id="path2" fill="#ffffff" stroke="none" d="M 17.950001 28.949997 C 15.983334 30.916662 15 33.266663 15 36 C 15 38.766663 15.983334 41.116664 17.950001 43.050003 C 19.883333 45.016668 22.233332 46 25 46 C 27.766668 46 30.116667 45.016668 32.049999 43.050003 C 34.016666 41.116664 35 38.766663 35 36 C 35 33.266663 34.016666 30.916662 32.049999 28.949997 C 30.116667 26.983332 27.766668 26 25 26 C 22.233332 26 19.883333 26.983332 17.950001 28.949997 Z"/>
                    </g>
                </g>
            </g>
            <g id="g7">
                <g id="g8">
                    <g id="g9">
                        <path id="path3" fill="#3d465d" stroke="none" d="M 29.25 40.25 C 30.416667 39.083333 31 37.666667 31 36 C 31 34.366669 30.416667 32.96667 29.25 31.800003 C 28.083333 30.600001 26.666667 30 25 30 C 23.366666 30 21.966666 30.600001 20.799999 31.800003 C 19.6 32.96667 19 34.366669 19 36 C 19 37.666667 19.6 39.083333 20.799999 40.25 C 21.966666 41.416667 23.366666 42 25 42 C 26.666667 42 28.083333 41.416667 29.25 40.25 Z"/>
                    </g>
                </g>
            </g>
            <g id="g10">
                <g id="g11">
                    <g id="g12">
                        <path id="path4" fill="#ffffff" stroke="none" d="M 47.950001 28.949997 C 45.983334 30.916662 45 33.266663 45 36 C 45 38.766663 45.983334 41.116664 47.950001 43.050003 C 49.883333 45.016668 52.233332 46 55 46 C 57.766668 46 60.116669 45.016668 62.050003 43.050003 C 64.016668 41.116664 65 38.766663 65 36 C 65 33.266663 64.016668 30.916662 62.050003 28.949997 C 60.116669 26.983332 57.766668 26 55 26 C 52.233332 26 49.883333 26.983332 47.950001 28.949997 Z"/>
                    </g>
                </g>
            </g>
            <g id="g13">
                <g id="g14">
                    <g id="g15">
                        <path id="path5" fill="#3d465d" stroke="none" d="M 59.25 40.25 C 60.416667 39.083333 61 37.666667 61 36 C 61 34.366669 60.416667 32.96667 59.25 31.800003 C 58.083333 30.600001 56.666667 30 55 30 C 53.366669 30 51.96667 30.600001 50.800003 31.800003 C 49.600001 32.96667 49 34.366669 49 36 C 49 37.666667 49.600001 39.083333 50.800003 40.25 C 51.96667 41.416667 53.366669 42 55 42 C 56.666667 42 58.083333 41.416667 59.25 40.25 Z"/>
                    </g>
                </g>
            </g>
            <g id="g16">
                <g id="g17">
                    <g id="g18">
                        <path id="path6" fill="#3d465d" stroke="none" d="M 48.200001 52.449997 L 48.200001 52.399994 C 48.6 52.099996 48.983332 51.799998 49.349998 51.5 C 49.749997 51.133331 49.966665 50.683329 50 50.149994 C 50.033335 49.583333 49.866669 49.100001 49.5 48.699997 C 49.133334 48.266668 48.683334 48.033335 48.150002 48 C 47.583333 47.966665 47.1 48.133331 46.700001 48.5 C 46.433333 48.733337 46.149999 48.96667 45.849998 49.199997 L 45.799999 49.199997 C 44.200001 50.399999 42.266668 51 40 51 C 37.666667 51 35.683333 50.399999 34.049999 49.199997 C 33.85 49.03333 33.666667 48.866664 33.5 48.699997 C 33.133334 48.266668 32.683334 48.033335 32.150002 48 C 31.583333 47.966665 31.1 48.133331 30.700001 48.5 C 30.266666 48.866669 30.033333 49.333333 30 49.899994 C 29.966667 50.433329 30.133334 50.916667 30.5 51.350006 C 30.800001 51.683339 31.166667 52.016673 31.599998 52.350006 C 31.633334 52.350006 31.650002 52.366669 31.650002 52.399994 C 33.949999 54.133331 36.733332 55 40 55 C 43.199999 55 45.933333 54.149999 48.200001 52.449997 Z"/>
                    </g>
                </g>
            </g>
        </g>
    </g>
</svg>
