<?xml version="1.0" encoding="UTF-8"?>
<!-- Generated by Pixelmator Pro 3.6.15 -->
<svg width="75" height="107" viewBox="0 0 75 107" xmlns="http://www.w3.org/2000/svg">
    <g id="Group-copy-3">
        <g id="Group">
            <g id="g1">
                <g id="g2">
                    <g id="g3">
                        <path id="Path" fill="#3dbf9e" stroke="none" d="M 48.299999 97.950012 L 48.450001 92.950012 L 42.5 92.950012 C 41.366665 95.18335 39.349998 96.349976 36.450001 96.450012 L 36.400002 97.950012 L 48.25 97.950012 L 48.299999 97.950012 Z"/>
                        <path id="path1" fill="#3c3e41" stroke="none" d="M 53.900002 106.950012 L 54 103.950012 L 48.25 97.950012 L 36.400002 97.950012 L 36 106.950012 L 53.900002 106.950012 Z"/>
                        <path id="path2" fill="#eea160" stroke="none" d="M 48.900002 83.75 C 48.900002 82.149963 48.266666 80.783325 47 79.650024 C 45.766666 78.516663 44.25 77.950012 42.450001 77.950012 C 40.683334 77.950012 39.166668 78.516663 37.900002 79.650024 C 36.633335 80.783325 36 82.149963 36 83.75 L 36.549999 92.950012 L 36.450001 96.450012 C 39.349998 96.349976 41.366665 95.18335 42.5 92.950012 L 48.450001 92.950012 L 48.900002 83.75 Z"/>
                    </g>
                </g>
            </g>
        </g>
        <g id="g4">
            <g id="g5">
                <g id="g6">
                    <g id="g7">
                        <path id="path3" fill="#3dbf9e" stroke="none" d="M 21.700001 97.950012 L 21.549999 92.950012 L 27.5 92.950012 C 28.633335 95.18335 30.650002 96.349976 33.549999 96.450012 L 33.599998 97.950012 L 21.75 97.950012 L 21.700001 97.950012 Z"/>
                        <path id="path4" fill="#3c3e41" stroke="none" d="M 16.1 106.950012 L 16 103.950012 L 21.75 97.950012 L 33.599998 97.950012 L 34 106.950012 L 16.1 106.950012 Z"/>
                        <path id="path5" fill="#eea160" stroke="none" d="M 21.099998 83.75 C 21.099998 82.149963 21.733334 80.783325 23 79.650024 C 24.233334 78.516663 25.75 77.950012 27.549999 77.950012 C 29.316666 77.950012 30.833332 78.516663 32.099998 79.650024 C 33.366665 80.783325 34 82.149963 34 83.75 L 33.450001 92.950012 L 33.549999 96.450012 C 30.650002 96.349976 28.633335 95.18335 27.5 92.950012 L 21.549999 92.950012 L 21.099998 83.75 Z"/>
                    </g>
                </g>
            </g>
        </g>
        <g id="g8">
            <g id="g9">
                <g id="g10">
                    <g id="g11">
                        <path id="path6" fill="#4c4eaa" stroke="none" d="M 64.5 72.049988 L 66.699997 72.049988 C 64.933334 71.25 63.599998 70.133301 62.699997 68.700012 C 61.066666 66.133301 59.083336 63.716675 56.75 61.450012 C 55.583336 60.383301 54.183334 59.833313 52.550003 59.799988 C 50.916668 59.833313 49.516666 60.433289 48.349998 61.599976 C 47.216667 62.799988 46.683334 64.200012 46.75 65.799988 C 46.75 67.43335 47.316666 68.81665 48.450001 69.950012 C 50.049999 71.483337 51.383331 73.133362 52.449997 74.900024 C 53.583336 76.43335 54.116669 78.133362 54.050003 80 L 54.5 78.849976 L 55.75 75.5 C 57.416664 76.466675 58.900002 76.966675 60.199997 77 C 60.866661 75.600037 61.133331 73.950012 61 72.049988 L 64.5 72.049988 Z"/>
                        <path id="path7" fill="#3dbf9e" stroke="none" d="M 65.900002 75.400024 C 65.800003 75.133362 65.699997 74.866638 65.599998 74.599976 L 55.300003 81.299988 C 55.566666 82.333313 55.766663 83.416626 55.900002 84.549988 C 56.066666 86.150024 56.783333 87.466675 58.050003 88.5 C 59.349998 89.5 60.816666 89.93335 62.449997 89.799988 C 64.049995 89.599976 65.366669 88.849976 66.400002 87.549988 C 67.433334 86.31665 67.866661 84.866699 67.699997 83.200012 C 67.466667 81.266663 67.099998 79.416687 66.599998 77.650024 C 66.400002 76.883362 66.166672 76.133362 65.900002 75.400024 Z"/>
                        <path id="path8" fill="#29a686" stroke="none" d="M 65.599998 74.599976 C 65.266663 73.733337 64.900002 72.883301 64.5 72.049988 L 61 72.049988 C 61.133331 73.950012 60.866661 75.600037 60.199997 77 C 58.900002 76.966675 57.416664 76.466675 55.75 75.5 L 54.5 78.849976 C 54.799995 79.649963 55.066666 80.466675 55.300003 81.299988 L 65.599998 74.599976 Z"/>
                    </g>
                </g>
            </g>
        </g>
        <g id="g12">
            <g id="g13">
                <g id="g14">
                    <g id="g15">
                        <path id="path9" fill="#4c4eaa" stroke="none" d="M 5.5 72.049988 L 3.299999 72.049988 C 5.066668 71.25 6.4 70.133301 7.299999 68.700012 C 8.933332 66.133301 10.916666 63.716675 13.25 61.450012 C 14.416666 60.383301 15.816668 59.833313 17.450001 59.799988 C 19.083336 59.833313 20.483334 60.433289 21.650002 61.599976 C 22.783333 62.799988 23.316666 64.200012 23.25 65.799988 C 23.25 67.43335 22.683334 68.81665 21.549999 69.950012 C 19.950001 71.483337 18.616667 73.133362 17.549999 74.900024 C 16.416666 76.43335 15.883333 78.133362 15.950001 80 L 15.5 78.849976 L 14.25 75.5 C 12.583334 76.466675 11.1 76.966675 9.799999 77 C 9.133333 75.600037 8.866667 73.950012 9 72.049988 L 5.5 72.049988 Z"/>
                        <path id="path10" fill="#3dbf9e" stroke="none" d="M 4.1 75.400024 C 4.200001 75.133362 4.299999 74.866638 4.4 74.599976 L 14.700001 81.299988 C 14.433332 82.333313 14.233334 83.416626 14.1 84.549988 C 13.933334 86.150024 13.216667 87.466675 11.950001 88.5 C 10.65 89.5 9.183332 89.93335 7.549999 89.799988 C 5.949999 89.599976 4.633333 88.849976 3.6 87.549988 C 2.566667 86.31665 2.133333 84.866699 2.3 83.200012 C 2.533333 81.266663 2.9 79.416687 3.4 77.650024 C 3.6 76.883362 3.833334 76.133362 4.1 75.400024 Z"/>
                        <path id="path11" fill="#29a686" stroke="none" d="M 4.4 74.599976 C 4.733334 73.733337 5.1 72.883301 5.5 72.049988 L 9 72.049988 C 8.866667 73.950012 9.133333 75.600037 9.799999 77 C 11.1 76.966675 12.583334 76.466675 14.25 75.5 L 15.5 78.849976 C 15.199999 79.649963 14.933332 80.466675 14.700001 81.299988 L 4.4 74.599976 Z"/>
                    </g>
                </g>
            </g>
        </g>
        <g id="g16">
            <g id="g17">
                <g id="g18">
                    <g id="g19">
                        <path id="path12" fill="#eea160" stroke="none" d="M 49.549999 83.849976 L 46.799999 83.849976 L 42.650002 79.400024 L 38.150002 83.849976 L 19.5 83.849976 C 19.566666 86.049988 20.066666 87.783325 21 89.049988 L 48.049999 89.049988 C 48.983334 87.783325 49.483334 86.049988 49.549999 83.849976 Z"/>
                        <path id="path13" fill="#676ac6" stroke="none" d="M 52.75 65.25 C 53.450005 61.649963 52.583336 59.916626 50.150002 60.049988 L 18.85 60.049988 C 16.416668 59.916626 15.550001 61.649963 16.25 65.25 L 19.5 78.900024 L 19.5 83.849976 L 38.150002 83.849976 L 42.650002 79.400024 L 46.799999 83.849976 L 49.549999 83.849976 L 49.549999 78.900024 L 52.75 65.25 Z"/>
                    </g>
                </g>
            </g>
            <g id="g20">
                <g id="g21">
                    <g id="g22">
                        <path id="path14" fill="#29a686" stroke="none" d="M 42.549999 52.599976 C 40.450001 50.899963 37.933334 50.049988 35 50.049988 C 32.066666 50.049988 29.549999 50.899963 27.450001 52.599976 C 25.383331 54.399963 24.349998 56.549988 24.349998 59.049988 C 24.349998 59.216675 24.366665 59.383301 24.400002 59.549988 C 24.5 61.81665 25.516666 63.75 27.450001 65.349976 C 29.549999 67.149963 32.066666 68.049988 35 68.049988 C 37.933334 68.049988 40.450001 67.149963 42.549999 65.349976 C 44.483334 63.75 45.5 61.81665 45.599998 59.549988 C 45.633335 59.383301 45.650002 59.216675 45.650002 59.049988 C 45.650002 56.549988 44.616669 54.399963 42.549999 52.599976 Z"/>
                    </g>
                </g>
            </g>
            <g id="g23">
                <g id="g24">
                    <g id="g25">
                        <path id="path15" fill="#4c4eaa" stroke="none" d="M 21.900002 59.049988 L 19.849998 62.650024 L 32.950001 70.25 L 35 66.599976 L 21.900002 59.049988 M 48.099998 59.049988 L 35 66.599976 L 37.049999 70.25 L 50.150002 62.650024 L 48.099998 59.049988 Z"/>
                        <path id="path16" fill="#676ac6" stroke="none" d="M 37.049999 70.25 L 35 66.599976 L 32.950001 70.25 L 37.049999 70.25 Z"/>
                    </g>
                </g>
            </g>
            <g id="g26">
                <g id="g27">
                    <g id="g28">
                        <path id="path17" fill="#3dbf9e" stroke="none" d="M 35.950001 72.700012 C 35.849998 72.633301 35.766666 72.633301 35.700001 72.700012 C 34.799999 72.966675 33.516666 73.899963 31.849998 75.5 L 31.799999 75.5 C 30.233334 77.200012 29.299999 78.466675 29 79.299988 C 28.966667 79.400024 28.966667 79.483337 29 79.549988 C 29.033333 79.650024 29.099998 79.733337 29.200001 79.799988 C 29.299999 79.833313 29.383331 79.833313 29.450001 79.799988 C 30.349998 79.533325 31.649998 78.633362 33.349998 77.099976 L 33.349998 77.049988 C 34.916668 75.349976 35.833332 74.049988 36.099998 73.150024 C 36.133335 73.049988 36.133335 72.966675 36.099998 72.900024 C 36.066666 72.799988 36.016666 72.733337 35.950001 72.700012 Z"/>
                    </g>
                </g>
            </g>
            <g id="g29">
                <g id="g30">
                    <g id="g31">
                        <path id="path18" fill="#3dbf9e" stroke="none" d="M 21.900002 67.299988 C 21.866665 67.400024 21.849998 67.483337 21.849998 67.549988 C 21.883335 68.483337 22.466667 69.966675 23.599998 72 L 23.599998 72.049988 C 24.833332 74.016663 25.799999 75.25 26.5 75.75 C 26.600002 75.783325 26.683334 75.799988 26.75 75.799988 C 26.883335 75.799988 26.983334 75.766663 27.049999 75.700012 C 27.116669 75.599976 27.150002 75.516663 27.150002 75.450012 C 27.116665 74.516663 26.566666 73.016663 25.5 70.950012 C 24.233334 69.016663 23.200001 67.799988 22.400002 67.299988 C 22.299999 67.233337 22.216667 67.200012 22.150002 67.200012 C 22.049999 67.233337 21.966667 67.266663 21.900002 67.299988 Z"/>
                    </g>
                </g>
            </g>
        </g>
        <g id="g32">
            <g id="g33">
                <g id="g34">
                    <g id="g35">
                        <path id="path19" fill="#29a686" stroke="none" d="M 52.150002 94.5 L 52.099998 93.549988 C 52.433334 89.416626 53.699997 86.216675 55.900002 83.950012 C 50.100002 88.25 48.833332 91.783325 52.099998 94.549988 L 52.150002 94.5 Z"/>
                        <path id="path20" fill="#3dbf9e" stroke="none" d="M 68.349998 85.25 C 68.316666 84.350037 67.816666 83.900024 66.849998 83.900024 L 55.900002 83.950012 C 53.699997 86.216675 52.433334 89.416626 52.099998 93.549988 L 52.150002 94.5 L 52.099998 94.549988 C 52.066666 95.650024 52.066666 96.81665 52.099998 98.049988 L 52.099998 98.450012 C 52.099998 99.383301 52.816666 99.983337 54.25 100.25 C 56.349998 100.716675 58.400002 100.93335 60.400002 100.900024 C 66.066666 100.866638 68.716667 95.950012 68.349998 86.150024 L 68.349998 85.25 Z"/>
                    </g>
                </g>
            </g>
        </g>
        <g id="g36">
            <g id="g37">
                <g id="g38">
                    <g id="g39">
                        <path id="path21" fill="#29a686" stroke="none" d="M 17.85 94.5 L 17.9 93.549988 C 17.566666 89.416626 16.299999 86.216675 14.1 83.950012 C 19.900002 88.25 21.166664 91.783325 17.9 94.549988 L 17.85 94.5 Z"/>
                        <path id="path22" fill="#3dbf9e" stroke="none" d="M 1.65 85.25 C 1.683333 84.350037 2.183333 83.900024 3.15 83.900024 L 14.1 83.950012 C 16.299999 86.216675 17.566666 89.416626 17.9 93.549988 L 17.85 94.5 L 17.9 94.549988 C 17.933334 95.650024 17.933334 96.81665 17.9 98.049988 L 17.9 98.450012 C 17.9 99.383301 17.183332 99.983337 15.75 100.25 C 13.65 100.716675 11.6 100.93335 9.6 100.900024 C 3.933332 100.866638 1.283333 95.950012 1.65 86.150024 L 1.65 85.25 Z"/>
                    </g>
                </g>
            </g>
        </g>
        <g id="g40">
            <g id="g41">
                <g id="g42">
                    <g id="g43">
                        <radialGradient id="radialGradient1" cx="35.4" cy="61.1" r="20.481597" fx="35.4" fy="61.1" gradientUnits="userSpaceOnUse">
                            <stop offset="1e-05" stop-color="#000000" stop-opacity="0.301961"/>
                            <stop offset="1" stop-color="#000000" stop-opacity="0"/>
                        </radialGradient>
                        <path id="path23" fill="url(#radialGradient1)" stroke="none" d="M 49.644791 51.549988 C 45.72559 48.950012 40.977325 47.650024 35.400002 47.650024 C 29.822674 47.650024 25.024166 48.950012 21.004471 51.549988 C 17.08527 54.216675 15.125669 57.399963 15.125669 61.099976 C 15.125669 64.799988 17.08527 67.950012 21.004471 70.549988 C 25.024166 73.216675 29.822674 74.549988 35.400002 74.549988 C 40.977325 74.549988 45.72559 73.216675 49.644791 70.549988 C 53.664482 67.950012 55.674332 64.799988 55.674332 61.099976 C 55.674332 57.399963 53.664482 54.216675 49.644791 51.549988 Z"/>
                    </g>
                </g>
            </g>
        </g>
        <g id="g44">
            <g id="g45">
                <g id="g46">
                    <g id="g47">
                        <path id="path24" fill="#3dbf9e" stroke="none" d="M 12.200001 41.950012 C 10.633333 43.516663 9.85 45.43335 9.85 47.700012 C 9.85 49.900024 10.633333 51.799988 12.200001 53.400024 C 13.800001 55 15.700001 55.799988 17.9 55.799988 C 20.099998 55.799988 22 55 23.599998 53.400024 C 25.166668 51.799988 25.950001 49.900024 25.950001 47.700012 C 25.950001 45.43335 25.166668 43.516663 23.599998 41.950012 C 22 40.349976 20.099998 39.549988 17.9 39.549988 C 15.700001 39.549988 13.800001 40.349976 12.200001 41.950012 M 14.5 51.099976 C 13.566668 50.166687 13.1 49.033325 13.1 47.700012 C 13.1 46.400024 13.566668 45.233337 14.5 44.200012 C 15.433332 43.266663 16.566666 42.799988 17.9 42.799988 C 19.266666 42.799988 20.416668 43.266663 21.349998 44.200012 C 22.283333 45.233337 22.75 46.400024 22.75 47.700012 C 22.75 49.033325 22.283333 50.166687 21.349998 51.099976 C 20.416668 52.099976 19.266666 52.599976 17.9 52.599976 C 16.566666 52.599976 15.433332 52.099976 14.5 51.099976 M 49.450001 41.950012 C 47.883331 43.516663 47.099998 45.43335 47.099998 47.700012 C 47.099998 49.900024 47.883331 51.799988 49.450001 53.400024 C 51.050003 55 52.949997 55.799988 55.150002 55.799988 C 57.349998 55.799988 59.25 55 60.849998 53.400024 C 62.416664 51.799988 63.199997 49.900024 63.199997 47.700012 C 63.199997 45.43335 62.416664 43.516663 60.849998 41.950012 C 59.25 40.349976 57.349998 39.549988 55.150002 39.549988 C 52.949997 39.549988 51.050003 40.349976 49.450001 41.950012 M 51.75 44.200012 C 52.683334 43.266663 53.816666 42.799988 55.150002 42.799988 C 56.483337 42.799988 57.633331 43.266663 58.599998 44.200012 C 59.533333 45.233337 60 46.400024 60 47.700012 C 60 49.033325 59.533333 50.166687 58.599998 51.099976 C 57.633331 52.099976 56.483337 52.599976 55.150002 52.599976 C 53.816666 52.599976 52.683334 52.099976 51.75 51.099976 C 50.783333 50.166687 50.299999 49.033325 50.299999 47.700012 C 50.299999 46.400024 50.783333 45.233337 51.75 44.200012 Z"/>
                        <path id="path25" fill="#29a686" stroke="none" d="M 13.1 47.700012 C 13.1 49.033325 13.566668 50.166687 14.5 51.099976 C 15.433332 52.099976 16.566666 52.599976 17.9 52.599976 C 19.266666 52.599976 20.416668 52.099976 21.349998 51.099976 C 22.283333 50.166687 22.75 49.033325 22.75 47.700012 C 22.75 46.400024 22.283333 45.233337 21.349998 44.200012 C 20.416668 43.266663 19.266666 42.799988 17.9 42.799988 C 16.566666 42.799988 15.433332 43.266663 14.5 44.200012 C 13.566668 45.233337 13.1 46.400024 13.1 47.700012 M 55.150002 42.799988 C 53.816666 42.799988 52.683334 43.266663 51.75 44.200012 C 50.783333 45.233337 50.299999 46.400024 50.299999 47.700012 C 50.299999 49.033325 50.783333 50.166687 51.75 51.099976 C 52.683334 52.099976 53.816666 52.599976 55.150002 52.599976 C 56.483337 52.599976 57.633331 52.099976 58.599998 51.099976 C 59.533333 50.166687 60 49.033325 60 47.700012 C 60 46.400024 59.533333 45.233337 58.599998 44.200012 C 57.633331 43.266663 56.483337 42.799988 55.150002 42.799988 Z"/>
                    </g>
                </g>
            </g>
            <g id="g48">
                <g id="g49">
                    <g id="g50">
                        <path id="path26" fill="#3dbf9e" stroke="none" d="M 48.599998 61.200012 C 52.166664 60.733337 54.199997 58.783325 54.699997 55.349976 L 57.349998 29 L 15.35 29 L 18.6 61.200012 L 48.599998 61.200012 Z"/>
                    </g>
                </g>
            </g>
            <g id="g51">
                <g id="g52">
                    <g id="g53">
                        <path id="path27" fill="#3c3e41" stroke="none" d="M 63.449997 16.950012 C 63.383331 16.81665 63.316666 16.68335 63.25 16.549988 L 57.449997 17.099976 C 56.916664 22 54.26667 25.56665 49.5 27.799988 C 50.533337 21.866699 50.166668 18.316711 48.400002 17.150024 C 45.900002 16.25 43.25 14.25 40.450001 11.150024 C 39.150002 9.516663 37.916668 9.466675 36.75 11 C 33.450001 15.799988 29.716667 19.75 25.549999 22.849976 C 22.516666 21.75 19.450001 20.083313 16.35 17.849976 C 15.116667 20.616638 14.466667 22.133362 14.4 22.400024 C 13.666668 24.733337 13.383335 27.066711 13.550001 29.400024 C 13.616667 30.233337 13.733334 31.100037 13.9 32 L 17.800001 37.599976 L 17.800001 32.450012 C 18.333334 32.349976 18.866667 32.25 19.399998 32.150024 C 19.5 32.18335 19.599998 32.216675 19.700001 32.25 C 23.233334 33.783325 27.5 34.549988 32.5 34.549988 C 37.5 34.549988 41.766666 33.783325 45.299999 32.25 C 46.266666 31.81665 47.099998 31.366638 47.799999 30.900024 C 50.899998 31.266663 54.016663 31.783325 57.150002 32.450012 L 57.150002 38.25 L 58.349998 35.799988 C 61.183334 30.266663 62.73333 27.133362 63 26.400024 C 63.333336 25.333313 63.566666 24.266663 63.699997 23.200012 L 63.699997 23.099976 C 63.933334 21.033325 63.849998 18.983337 63.449997 16.950012 Z"/>
                        <path id="path28" fill="#454a51" stroke="none" d="M 63.449997 16.950012 C 63.01667 14.883301 62.233337 12.833313 61.099998 10.799988 L 50.5 12.299988 C 47.333332 12.633301 43.700001 10.649963 39.599998 6.349976 C 38.266666 4.81665 37.116665 4.81665 36.150002 6.349976 C 33.549999 11.25 29.983334 15.083313 25.450001 17.849976 C 22.983334 18.950012 19.950001 18.950012 16.35 17.849976 C 19.450001 20.083313 22.516666 21.75 25.549999 22.849976 C 29.716667 19.75 33.450001 15.799988 36.75 11 C 37.916668 9.466675 39.150002 9.516663 40.450001 11.150024 C 43.25 14.25 45.900002 16.25 48.400002 17.150024 C 50.166668 18.316711 50.533337 21.866699 49.5 27.799988 C 54.26667 25.56665 56.916664 22 57.449997 17.099976 L 63.25 16.549988 C 63.316666 16.68335 63.383331 16.81665 63.449997 16.950012 Z"/>
                    </g>
                </g>
            </g>
            <g id="g54">
                <g id="g55">
                    <g id="g56">
                        <path id="path29" fill="#29a686" stroke="none" d="M 39.099998 50.799988 C 39.799999 50.333313 40.150002 49.799988 40.150002 49.200012 C 40.150002 48.599976 39.799999 48.049988 39.099998 47.549988 C 38.433331 47.116699 37.616665 46.900024 36.650002 46.900024 C 35.716667 46.900024 34.916668 47.116699 34.25 47.549988 C 33.583332 48.049988 33.25 48.599976 33.25 49.200012 C 33.25 49.799988 33.583332 50.333313 34.25 50.799988 C 34.916668 51.299988 35.716667 51.549988 36.650002 51.549988 C 37.616665 51.549988 38.433331 51.299988 39.099998 50.799988 Z"/>
                    </g>
                </g>
            </g>
            <g id="g57">
                <g id="g58">
                    <g id="g59">
                        <path id="path30" fill="#29a686" stroke="none" d="M 53.5 48.849976 C 53.5 47.183289 52.949997 45.733337 51.849998 44.5 C 50.683331 43.299988 49.25 42.700012 47.549999 42.700012 C 45.916664 42.700012 44.549999 43.299988 43.450001 44.5 C 42.283333 45.733337 41.700001 47.183289 41.700001 48.849976 C 41.700001 50.516663 42.283333 51.966675 43.450001 53.200012 C 44.549999 54.43335 45.916664 55.049988 47.549999 55.049988 C 49.25 55.049988 50.683331 54.43335 51.849998 53.200012 C 52.949997 51.966675 53.5 50.516663 53.5 48.849976 Z"/>
                    </g>
                </g>
            </g>
            <g id="g60">
                <g id="g61">
                    <g id="g62">
                        <path id="path31" fill="#ffcc00" stroke="none" d="M 44 47.5 C 44 48.466675 44.333332 49.283325 45 49.950012 C 45.600002 50.650024 46.366669 51 47.299999 51 C 48.299999 51 49.116665 50.650024 49.75 49.950012 C 50.383335 49.283325 50.700001 48.466675 50.700001 47.5 C 50.700001 46.56665 50.383335 45.733337 49.75 45 C 49.116665 44.333313 48.299999 44 47.299999 44 C 46.366669 44 45.600002 44.333313 45 45 C 44.333332 45.733337 44 46.56665 44 47.5 Z"/>
                    </g>
                </g>
            </g>
            <g id="g63">
                <g id="g64">
                    <g id="g65">
                        <path id="path32" fill="#29a686" stroke="none" d="M 31.349998 49.349976 C 32.516666 48.149963 33.099998 46.700012 33.099998 45 C 33.099998 43.333313 32.516666 41.900024 31.349998 40.700012 C 30.25 39.5 28.883335 38.900024 27.25 38.900024 C 25.549999 38.900024 24.116669 39.5 22.950001 40.700012 C 21.849998 41.900024 21.299999 43.333313 21.299999 45 C 21.299999 46.700012 21.849998 48.149963 22.950001 49.349976 C 24.116669 50.583313 25.549999 51.200012 27.25 51.200012 C 28.883335 51.200012 30.25 50.583313 31.349998 49.349976 Z"/>
                    </g>
                </g>
            </g>
            <g id="g66">
                <g id="g67">
                    <g id="g68">
                        <path id="path33" fill="#454a51" stroke="none" d="M 20.799999 35.900024 L 21.700001 39.400024 L 30.799999 36.900024 L 29.900002 33.450012 L 20.799999 35.900024 Z"/>
                    </g>
                </g>
            </g>
            <g id="g69">
                <g id="g70">
                    <g id="g71">
                        <path id="path34" fill="#454a51" stroke="none" d="M 52.400002 42.5 L 52.800003 38.950012 L 43.400002 37.799988 L 43.049999 41.400024 L 52.400002 42.5 Z"/>
                    </g>
                </g>
            </g>
            <g id="g72">
                <g id="g73">
                    <g id="g74">
                        <path id="path35" fill="#ffcc00" stroke="none" d="M 29.799999 46.150024 C 30.466667 45.483337 30.799999 44.650024 30.799999 43.650024 C 30.799999 42.716675 30.466667 41.900024 29.799999 41.200012 C 29.200001 40.533325 28.433334 40.200012 27.5 40.200012 C 26.5 40.200012 25.683334 40.533325 25.049999 41.200012 C 24.416664 41.900024 24.099998 42.716675 24.099998 43.650024 C 24.099998 44.650024 24.416664 45.483337 25.049999 46.150024 C 25.683334 46.850037 26.5 47.200012 27.5 47.200012 C 28.433334 47.200012 29.200001 46.850037 29.799999 46.150024 Z"/>
                    </g>
                </g>
            </g>
            <g id="g75">
                <g id="g76">
                    <g id="g77">
                        <path id="path36" fill="#3c3e41" stroke="none" d="M 16.25 29.900024 L 16.200001 29.900024 C 15.533335 30 14.983334 30.333313 14.550001 30.900024 C 14.116667 31.43335 13.950001 32.033325 14.050001 32.700012 L 15.35 43.25 C 15.416668 43.883362 15.733334 44.43335 16.300001 44.900024 C 16.833334 45.333313 17.433334 45.5 18.1 45.400024 L 18.15 45.400024 C 18.816666 45.333313 19.349998 45.016663 19.75 44.450012 C 20.149998 43.916687 20.316666 43.316711 20.25 42.650024 L 18.950001 32.150024 C 18.85 31.450012 18.533335 30.883301 18 30.450012 C 17.5 30.049988 16.916666 29.866638 16.25 29.900024 M 55.050003 30.450012 C 54.51667 30.883301 54.199997 31.450012 54.099998 32.150024 L 52.650002 44.049988 C 52.583336 44.716675 52.75 45.333313 53.150002 45.900024 C 53.550003 46.43335 54.083336 46.733337 54.75 46.799988 L 54.800003 46.799988 C 55.466667 46.900024 56.066666 46.75 56.599998 46.349976 C 57.166664 45.883362 57.48333 45.316711 57.550003 44.650024 L 59 32.700012 C 59.099998 32.033325 58.933334 31.43335 58.5 30.900024 C 58.066666 30.333313 57.516663 30 56.849998 29.900024 L 56.800003 29.900024 C 56.133339 29.866638 55.550003 30.049988 55.050003 30.450012 Z"/>
                    </g>
                </g>
            </g>
            <g id="g78">
                <g id="g79">
                    <g id="g80">
                        <path id="path37" fill="#197e64" stroke="none" d="M 40.25 54.5 C 39.316666 54.033325 38.216667 53.799988 36.950001 53.799988 C 35.683334 53.799988 34.583332 54.033325 33.650002 54.5 C 32.549999 55.06665 32.016666 55.766663 32.049999 56.599976 C 32.049999 57.099976 32.266666 57.56665 32.700001 58 C 32.866669 58.166687 33.083332 58.266663 33.349998 58.299988 C 33.616665 58.299988 33.849998 58.25 34.049999 58.150024 C 34.283333 58.016663 34.416668 57.850037 34.450001 57.650024 C 34.549999 57.450012 34.766666 57.283325 35.099998 57.150024 C 35.666668 56.850037 36.350002 56.700012 37.150002 56.700012 C 37.950001 56.700012 38.633331 56.850037 39.200001 57.150024 C 39.466667 57.25 39.633331 57.383301 39.700001 57.549988 C 39.833336 57.716675 40.016666 57.849976 40.25 57.950012 C 40.516666 58.016663 40.766666 58.016663 41 57.950012 C 41.266666 57.849976 41.450001 57.716675 41.549999 57.549988 C 41.75 57.25 41.849998 56.933289 41.849998 56.599976 C 41.883335 55.766663 41.350002 55.06665 40.25 54.5 Z"/>
                    </g>
                </g>
            </g>
        </g>
    </g>
</svg>
